%TF.GenerationSoftware,KiCad,Pcbnew,9.0.6*%
%TF.CreationDate,2026-08-03T08:00:47-07:00*%
%TF.ProjectId,mcuc_dclink,6d637563-5f64-4636-9c69-6e6b2e6b6963,rev?*%
%TF.SameCoordinates,Original*%
%TF.FileFunction,Legend,Top*%
%TF.FilePolarity,Positive*%
%FSLAX46Y46*%
G04 Gerber Fmt 4.6, Leading zero omitted, Abs format (unit mm)*
G04 Created by KiCad (PCBNEW 9.0.6) date 2026-08-03 08:00:47*
%MOMM*%
%LPD*%
G01*
G04 APERTURE LIST*
%ADD10C,0.180000*%
%ADD11C,0.150000*%
%ADD12C,0.120000*%
%ADD13C,2.900000*%
%ADD14C,2.000000*%
%ADD15C,13.000000*%
%ADD16C,4.300000*%
%ADD17R,3.000000X3.000000*%
%ADD18C,3.000000*%
G04 APERTURE END LIST*
D10*
X12404135Y-18447782D02*
X12404135Y-17247782D01*
X12404135Y-17247782D02*
X12689849Y-17247782D01*
X12689849Y-17247782D02*
X12861278Y-17304925D01*
X12861278Y-17304925D02*
X12975563Y-17419211D01*
X12975563Y-17419211D02*
X13032706Y-17533497D01*
X13032706Y-17533497D02*
X13089849Y-17762068D01*
X13089849Y-17762068D02*
X13089849Y-17933497D01*
X13089849Y-17933497D02*
X13032706Y-18162068D01*
X13032706Y-18162068D02*
X12975563Y-18276354D01*
X12975563Y-18276354D02*
X12861278Y-18390640D01*
X12861278Y-18390640D02*
X12689849Y-18447782D01*
X12689849Y-18447782D02*
X12404135Y-18447782D01*
X14289849Y-18333497D02*
X14232706Y-18390640D01*
X14232706Y-18390640D02*
X14061278Y-18447782D01*
X14061278Y-18447782D02*
X13946992Y-18447782D01*
X13946992Y-18447782D02*
X13775563Y-18390640D01*
X13775563Y-18390640D02*
X13661278Y-18276354D01*
X13661278Y-18276354D02*
X13604135Y-18162068D01*
X13604135Y-18162068D02*
X13546992Y-17933497D01*
X13546992Y-17933497D02*
X13546992Y-17762068D01*
X13546992Y-17762068D02*
X13604135Y-17533497D01*
X13604135Y-17533497D02*
X13661278Y-17419211D01*
X13661278Y-17419211D02*
X13775563Y-17304925D01*
X13775563Y-17304925D02*
X13946992Y-17247782D01*
X13946992Y-17247782D02*
X14061278Y-17247782D01*
X14061278Y-17247782D02*
X14232706Y-17304925D01*
X14232706Y-17304925D02*
X14289849Y-17362068D01*
X14804135Y-17990640D02*
X15718421Y-17990640D01*
X15261278Y-18447782D02*
X15261278Y-17533497D01*
X17032706Y-17247782D02*
X17718421Y-17247782D01*
X17375563Y-18447782D02*
X17375563Y-17247782D01*
X18118421Y-18447782D02*
X18118421Y-17247782D01*
X18118421Y-17819211D02*
X18804135Y-17819211D01*
X18804135Y-18447782D02*
X18804135Y-17247782D01*
X19375564Y-18447782D02*
X19375564Y-17247782D01*
X19889850Y-18390640D02*
X20061279Y-18447782D01*
X20061279Y-18447782D02*
X20346993Y-18447782D01*
X20346993Y-18447782D02*
X20461279Y-18390640D01*
X20461279Y-18390640D02*
X20518421Y-18333497D01*
X20518421Y-18333497D02*
X20575564Y-18219211D01*
X20575564Y-18219211D02*
X20575564Y-18104925D01*
X20575564Y-18104925D02*
X20518421Y-17990640D01*
X20518421Y-17990640D02*
X20461279Y-17933497D01*
X20461279Y-17933497D02*
X20346993Y-17876354D01*
X20346993Y-17876354D02*
X20118421Y-17819211D01*
X20118421Y-17819211D02*
X20004136Y-17762068D01*
X20004136Y-17762068D02*
X19946993Y-17704925D01*
X19946993Y-17704925D02*
X19889850Y-17590640D01*
X19889850Y-17590640D02*
X19889850Y-17476354D01*
X19889850Y-17476354D02*
X19946993Y-17362068D01*
X19946993Y-17362068D02*
X20004136Y-17304925D01*
X20004136Y-17304925D02*
X20118421Y-17247782D01*
X20118421Y-17247782D02*
X20404136Y-17247782D01*
X20404136Y-17247782D02*
X20575564Y-17304925D01*
X21946993Y-18390640D02*
X22118422Y-18447782D01*
X22118422Y-18447782D02*
X22404136Y-18447782D01*
X22404136Y-18447782D02*
X22518422Y-18390640D01*
X22518422Y-18390640D02*
X22575564Y-18333497D01*
X22575564Y-18333497D02*
X22632707Y-18219211D01*
X22632707Y-18219211D02*
X22632707Y-18104925D01*
X22632707Y-18104925D02*
X22575564Y-17990640D01*
X22575564Y-17990640D02*
X22518422Y-17933497D01*
X22518422Y-17933497D02*
X22404136Y-17876354D01*
X22404136Y-17876354D02*
X22175564Y-17819211D01*
X22175564Y-17819211D02*
X22061279Y-17762068D01*
X22061279Y-17762068D02*
X22004136Y-17704925D01*
X22004136Y-17704925D02*
X21946993Y-17590640D01*
X21946993Y-17590640D02*
X21946993Y-17476354D01*
X21946993Y-17476354D02*
X22004136Y-17362068D01*
X22004136Y-17362068D02*
X22061279Y-17304925D01*
X22061279Y-17304925D02*
X22175564Y-17247782D01*
X22175564Y-17247782D02*
X22461279Y-17247782D01*
X22461279Y-17247782D02*
X22632707Y-17304925D01*
X23146993Y-18447782D02*
X23146993Y-17247782D01*
X23718422Y-18447782D02*
X23718422Y-17247782D01*
X23718422Y-17247782D02*
X24004136Y-17247782D01*
X24004136Y-17247782D02*
X24175565Y-17304925D01*
X24175565Y-17304925D02*
X24289850Y-17419211D01*
X24289850Y-17419211D02*
X24346993Y-17533497D01*
X24346993Y-17533497D02*
X24404136Y-17762068D01*
X24404136Y-17762068D02*
X24404136Y-17933497D01*
X24404136Y-17933497D02*
X24346993Y-18162068D01*
X24346993Y-18162068D02*
X24289850Y-18276354D01*
X24289850Y-18276354D02*
X24175565Y-18390640D01*
X24175565Y-18390640D02*
X24004136Y-18447782D01*
X24004136Y-18447782D02*
X23718422Y-18447782D01*
X24918422Y-17819211D02*
X25318422Y-17819211D01*
X25489850Y-18447782D02*
X24918422Y-18447782D01*
X24918422Y-18447782D02*
X24918422Y-17247782D01*
X24918422Y-17247782D02*
X25489850Y-17247782D01*
X26004136Y-18333497D02*
X26061279Y-18390640D01*
X26061279Y-18390640D02*
X26004136Y-18447782D01*
X26004136Y-18447782D02*
X25946993Y-18390640D01*
X25946993Y-18390640D02*
X26004136Y-18333497D01*
X26004136Y-18333497D02*
X26004136Y-18447782D01*
X26004136Y-17704925D02*
X26061279Y-17762068D01*
X26061279Y-17762068D02*
X26004136Y-17819211D01*
X26004136Y-17819211D02*
X25946993Y-17762068D01*
X25946993Y-17762068D02*
X26004136Y-17704925D01*
X26004136Y-17704925D02*
X26004136Y-17819211D01*
X27889851Y-17819211D02*
X27489851Y-17819211D01*
X27489851Y-18447782D02*
X27489851Y-17247782D01*
X27489851Y-17247782D02*
X28061279Y-17247782D01*
X28518422Y-18333497D02*
X28575565Y-18390640D01*
X28575565Y-18390640D02*
X28518422Y-18447782D01*
X28518422Y-18447782D02*
X28461279Y-18390640D01*
X28461279Y-18390640D02*
X28518422Y-18333497D01*
X28518422Y-18333497D02*
X28518422Y-18447782D01*
X29775565Y-18333497D02*
X29718422Y-18390640D01*
X29718422Y-18390640D02*
X29546994Y-18447782D01*
X29546994Y-18447782D02*
X29432708Y-18447782D01*
X29432708Y-18447782D02*
X29261279Y-18390640D01*
X29261279Y-18390640D02*
X29146994Y-18276354D01*
X29146994Y-18276354D02*
X29089851Y-18162068D01*
X29089851Y-18162068D02*
X29032708Y-17933497D01*
X29032708Y-17933497D02*
X29032708Y-17762068D01*
X29032708Y-17762068D02*
X29089851Y-17533497D01*
X29089851Y-17533497D02*
X29146994Y-17419211D01*
X29146994Y-17419211D02*
X29261279Y-17304925D01*
X29261279Y-17304925D02*
X29432708Y-17247782D01*
X29432708Y-17247782D02*
X29546994Y-17247782D01*
X29546994Y-17247782D02*
X29718422Y-17304925D01*
X29718422Y-17304925D02*
X29775565Y-17362068D01*
X30804137Y-17647782D02*
X30804137Y-18447782D01*
X30289851Y-17647782D02*
X30289851Y-18276354D01*
X30289851Y-18276354D02*
X30346994Y-18390640D01*
X30346994Y-18390640D02*
X30461279Y-18447782D01*
X30461279Y-18447782D02*
X30632708Y-18447782D01*
X30632708Y-18447782D02*
X30746994Y-18390640D01*
X30746994Y-18390640D02*
X30804137Y-18333497D01*
X32175565Y-17647782D02*
X32804137Y-17647782D01*
X32804137Y-17647782D02*
X32175565Y-18447782D01*
X32175565Y-18447782D02*
X32804137Y-18447782D01*
X33432708Y-18447782D02*
X33318423Y-18390640D01*
X33318423Y-18390640D02*
X33261280Y-18333497D01*
X33261280Y-18333497D02*
X33204137Y-18219211D01*
X33204137Y-18219211D02*
X33204137Y-17876354D01*
X33204137Y-17876354D02*
X33261280Y-17762068D01*
X33261280Y-17762068D02*
X33318423Y-17704925D01*
X33318423Y-17704925D02*
X33432708Y-17647782D01*
X33432708Y-17647782D02*
X33604137Y-17647782D01*
X33604137Y-17647782D02*
X33718423Y-17704925D01*
X33718423Y-17704925D02*
X33775566Y-17762068D01*
X33775566Y-17762068D02*
X33832708Y-17876354D01*
X33832708Y-17876354D02*
X33832708Y-18219211D01*
X33832708Y-18219211D02*
X33775566Y-18333497D01*
X33775566Y-18333497D02*
X33718423Y-18390640D01*
X33718423Y-18390640D02*
X33604137Y-18447782D01*
X33604137Y-18447782D02*
X33432708Y-18447782D01*
X34346994Y-17647782D02*
X34346994Y-18447782D01*
X34346994Y-17762068D02*
X34404137Y-17704925D01*
X34404137Y-17704925D02*
X34518422Y-17647782D01*
X34518422Y-17647782D02*
X34689851Y-17647782D01*
X34689851Y-17647782D02*
X34804137Y-17704925D01*
X34804137Y-17704925D02*
X34861280Y-17819211D01*
X34861280Y-17819211D02*
X34861280Y-18447782D01*
X35889851Y-18390640D02*
X35775565Y-18447782D01*
X35775565Y-18447782D02*
X35546994Y-18447782D01*
X35546994Y-18447782D02*
X35432708Y-18390640D01*
X35432708Y-18390640D02*
X35375565Y-18276354D01*
X35375565Y-18276354D02*
X35375565Y-17819211D01*
X35375565Y-17819211D02*
X35432708Y-17704925D01*
X35432708Y-17704925D02*
X35546994Y-17647782D01*
X35546994Y-17647782D02*
X35775565Y-17647782D01*
X35775565Y-17647782D02*
X35889851Y-17704925D01*
X35889851Y-17704925D02*
X35946994Y-17819211D01*
X35946994Y-17819211D02*
X35946994Y-17933497D01*
X35946994Y-17933497D02*
X35375565Y-18047782D01*
X37375565Y-17819211D02*
X38289851Y-17819211D01*
X38289851Y-18162068D02*
X37375565Y-18162068D01*
X39775565Y-18447782D02*
X39775565Y-17247782D01*
X39775565Y-17247782D02*
X40061279Y-17247782D01*
X40061279Y-17247782D02*
X40232708Y-17304925D01*
X40232708Y-17304925D02*
X40346993Y-17419211D01*
X40346993Y-17419211D02*
X40404136Y-17533497D01*
X40404136Y-17533497D02*
X40461279Y-17762068D01*
X40461279Y-17762068D02*
X40461279Y-17933497D01*
X40461279Y-17933497D02*
X40404136Y-18162068D01*
X40404136Y-18162068D02*
X40346993Y-18276354D01*
X40346993Y-18276354D02*
X40232708Y-18390640D01*
X40232708Y-18390640D02*
X40061279Y-18447782D01*
X40061279Y-18447782D02*
X39775565Y-18447782D01*
X41661279Y-18333497D02*
X41604136Y-18390640D01*
X41604136Y-18390640D02*
X41432708Y-18447782D01*
X41432708Y-18447782D02*
X41318422Y-18447782D01*
X41318422Y-18447782D02*
X41146993Y-18390640D01*
X41146993Y-18390640D02*
X41032708Y-18276354D01*
X41032708Y-18276354D02*
X40975565Y-18162068D01*
X40975565Y-18162068D02*
X40918422Y-17933497D01*
X40918422Y-17933497D02*
X40918422Y-17762068D01*
X40918422Y-17762068D02*
X40975565Y-17533497D01*
X40975565Y-17533497D02*
X41032708Y-17419211D01*
X41032708Y-17419211D02*
X41146993Y-17304925D01*
X41146993Y-17304925D02*
X41318422Y-17247782D01*
X41318422Y-17247782D02*
X41432708Y-17247782D01*
X41432708Y-17247782D02*
X41604136Y-17304925D01*
X41604136Y-17304925D02*
X41661279Y-17362068D01*
X41889851Y-18562068D02*
X42804136Y-18562068D01*
X43489851Y-17819211D02*
X43661279Y-17876354D01*
X43661279Y-17876354D02*
X43718422Y-17933497D01*
X43718422Y-17933497D02*
X43775565Y-18047782D01*
X43775565Y-18047782D02*
X43775565Y-18219211D01*
X43775565Y-18219211D02*
X43718422Y-18333497D01*
X43718422Y-18333497D02*
X43661279Y-18390640D01*
X43661279Y-18390640D02*
X43546994Y-18447782D01*
X43546994Y-18447782D02*
X43089851Y-18447782D01*
X43089851Y-18447782D02*
X43089851Y-17247782D01*
X43089851Y-17247782D02*
X43489851Y-17247782D01*
X43489851Y-17247782D02*
X43604137Y-17304925D01*
X43604137Y-17304925D02*
X43661279Y-17362068D01*
X43661279Y-17362068D02*
X43718422Y-17476354D01*
X43718422Y-17476354D02*
X43718422Y-17590640D01*
X43718422Y-17590640D02*
X43661279Y-17704925D01*
X43661279Y-17704925D02*
X43604137Y-17762068D01*
X43604137Y-17762068D02*
X43489851Y-17819211D01*
X43489851Y-17819211D02*
X43089851Y-17819211D01*
X44289851Y-17247782D02*
X44289851Y-18219211D01*
X44289851Y-18219211D02*
X44346994Y-18333497D01*
X44346994Y-18333497D02*
X44404137Y-18390640D01*
X44404137Y-18390640D02*
X44518422Y-18447782D01*
X44518422Y-18447782D02*
X44746994Y-18447782D01*
X44746994Y-18447782D02*
X44861279Y-18390640D01*
X44861279Y-18390640D02*
X44918422Y-18333497D01*
X44918422Y-18333497D02*
X44975565Y-18219211D01*
X44975565Y-18219211D02*
X44975565Y-17247782D01*
X45489851Y-18390640D02*
X45661280Y-18447782D01*
X45661280Y-18447782D02*
X45946994Y-18447782D01*
X45946994Y-18447782D02*
X46061280Y-18390640D01*
X46061280Y-18390640D02*
X46118422Y-18333497D01*
X46118422Y-18333497D02*
X46175565Y-18219211D01*
X46175565Y-18219211D02*
X46175565Y-18104925D01*
X46175565Y-18104925D02*
X46118422Y-17990640D01*
X46118422Y-17990640D02*
X46061280Y-17933497D01*
X46061280Y-17933497D02*
X45946994Y-17876354D01*
X45946994Y-17876354D02*
X45718422Y-17819211D01*
X45718422Y-17819211D02*
X45604137Y-17762068D01*
X45604137Y-17762068D02*
X45546994Y-17704925D01*
X45546994Y-17704925D02*
X45489851Y-17590640D01*
X45489851Y-17590640D02*
X45489851Y-17476354D01*
X45489851Y-17476354D02*
X45546994Y-17362068D01*
X45546994Y-17362068D02*
X45604137Y-17304925D01*
X45604137Y-17304925D02*
X45718422Y-17247782D01*
X45718422Y-17247782D02*
X46004137Y-17247782D01*
X46004137Y-17247782D02*
X46175565Y-17304925D01*
X46404137Y-18562068D02*
X47318422Y-18562068D01*
X47604137Y-18447782D02*
X47604137Y-17247782D01*
X47604137Y-17247782D02*
X48061280Y-17247782D01*
X48061280Y-17247782D02*
X48175565Y-17304925D01*
X48175565Y-17304925D02*
X48232708Y-17362068D01*
X48232708Y-17362068D02*
X48289851Y-17476354D01*
X48289851Y-17476354D02*
X48289851Y-17647782D01*
X48289851Y-17647782D02*
X48232708Y-17762068D01*
X48232708Y-17762068D02*
X48175565Y-17819211D01*
X48175565Y-17819211D02*
X48061280Y-17876354D01*
X48061280Y-17876354D02*
X47604137Y-17876354D01*
X50061280Y-18904925D02*
X50004137Y-18847782D01*
X50004137Y-18847782D02*
X49889851Y-18676354D01*
X49889851Y-18676354D02*
X49832709Y-18562068D01*
X49832709Y-18562068D02*
X49775566Y-18390640D01*
X49775566Y-18390640D02*
X49718423Y-18104925D01*
X49718423Y-18104925D02*
X49718423Y-17876354D01*
X49718423Y-17876354D02*
X49775566Y-17590640D01*
X49775566Y-17590640D02*
X49832709Y-17419211D01*
X49832709Y-17419211D02*
X49889851Y-17304925D01*
X49889851Y-17304925D02*
X50004137Y-17133497D01*
X50004137Y-17133497D02*
X50061280Y-17076354D01*
X50518423Y-18447782D02*
X50518423Y-17247782D01*
X50518423Y-17247782D02*
X50975566Y-17247782D01*
X50975566Y-17247782D02*
X51089851Y-17304925D01*
X51089851Y-17304925D02*
X51146994Y-17362068D01*
X51146994Y-17362068D02*
X51204137Y-17476354D01*
X51204137Y-17476354D02*
X51204137Y-17647782D01*
X51204137Y-17647782D02*
X51146994Y-17762068D01*
X51146994Y-17762068D02*
X51089851Y-17819211D01*
X51089851Y-17819211D02*
X50975566Y-17876354D01*
X50975566Y-17876354D02*
X50518423Y-17876354D01*
X52632709Y-18447782D02*
X52632709Y-17247782D01*
X52632709Y-17704925D02*
X52746995Y-17647782D01*
X52746995Y-17647782D02*
X52975566Y-17647782D01*
X52975566Y-17647782D02*
X53089852Y-17704925D01*
X53089852Y-17704925D02*
X53146995Y-17762068D01*
X53146995Y-17762068D02*
X53204137Y-17876354D01*
X53204137Y-17876354D02*
X53204137Y-18219211D01*
X53204137Y-18219211D02*
X53146995Y-18333497D01*
X53146995Y-18333497D02*
X53089852Y-18390640D01*
X53089852Y-18390640D02*
X52975566Y-18447782D01*
X52975566Y-18447782D02*
X52746995Y-18447782D01*
X52746995Y-18447782D02*
X52632709Y-18390640D01*
X54232709Y-17647782D02*
X54232709Y-18447782D01*
X53718423Y-17647782D02*
X53718423Y-18276354D01*
X53718423Y-18276354D02*
X53775566Y-18390640D01*
X53775566Y-18390640D02*
X53889851Y-18447782D01*
X53889851Y-18447782D02*
X54061280Y-18447782D01*
X54061280Y-18447782D02*
X54175566Y-18390640D01*
X54175566Y-18390640D02*
X54232709Y-18333497D01*
X54746994Y-18390640D02*
X54861280Y-18447782D01*
X54861280Y-18447782D02*
X55089851Y-18447782D01*
X55089851Y-18447782D02*
X55204137Y-18390640D01*
X55204137Y-18390640D02*
X55261280Y-18276354D01*
X55261280Y-18276354D02*
X55261280Y-18219211D01*
X55261280Y-18219211D02*
X55204137Y-18104925D01*
X55204137Y-18104925D02*
X55089851Y-18047782D01*
X55089851Y-18047782D02*
X54918423Y-18047782D01*
X54918423Y-18047782D02*
X54804137Y-17990640D01*
X54804137Y-17990640D02*
X54746994Y-17876354D01*
X54746994Y-17876354D02*
X54746994Y-17819211D01*
X54746994Y-17819211D02*
X54804137Y-17704925D01*
X54804137Y-17704925D02*
X54918423Y-17647782D01*
X54918423Y-17647782D02*
X55089851Y-17647782D01*
X55089851Y-17647782D02*
X55204137Y-17704925D01*
X55775566Y-18447782D02*
X55775566Y-17247782D01*
X55775566Y-17704925D02*
X55889852Y-17647782D01*
X55889852Y-17647782D02*
X56118423Y-17647782D01*
X56118423Y-17647782D02*
X56232709Y-17704925D01*
X56232709Y-17704925D02*
X56289852Y-17762068D01*
X56289852Y-17762068D02*
X56346994Y-17876354D01*
X56346994Y-17876354D02*
X56346994Y-18219211D01*
X56346994Y-18219211D02*
X56289852Y-18333497D01*
X56289852Y-18333497D02*
X56232709Y-18390640D01*
X56232709Y-18390640D02*
X56118423Y-18447782D01*
X56118423Y-18447782D02*
X55889852Y-18447782D01*
X55889852Y-18447782D02*
X55775566Y-18390640D01*
X57375566Y-18447782D02*
X57375566Y-17819211D01*
X57375566Y-17819211D02*
X57318423Y-17704925D01*
X57318423Y-17704925D02*
X57204137Y-17647782D01*
X57204137Y-17647782D02*
X56975566Y-17647782D01*
X56975566Y-17647782D02*
X56861280Y-17704925D01*
X57375566Y-18390640D02*
X57261280Y-18447782D01*
X57261280Y-18447782D02*
X56975566Y-18447782D01*
X56975566Y-18447782D02*
X56861280Y-18390640D01*
X56861280Y-18390640D02*
X56804137Y-18276354D01*
X56804137Y-18276354D02*
X56804137Y-18162068D01*
X56804137Y-18162068D02*
X56861280Y-18047782D01*
X56861280Y-18047782D02*
X56975566Y-17990640D01*
X56975566Y-17990640D02*
X57261280Y-17990640D01*
X57261280Y-17990640D02*
X57375566Y-17933497D01*
X57946994Y-18447782D02*
X57946994Y-17647782D01*
X57946994Y-17876354D02*
X58004137Y-17762068D01*
X58004137Y-17762068D02*
X58061280Y-17704925D01*
X58061280Y-17704925D02*
X58175565Y-17647782D01*
X58175565Y-17647782D02*
X58289851Y-17647782D01*
X59604137Y-17647782D02*
X59604137Y-18847782D01*
X59604137Y-17704925D02*
X59718423Y-17647782D01*
X59718423Y-17647782D02*
X59946994Y-17647782D01*
X59946994Y-17647782D02*
X60061280Y-17704925D01*
X60061280Y-17704925D02*
X60118423Y-17762068D01*
X60118423Y-17762068D02*
X60175565Y-17876354D01*
X60175565Y-17876354D02*
X60175565Y-18219211D01*
X60175565Y-18219211D02*
X60118423Y-18333497D01*
X60118423Y-18333497D02*
X60061280Y-18390640D01*
X60061280Y-18390640D02*
X59946994Y-18447782D01*
X59946994Y-18447782D02*
X59718423Y-18447782D01*
X59718423Y-18447782D02*
X59604137Y-18390640D01*
X60861279Y-18447782D02*
X60746994Y-18390640D01*
X60746994Y-18390640D02*
X60689851Y-18276354D01*
X60689851Y-18276354D02*
X60689851Y-17247782D01*
X61832708Y-18447782D02*
X61832708Y-17819211D01*
X61832708Y-17819211D02*
X61775565Y-17704925D01*
X61775565Y-17704925D02*
X61661279Y-17647782D01*
X61661279Y-17647782D02*
X61432708Y-17647782D01*
X61432708Y-17647782D02*
X61318422Y-17704925D01*
X61832708Y-18390640D02*
X61718422Y-18447782D01*
X61718422Y-18447782D02*
X61432708Y-18447782D01*
X61432708Y-18447782D02*
X61318422Y-18390640D01*
X61318422Y-18390640D02*
X61261279Y-18276354D01*
X61261279Y-18276354D02*
X61261279Y-18162068D01*
X61261279Y-18162068D02*
X61318422Y-18047782D01*
X61318422Y-18047782D02*
X61432708Y-17990640D01*
X61432708Y-17990640D02*
X61718422Y-17990640D01*
X61718422Y-17990640D02*
X61832708Y-17933497D01*
X62232707Y-17647782D02*
X62689850Y-17647782D01*
X62404136Y-17247782D02*
X62404136Y-18276354D01*
X62404136Y-18276354D02*
X62461279Y-18390640D01*
X62461279Y-18390640D02*
X62575564Y-18447782D01*
X62575564Y-18447782D02*
X62689850Y-18447782D01*
X63546993Y-18390640D02*
X63432707Y-18447782D01*
X63432707Y-18447782D02*
X63204136Y-18447782D01*
X63204136Y-18447782D02*
X63089850Y-18390640D01*
X63089850Y-18390640D02*
X63032707Y-18276354D01*
X63032707Y-18276354D02*
X63032707Y-17819211D01*
X63032707Y-17819211D02*
X63089850Y-17704925D01*
X63089850Y-17704925D02*
X63204136Y-17647782D01*
X63204136Y-17647782D02*
X63432707Y-17647782D01*
X63432707Y-17647782D02*
X63546993Y-17704925D01*
X63546993Y-17704925D02*
X63604136Y-17819211D01*
X63604136Y-17819211D02*
X63604136Y-17933497D01*
X63604136Y-17933497D02*
X63032707Y-18047782D01*
X64004135Y-18904925D02*
X64061278Y-18847782D01*
X64061278Y-18847782D02*
X64175564Y-18676354D01*
X64175564Y-18676354D02*
X64232707Y-18562068D01*
X64232707Y-18562068D02*
X64289849Y-18390640D01*
X64289849Y-18390640D02*
X64346992Y-18104925D01*
X64346992Y-18104925D02*
X64346992Y-17876354D01*
X64346992Y-17876354D02*
X64289849Y-17590640D01*
X64289849Y-17590640D02*
X64232707Y-17419211D01*
X64232707Y-17419211D02*
X64175564Y-17304925D01*
X64175564Y-17304925D02*
X64061278Y-17133497D01*
X64061278Y-17133497D02*
X64004135Y-17076354D01*
X192404135Y-3247782D02*
X192404135Y-2047782D01*
X192404135Y-2047782D02*
X192804135Y-2904925D01*
X192804135Y-2904925D02*
X193204135Y-2047782D01*
X193204135Y-2047782D02*
X193204135Y-3247782D01*
X194461278Y-3133497D02*
X194404135Y-3190640D01*
X194404135Y-3190640D02*
X194232707Y-3247782D01*
X194232707Y-3247782D02*
X194118421Y-3247782D01*
X194118421Y-3247782D02*
X193946992Y-3190640D01*
X193946992Y-3190640D02*
X193832707Y-3076354D01*
X193832707Y-3076354D02*
X193775564Y-2962068D01*
X193775564Y-2962068D02*
X193718421Y-2733497D01*
X193718421Y-2733497D02*
X193718421Y-2562068D01*
X193718421Y-2562068D02*
X193775564Y-2333497D01*
X193775564Y-2333497D02*
X193832707Y-2219211D01*
X193832707Y-2219211D02*
X193946992Y-2104925D01*
X193946992Y-2104925D02*
X194118421Y-2047782D01*
X194118421Y-2047782D02*
X194232707Y-2047782D01*
X194232707Y-2047782D02*
X194404135Y-2104925D01*
X194404135Y-2104925D02*
X194461278Y-2162068D01*
X194975564Y-2047782D02*
X194975564Y-3019211D01*
X194975564Y-3019211D02*
X195032707Y-3133497D01*
X195032707Y-3133497D02*
X195089850Y-3190640D01*
X195089850Y-3190640D02*
X195204135Y-3247782D01*
X195204135Y-3247782D02*
X195432707Y-3247782D01*
X195432707Y-3247782D02*
X195546992Y-3190640D01*
X195546992Y-3190640D02*
X195604135Y-3133497D01*
X195604135Y-3133497D02*
X195661278Y-3019211D01*
X195661278Y-3019211D02*
X195661278Y-2047782D01*
X196232707Y-2790640D02*
X197146993Y-2790640D01*
X198404135Y-3133497D02*
X198346992Y-3190640D01*
X198346992Y-3190640D02*
X198175564Y-3247782D01*
X198175564Y-3247782D02*
X198061278Y-3247782D01*
X198061278Y-3247782D02*
X197889849Y-3190640D01*
X197889849Y-3190640D02*
X197775564Y-3076354D01*
X197775564Y-3076354D02*
X197718421Y-2962068D01*
X197718421Y-2962068D02*
X197661278Y-2733497D01*
X197661278Y-2733497D02*
X197661278Y-2562068D01*
X197661278Y-2562068D02*
X197718421Y-2333497D01*
X197718421Y-2333497D02*
X197775564Y-2219211D01*
X197775564Y-2219211D02*
X197889849Y-2104925D01*
X197889849Y-2104925D02*
X198061278Y-2047782D01*
X198061278Y-2047782D02*
X198175564Y-2047782D01*
X198175564Y-2047782D02*
X198346992Y-2104925D01*
X198346992Y-2104925D02*
X198404135Y-2162068D01*
X199832707Y-3247782D02*
X199832707Y-2047782D01*
X199832707Y-2047782D02*
X200118421Y-2047782D01*
X200118421Y-2047782D02*
X200289850Y-2104925D01*
X200289850Y-2104925D02*
X200404135Y-2219211D01*
X200404135Y-2219211D02*
X200461278Y-2333497D01*
X200461278Y-2333497D02*
X200518421Y-2562068D01*
X200518421Y-2562068D02*
X200518421Y-2733497D01*
X200518421Y-2733497D02*
X200461278Y-2962068D01*
X200461278Y-2962068D02*
X200404135Y-3076354D01*
X200404135Y-3076354D02*
X200289850Y-3190640D01*
X200289850Y-3190640D02*
X200118421Y-3247782D01*
X200118421Y-3247782D02*
X199832707Y-3247782D01*
X201718421Y-3133497D02*
X201661278Y-3190640D01*
X201661278Y-3190640D02*
X201489850Y-3247782D01*
X201489850Y-3247782D02*
X201375564Y-3247782D01*
X201375564Y-3247782D02*
X201204135Y-3190640D01*
X201204135Y-3190640D02*
X201089850Y-3076354D01*
X201089850Y-3076354D02*
X201032707Y-2962068D01*
X201032707Y-2962068D02*
X200975564Y-2733497D01*
X200975564Y-2733497D02*
X200975564Y-2562068D01*
X200975564Y-2562068D02*
X201032707Y-2333497D01*
X201032707Y-2333497D02*
X201089850Y-2219211D01*
X201089850Y-2219211D02*
X201204135Y-2104925D01*
X201204135Y-2104925D02*
X201375564Y-2047782D01*
X201375564Y-2047782D02*
X201489850Y-2047782D01*
X201489850Y-2047782D02*
X201661278Y-2104925D01*
X201661278Y-2104925D02*
X201718421Y-2162068D01*
X202232707Y-2790640D02*
X203146993Y-2790640D01*
X204289849Y-3247782D02*
X203718421Y-3247782D01*
X203718421Y-3247782D02*
X203718421Y-2047782D01*
X204689850Y-3247782D02*
X204689850Y-2047782D01*
X205261279Y-3247782D02*
X205261279Y-2047782D01*
X205261279Y-2047782D02*
X205946993Y-3247782D01*
X205946993Y-3247782D02*
X205946993Y-2047782D01*
X206518422Y-3247782D02*
X206518422Y-2047782D01*
X207204136Y-3247782D02*
X206689850Y-2562068D01*
X207204136Y-2047782D02*
X206518422Y-2733497D01*
X209318422Y-3133497D02*
X209261279Y-3190640D01*
X209261279Y-3190640D02*
X209089851Y-3247782D01*
X209089851Y-3247782D02*
X208975565Y-3247782D01*
X208975565Y-3247782D02*
X208804136Y-3190640D01*
X208804136Y-3190640D02*
X208689851Y-3076354D01*
X208689851Y-3076354D02*
X208632708Y-2962068D01*
X208632708Y-2962068D02*
X208575565Y-2733497D01*
X208575565Y-2733497D02*
X208575565Y-2562068D01*
X208575565Y-2562068D02*
X208632708Y-2333497D01*
X208632708Y-2333497D02*
X208689851Y-2219211D01*
X208689851Y-2219211D02*
X208804136Y-2104925D01*
X208804136Y-2104925D02*
X208975565Y-2047782D01*
X208975565Y-2047782D02*
X209089851Y-2047782D01*
X209089851Y-2047782D02*
X209261279Y-2104925D01*
X209261279Y-2104925D02*
X209318422Y-2162068D01*
X209775565Y-2904925D02*
X210346994Y-2904925D01*
X209661279Y-3247782D02*
X210061279Y-2047782D01*
X210061279Y-2047782D02*
X210461279Y-3247782D01*
X211546993Y-3247782D02*
X211146993Y-2676354D01*
X210861279Y-3247782D02*
X210861279Y-2047782D01*
X210861279Y-2047782D02*
X211318422Y-2047782D01*
X211318422Y-2047782D02*
X211432707Y-2104925D01*
X211432707Y-2104925D02*
X211489850Y-2162068D01*
X211489850Y-2162068D02*
X211546993Y-2276354D01*
X211546993Y-2276354D02*
X211546993Y-2447782D01*
X211546993Y-2447782D02*
X211489850Y-2562068D01*
X211489850Y-2562068D02*
X211432707Y-2619211D01*
X211432707Y-2619211D02*
X211318422Y-2676354D01*
X211318422Y-2676354D02*
X210861279Y-2676354D01*
X212746993Y-3247782D02*
X212346993Y-2676354D01*
X212061279Y-3247782D02*
X212061279Y-2047782D01*
X212061279Y-2047782D02*
X212518422Y-2047782D01*
X212518422Y-2047782D02*
X212632707Y-2104925D01*
X212632707Y-2104925D02*
X212689850Y-2162068D01*
X212689850Y-2162068D02*
X212746993Y-2276354D01*
X212746993Y-2276354D02*
X212746993Y-2447782D01*
X212746993Y-2447782D02*
X212689850Y-2562068D01*
X212689850Y-2562068D02*
X212632707Y-2619211D01*
X212632707Y-2619211D02*
X212518422Y-2676354D01*
X212518422Y-2676354D02*
X212061279Y-2676354D01*
X213261279Y-3247782D02*
X213261279Y-2047782D01*
X213832708Y-2619211D02*
X214232708Y-2619211D01*
X214404136Y-3247782D02*
X213832708Y-3247782D01*
X213832708Y-3247782D02*
X213832708Y-2047782D01*
X213832708Y-2047782D02*
X214404136Y-2047782D01*
X215604136Y-3247782D02*
X215204136Y-2676354D01*
X214918422Y-3247782D02*
X214918422Y-2047782D01*
X214918422Y-2047782D02*
X215375565Y-2047782D01*
X215375565Y-2047782D02*
X215489850Y-2104925D01*
X215489850Y-2104925D02*
X215546993Y-2162068D01*
X215546993Y-2162068D02*
X215604136Y-2276354D01*
X215604136Y-2276354D02*
X215604136Y-2447782D01*
X215604136Y-2447782D02*
X215546993Y-2562068D01*
X215546993Y-2562068D02*
X215489850Y-2619211D01*
X215489850Y-2619211D02*
X215375565Y-2676354D01*
X215375565Y-2676354D02*
X214918422Y-2676354D01*
X217032708Y-3247782D02*
X217032708Y-2447782D01*
X217032708Y-2676354D02*
X217089851Y-2562068D01*
X217089851Y-2562068D02*
X217146994Y-2504925D01*
X217146994Y-2504925D02*
X217261279Y-2447782D01*
X217261279Y-2447782D02*
X217375565Y-2447782D01*
X218232708Y-3190640D02*
X218118422Y-3247782D01*
X218118422Y-3247782D02*
X217889851Y-3247782D01*
X217889851Y-3247782D02*
X217775565Y-3190640D01*
X217775565Y-3190640D02*
X217718422Y-3076354D01*
X217718422Y-3076354D02*
X217718422Y-2619211D01*
X217718422Y-2619211D02*
X217775565Y-2504925D01*
X217775565Y-2504925D02*
X217889851Y-2447782D01*
X217889851Y-2447782D02*
X218118422Y-2447782D01*
X218118422Y-2447782D02*
X218232708Y-2504925D01*
X218232708Y-2504925D02*
X218289851Y-2619211D01*
X218289851Y-2619211D02*
X218289851Y-2733497D01*
X218289851Y-2733497D02*
X217718422Y-2847782D01*
X218689850Y-2447782D02*
X218975564Y-3247782D01*
X218975564Y-3247782D02*
X219261279Y-2447782D01*
X220861279Y-2047782D02*
X220975565Y-2047782D01*
X220975565Y-2047782D02*
X221089851Y-2104925D01*
X221089851Y-2104925D02*
X221146994Y-2162068D01*
X221146994Y-2162068D02*
X221204136Y-2276354D01*
X221204136Y-2276354D02*
X221261279Y-2504925D01*
X221261279Y-2504925D02*
X221261279Y-2790640D01*
X221261279Y-2790640D02*
X221204136Y-3019211D01*
X221204136Y-3019211D02*
X221146994Y-3133497D01*
X221146994Y-3133497D02*
X221089851Y-3190640D01*
X221089851Y-3190640D02*
X220975565Y-3247782D01*
X220975565Y-3247782D02*
X220861279Y-3247782D01*
X220861279Y-3247782D02*
X220746994Y-3190640D01*
X220746994Y-3190640D02*
X220689851Y-3133497D01*
X220689851Y-3133497D02*
X220632708Y-3019211D01*
X220632708Y-3019211D02*
X220575565Y-2790640D01*
X220575565Y-2790640D02*
X220575565Y-2504925D01*
X220575565Y-2504925D02*
X220632708Y-2276354D01*
X220632708Y-2276354D02*
X220689851Y-2162068D01*
X220689851Y-2162068D02*
X220746994Y-2104925D01*
X220746994Y-2104925D02*
X220861279Y-2047782D01*
X221775565Y-3133497D02*
X221832708Y-3190640D01*
X221832708Y-3190640D02*
X221775565Y-3247782D01*
X221775565Y-3247782D02*
X221718422Y-3190640D01*
X221718422Y-3190640D02*
X221775565Y-3133497D01*
X221775565Y-3133497D02*
X221775565Y-3247782D01*
X222975565Y-3247782D02*
X222289851Y-3247782D01*
X222632708Y-3247782D02*
X222632708Y-2047782D01*
X222632708Y-2047782D02*
X222518422Y-2219211D01*
X222518422Y-2219211D02*
X222404137Y-2333497D01*
X222404137Y-2333497D02*
X222289851Y-2390640D01*
X193089849Y-5065430D02*
X193032706Y-5122573D01*
X193032706Y-5122573D02*
X192861278Y-5179715D01*
X192861278Y-5179715D02*
X192746992Y-5179715D01*
X192746992Y-5179715D02*
X192575563Y-5122573D01*
X192575563Y-5122573D02*
X192461278Y-5008287D01*
X192461278Y-5008287D02*
X192404135Y-4894001D01*
X192404135Y-4894001D02*
X192346992Y-4665430D01*
X192346992Y-4665430D02*
X192346992Y-4494001D01*
X192346992Y-4494001D02*
X192404135Y-4265430D01*
X192404135Y-4265430D02*
X192461278Y-4151144D01*
X192461278Y-4151144D02*
X192575563Y-4036858D01*
X192575563Y-4036858D02*
X192746992Y-3979715D01*
X192746992Y-3979715D02*
X192861278Y-3979715D01*
X192861278Y-3979715D02*
X193032706Y-4036858D01*
X193032706Y-4036858D02*
X193089849Y-4094001D01*
X194118421Y-5179715D02*
X194118421Y-4551144D01*
X194118421Y-4551144D02*
X194061278Y-4436858D01*
X194061278Y-4436858D02*
X193946992Y-4379715D01*
X193946992Y-4379715D02*
X193718421Y-4379715D01*
X193718421Y-4379715D02*
X193604135Y-4436858D01*
X194118421Y-5122573D02*
X194004135Y-5179715D01*
X194004135Y-5179715D02*
X193718421Y-5179715D01*
X193718421Y-5179715D02*
X193604135Y-5122573D01*
X193604135Y-5122573D02*
X193546992Y-5008287D01*
X193546992Y-5008287D02*
X193546992Y-4894001D01*
X193546992Y-4894001D02*
X193604135Y-4779715D01*
X193604135Y-4779715D02*
X193718421Y-4722573D01*
X193718421Y-4722573D02*
X194004135Y-4722573D01*
X194004135Y-4722573D02*
X194118421Y-4665430D01*
X194689849Y-5179715D02*
X194689849Y-4379715D01*
X194689849Y-4608287D02*
X194746992Y-4494001D01*
X194746992Y-4494001D02*
X194804135Y-4436858D01*
X194804135Y-4436858D02*
X194918420Y-4379715D01*
X194918420Y-4379715D02*
X195032706Y-4379715D01*
X195432706Y-5179715D02*
X195432706Y-4379715D01*
X195432706Y-4608287D02*
X195489849Y-4494001D01*
X195489849Y-4494001D02*
X195546992Y-4436858D01*
X195546992Y-4436858D02*
X195661277Y-4379715D01*
X195661277Y-4379715D02*
X195775563Y-4379715D01*
X196175563Y-5179715D02*
X196175563Y-4379715D01*
X196175563Y-3979715D02*
X196118420Y-4036858D01*
X196118420Y-4036858D02*
X196175563Y-4094001D01*
X196175563Y-4094001D02*
X196232706Y-4036858D01*
X196232706Y-4036858D02*
X196175563Y-3979715D01*
X196175563Y-3979715D02*
X196175563Y-4094001D01*
X197204135Y-5122573D02*
X197089849Y-5179715D01*
X197089849Y-5179715D02*
X196861278Y-5179715D01*
X196861278Y-5179715D02*
X196746992Y-5122573D01*
X196746992Y-5122573D02*
X196689849Y-5008287D01*
X196689849Y-5008287D02*
X196689849Y-4551144D01*
X196689849Y-4551144D02*
X196746992Y-4436858D01*
X196746992Y-4436858D02*
X196861278Y-4379715D01*
X196861278Y-4379715D02*
X197089849Y-4379715D01*
X197089849Y-4379715D02*
X197204135Y-4436858D01*
X197204135Y-4436858D02*
X197261278Y-4551144D01*
X197261278Y-4551144D02*
X197261278Y-4665430D01*
X197261278Y-4665430D02*
X196689849Y-4779715D01*
X197775563Y-5179715D02*
X197775563Y-4379715D01*
X197775563Y-4608287D02*
X197832706Y-4494001D01*
X197832706Y-4494001D02*
X197889849Y-4436858D01*
X197889849Y-4436858D02*
X198004134Y-4379715D01*
X198004134Y-4379715D02*
X198118420Y-4379715D01*
X199261277Y-4379715D02*
X199718420Y-4379715D01*
X199432706Y-5179715D02*
X199432706Y-4151144D01*
X199432706Y-4151144D02*
X199489849Y-4036858D01*
X199489849Y-4036858D02*
X199604134Y-3979715D01*
X199604134Y-3979715D02*
X199718420Y-3979715D01*
X200289848Y-5179715D02*
X200175563Y-5122573D01*
X200175563Y-5122573D02*
X200118420Y-5065430D01*
X200118420Y-5065430D02*
X200061277Y-4951144D01*
X200061277Y-4951144D02*
X200061277Y-4608287D01*
X200061277Y-4608287D02*
X200118420Y-4494001D01*
X200118420Y-4494001D02*
X200175563Y-4436858D01*
X200175563Y-4436858D02*
X200289848Y-4379715D01*
X200289848Y-4379715D02*
X200461277Y-4379715D01*
X200461277Y-4379715D02*
X200575563Y-4436858D01*
X200575563Y-4436858D02*
X200632706Y-4494001D01*
X200632706Y-4494001D02*
X200689848Y-4608287D01*
X200689848Y-4608287D02*
X200689848Y-4951144D01*
X200689848Y-4951144D02*
X200632706Y-5065430D01*
X200632706Y-5065430D02*
X200575563Y-5122573D01*
X200575563Y-5122573D02*
X200461277Y-5179715D01*
X200461277Y-5179715D02*
X200289848Y-5179715D01*
X201204134Y-5179715D02*
X201204134Y-4379715D01*
X201204134Y-4608287D02*
X201261277Y-4494001D01*
X201261277Y-4494001D02*
X201318420Y-4436858D01*
X201318420Y-4436858D02*
X201432705Y-4379715D01*
X201432705Y-4379715D02*
X201546991Y-4379715D01*
X203432705Y-3979715D02*
X202861277Y-3979715D01*
X202861277Y-3979715D02*
X202804134Y-4551144D01*
X202804134Y-4551144D02*
X202861277Y-4494001D01*
X202861277Y-4494001D02*
X202975563Y-4436858D01*
X202975563Y-4436858D02*
X203261277Y-4436858D01*
X203261277Y-4436858D02*
X203375563Y-4494001D01*
X203375563Y-4494001D02*
X203432705Y-4551144D01*
X203432705Y-4551144D02*
X203489848Y-4665430D01*
X203489848Y-4665430D02*
X203489848Y-4951144D01*
X203489848Y-4951144D02*
X203432705Y-5065430D01*
X203432705Y-5065430D02*
X203375563Y-5122573D01*
X203375563Y-5122573D02*
X203261277Y-5179715D01*
X203261277Y-5179715D02*
X202975563Y-5179715D01*
X202975563Y-5179715D02*
X202861277Y-5122573D01*
X202861277Y-5122573D02*
X202804134Y-5065430D01*
X203889848Y-5179715D02*
X204518420Y-4379715D01*
X203889848Y-4379715D02*
X204518420Y-5179715D01*
X205889849Y-5179715D02*
X205889849Y-3979715D01*
X205889849Y-3979715D02*
X206289849Y-4836858D01*
X206289849Y-4836858D02*
X206689849Y-3979715D01*
X206689849Y-3979715D02*
X206689849Y-5179715D01*
X207261278Y-5179715D02*
X207261278Y-3979715D01*
X207946992Y-5179715D02*
X207432706Y-4494001D01*
X207946992Y-3979715D02*
X207261278Y-4665430D01*
X208461278Y-5179715D02*
X208461278Y-3979715D01*
X208461278Y-3979715D02*
X208918421Y-3979715D01*
X208918421Y-3979715D02*
X209032706Y-4036858D01*
X209032706Y-4036858D02*
X209089849Y-4094001D01*
X209089849Y-4094001D02*
X209146992Y-4208287D01*
X209146992Y-4208287D02*
X209146992Y-4379715D01*
X209146992Y-4379715D02*
X209089849Y-4494001D01*
X209089849Y-4494001D02*
X209032706Y-4551144D01*
X209032706Y-4551144D02*
X208918421Y-4608287D01*
X208918421Y-4608287D02*
X208461278Y-4608287D01*
X210289849Y-5179715D02*
X209604135Y-5179715D01*
X209946992Y-5179715D02*
X209946992Y-3979715D01*
X209946992Y-3979715D02*
X209832706Y-4151144D01*
X209832706Y-4151144D02*
X209718421Y-4265430D01*
X209718421Y-4265430D02*
X209604135Y-4322573D01*
X210975563Y-4494001D02*
X210861278Y-4436858D01*
X210861278Y-4436858D02*
X210804135Y-4379715D01*
X210804135Y-4379715D02*
X210746992Y-4265430D01*
X210746992Y-4265430D02*
X210746992Y-4208287D01*
X210746992Y-4208287D02*
X210804135Y-4094001D01*
X210804135Y-4094001D02*
X210861278Y-4036858D01*
X210861278Y-4036858D02*
X210975563Y-3979715D01*
X210975563Y-3979715D02*
X211204135Y-3979715D01*
X211204135Y-3979715D02*
X211318421Y-4036858D01*
X211318421Y-4036858D02*
X211375563Y-4094001D01*
X211375563Y-4094001D02*
X211432706Y-4208287D01*
X211432706Y-4208287D02*
X211432706Y-4265430D01*
X211432706Y-4265430D02*
X211375563Y-4379715D01*
X211375563Y-4379715D02*
X211318421Y-4436858D01*
X211318421Y-4436858D02*
X211204135Y-4494001D01*
X211204135Y-4494001D02*
X210975563Y-4494001D01*
X210975563Y-4494001D02*
X210861278Y-4551144D01*
X210861278Y-4551144D02*
X210804135Y-4608287D01*
X210804135Y-4608287D02*
X210746992Y-4722573D01*
X210746992Y-4722573D02*
X210746992Y-4951144D01*
X210746992Y-4951144D02*
X210804135Y-5065430D01*
X210804135Y-5065430D02*
X210861278Y-5122573D01*
X210861278Y-5122573D02*
X210975563Y-5179715D01*
X210975563Y-5179715D02*
X211204135Y-5179715D01*
X211204135Y-5179715D02*
X211318421Y-5122573D01*
X211318421Y-5122573D02*
X211375563Y-5065430D01*
X211375563Y-5065430D02*
X211432706Y-4951144D01*
X211432706Y-4951144D02*
X211432706Y-4722573D01*
X211432706Y-4722573D02*
X211375563Y-4608287D01*
X211375563Y-4608287D02*
X211318421Y-4551144D01*
X211318421Y-4551144D02*
X211204135Y-4494001D01*
X212461278Y-4379715D02*
X212461278Y-5179715D01*
X212175563Y-3922573D02*
X211889849Y-4779715D01*
X211889849Y-4779715D02*
X212632706Y-4779715D01*
X213261277Y-4494001D02*
X213146992Y-4436858D01*
X213146992Y-4436858D02*
X213089849Y-4379715D01*
X213089849Y-4379715D02*
X213032706Y-4265430D01*
X213032706Y-4265430D02*
X213032706Y-4208287D01*
X213032706Y-4208287D02*
X213089849Y-4094001D01*
X213089849Y-4094001D02*
X213146992Y-4036858D01*
X213146992Y-4036858D02*
X213261277Y-3979715D01*
X213261277Y-3979715D02*
X213489849Y-3979715D01*
X213489849Y-3979715D02*
X213604135Y-4036858D01*
X213604135Y-4036858D02*
X213661277Y-4094001D01*
X213661277Y-4094001D02*
X213718420Y-4208287D01*
X213718420Y-4208287D02*
X213718420Y-4265430D01*
X213718420Y-4265430D02*
X213661277Y-4379715D01*
X213661277Y-4379715D02*
X213604135Y-4436858D01*
X213604135Y-4436858D02*
X213489849Y-4494001D01*
X213489849Y-4494001D02*
X213261277Y-4494001D01*
X213261277Y-4494001D02*
X213146992Y-4551144D01*
X213146992Y-4551144D02*
X213089849Y-4608287D01*
X213089849Y-4608287D02*
X213032706Y-4722573D01*
X213032706Y-4722573D02*
X213032706Y-4951144D01*
X213032706Y-4951144D02*
X213089849Y-5065430D01*
X213089849Y-5065430D02*
X213146992Y-5122573D01*
X213146992Y-5122573D02*
X213261277Y-5179715D01*
X213261277Y-5179715D02*
X213489849Y-5179715D01*
X213489849Y-5179715D02*
X213604135Y-5122573D01*
X213604135Y-5122573D02*
X213661277Y-5065430D01*
X213661277Y-5065430D02*
X213718420Y-4951144D01*
X213718420Y-4951144D02*
X213718420Y-4722573D01*
X213718420Y-4722573D02*
X213661277Y-4608287D01*
X213661277Y-4608287D02*
X213604135Y-4551144D01*
X213604135Y-4551144D02*
X213489849Y-4494001D01*
X214918420Y-5065430D02*
X214861277Y-5122573D01*
X214861277Y-5122573D02*
X214689849Y-5179715D01*
X214689849Y-5179715D02*
X214575563Y-5179715D01*
X214575563Y-5179715D02*
X214404134Y-5122573D01*
X214404134Y-5122573D02*
X214289849Y-5008287D01*
X214289849Y-5008287D02*
X214232706Y-4894001D01*
X214232706Y-4894001D02*
X214175563Y-4665430D01*
X214175563Y-4665430D02*
X214175563Y-4494001D01*
X214175563Y-4494001D02*
X214232706Y-4265430D01*
X214232706Y-4265430D02*
X214289849Y-4151144D01*
X214289849Y-4151144D02*
X214404134Y-4036858D01*
X214404134Y-4036858D02*
X214575563Y-3979715D01*
X214575563Y-3979715D02*
X214689849Y-3979715D01*
X214689849Y-3979715D02*
X214861277Y-4036858D01*
X214861277Y-4036858D02*
X214918420Y-4094001D01*
X216975563Y-5179715D02*
X216289849Y-5179715D01*
X216632706Y-5179715D02*
X216632706Y-3979715D01*
X216632706Y-3979715D02*
X216518420Y-4151144D01*
X216518420Y-4151144D02*
X216404135Y-4265430D01*
X216404135Y-4265430D02*
X216289849Y-4322573D01*
X217718420Y-3979715D02*
X217832706Y-3979715D01*
X217832706Y-3979715D02*
X217946992Y-4036858D01*
X217946992Y-4036858D02*
X218004135Y-4094001D01*
X218004135Y-4094001D02*
X218061277Y-4208287D01*
X218061277Y-4208287D02*
X218118420Y-4436858D01*
X218118420Y-4436858D02*
X218118420Y-4722573D01*
X218118420Y-4722573D02*
X218061277Y-4951144D01*
X218061277Y-4951144D02*
X218004135Y-5065430D01*
X218004135Y-5065430D02*
X217946992Y-5122573D01*
X217946992Y-5122573D02*
X217832706Y-5179715D01*
X217832706Y-5179715D02*
X217718420Y-5179715D01*
X217718420Y-5179715D02*
X217604135Y-5122573D01*
X217604135Y-5122573D02*
X217546992Y-5065430D01*
X217546992Y-5065430D02*
X217489849Y-4951144D01*
X217489849Y-4951144D02*
X217432706Y-4722573D01*
X217432706Y-4722573D02*
X217432706Y-4436858D01*
X217432706Y-4436858D02*
X217489849Y-4208287D01*
X217489849Y-4208287D02*
X217546992Y-4094001D01*
X217546992Y-4094001D02*
X217604135Y-4036858D01*
X217604135Y-4036858D02*
X217718420Y-3979715D01*
X218861277Y-3979715D02*
X218975563Y-3979715D01*
X218975563Y-3979715D02*
X219089849Y-4036858D01*
X219089849Y-4036858D02*
X219146992Y-4094001D01*
X219146992Y-4094001D02*
X219204134Y-4208287D01*
X219204134Y-4208287D02*
X219261277Y-4436858D01*
X219261277Y-4436858D02*
X219261277Y-4722573D01*
X219261277Y-4722573D02*
X219204134Y-4951144D01*
X219204134Y-4951144D02*
X219146992Y-5065430D01*
X219146992Y-5065430D02*
X219089849Y-5122573D01*
X219089849Y-5122573D02*
X218975563Y-5179715D01*
X218975563Y-5179715D02*
X218861277Y-5179715D01*
X218861277Y-5179715D02*
X218746992Y-5122573D01*
X218746992Y-5122573D02*
X218689849Y-5065430D01*
X218689849Y-5065430D02*
X218632706Y-4951144D01*
X218632706Y-4951144D02*
X218575563Y-4722573D01*
X218575563Y-4722573D02*
X218575563Y-4436858D01*
X218575563Y-4436858D02*
X218632706Y-4208287D01*
X218632706Y-4208287D02*
X218689849Y-4094001D01*
X218689849Y-4094001D02*
X218746992Y-4036858D01*
X218746992Y-4036858D02*
X218861277Y-3979715D01*
X220289849Y-4379715D02*
X220289849Y-5179715D01*
X219775563Y-4379715D02*
X219775563Y-5008287D01*
X219775563Y-5008287D02*
X219832706Y-5122573D01*
X219832706Y-5122573D02*
X219946991Y-5179715D01*
X219946991Y-5179715D02*
X220118420Y-5179715D01*
X220118420Y-5179715D02*
X220232706Y-5122573D01*
X220232706Y-5122573D02*
X220289849Y-5065430D01*
X221261277Y-4551144D02*
X220861277Y-4551144D01*
X220861277Y-5179715D02*
X220861277Y-3979715D01*
X220861277Y-3979715D02*
X221432705Y-3979715D01*
X222746991Y-3922573D02*
X221718419Y-5465430D01*
X223775562Y-5179715D02*
X223089848Y-5179715D01*
X223432705Y-5179715D02*
X223432705Y-3979715D01*
X223432705Y-3979715D02*
X223318419Y-4151144D01*
X223318419Y-4151144D02*
X223204134Y-4265430D01*
X223204134Y-4265430D02*
X223089848Y-4322573D01*
X224518419Y-3979715D02*
X224632705Y-3979715D01*
X224632705Y-3979715D02*
X224746991Y-4036858D01*
X224746991Y-4036858D02*
X224804134Y-4094001D01*
X224804134Y-4094001D02*
X224861276Y-4208287D01*
X224861276Y-4208287D02*
X224918419Y-4436858D01*
X224918419Y-4436858D02*
X224918419Y-4722573D01*
X224918419Y-4722573D02*
X224861276Y-4951144D01*
X224861276Y-4951144D02*
X224804134Y-5065430D01*
X224804134Y-5065430D02*
X224746991Y-5122573D01*
X224746991Y-5122573D02*
X224632705Y-5179715D01*
X224632705Y-5179715D02*
X224518419Y-5179715D01*
X224518419Y-5179715D02*
X224404134Y-5122573D01*
X224404134Y-5122573D02*
X224346991Y-5065430D01*
X224346991Y-5065430D02*
X224289848Y-4951144D01*
X224289848Y-4951144D02*
X224232705Y-4722573D01*
X224232705Y-4722573D02*
X224232705Y-4436858D01*
X224232705Y-4436858D02*
X224289848Y-4208287D01*
X224289848Y-4208287D02*
X224346991Y-4094001D01*
X224346991Y-4094001D02*
X224404134Y-4036858D01*
X224404134Y-4036858D02*
X224518419Y-3979715D01*
X225661276Y-3979715D02*
X225775562Y-3979715D01*
X225775562Y-3979715D02*
X225889848Y-4036858D01*
X225889848Y-4036858D02*
X225946991Y-4094001D01*
X225946991Y-4094001D02*
X226004133Y-4208287D01*
X226004133Y-4208287D02*
X226061276Y-4436858D01*
X226061276Y-4436858D02*
X226061276Y-4722573D01*
X226061276Y-4722573D02*
X226004133Y-4951144D01*
X226004133Y-4951144D02*
X225946991Y-5065430D01*
X225946991Y-5065430D02*
X225889848Y-5122573D01*
X225889848Y-5122573D02*
X225775562Y-5179715D01*
X225775562Y-5179715D02*
X225661276Y-5179715D01*
X225661276Y-5179715D02*
X225546991Y-5122573D01*
X225546991Y-5122573D02*
X225489848Y-5065430D01*
X225489848Y-5065430D02*
X225432705Y-4951144D01*
X225432705Y-4951144D02*
X225375562Y-4722573D01*
X225375562Y-4722573D02*
X225375562Y-4436858D01*
X225375562Y-4436858D02*
X225432705Y-4208287D01*
X225432705Y-4208287D02*
X225489848Y-4094001D01*
X225489848Y-4094001D02*
X225546991Y-4036858D01*
X225546991Y-4036858D02*
X225661276Y-3979715D01*
X226804133Y-3979715D02*
X226918419Y-3979715D01*
X226918419Y-3979715D02*
X227032705Y-4036858D01*
X227032705Y-4036858D02*
X227089848Y-4094001D01*
X227089848Y-4094001D02*
X227146990Y-4208287D01*
X227146990Y-4208287D02*
X227204133Y-4436858D01*
X227204133Y-4436858D02*
X227204133Y-4722573D01*
X227204133Y-4722573D02*
X227146990Y-4951144D01*
X227146990Y-4951144D02*
X227089848Y-5065430D01*
X227089848Y-5065430D02*
X227032705Y-5122573D01*
X227032705Y-5122573D02*
X226918419Y-5179715D01*
X226918419Y-5179715D02*
X226804133Y-5179715D01*
X226804133Y-5179715D02*
X226689848Y-5122573D01*
X226689848Y-5122573D02*
X226632705Y-5065430D01*
X226632705Y-5065430D02*
X226575562Y-4951144D01*
X226575562Y-4951144D02*
X226518419Y-4722573D01*
X226518419Y-4722573D02*
X226518419Y-4436858D01*
X226518419Y-4436858D02*
X226575562Y-4208287D01*
X226575562Y-4208287D02*
X226632705Y-4094001D01*
X226632705Y-4094001D02*
X226689848Y-4036858D01*
X226689848Y-4036858D02*
X226804133Y-3979715D01*
X227546990Y-3979715D02*
X227946990Y-5179715D01*
X227946990Y-5179715D02*
X228346990Y-3979715D01*
X228804133Y-5122573D02*
X228804133Y-5179715D01*
X228804133Y-5179715D02*
X228746990Y-5294001D01*
X228746990Y-5294001D02*
X228689847Y-5351144D01*
X228746990Y-4436858D02*
X228804133Y-4494001D01*
X228804133Y-4494001D02*
X228746990Y-4551144D01*
X228746990Y-4551144D02*
X228689847Y-4494001D01*
X228689847Y-4494001D02*
X228746990Y-4436858D01*
X228746990Y-4436858D02*
X228746990Y-4551144D01*
X230861276Y-5179715D02*
X230175562Y-5179715D01*
X230518419Y-5179715D02*
X230518419Y-3979715D01*
X230518419Y-3979715D02*
X230404133Y-4151144D01*
X230404133Y-4151144D02*
X230289848Y-4265430D01*
X230289848Y-4265430D02*
X230175562Y-4322573D01*
X232004133Y-5179715D02*
X231318419Y-5179715D01*
X231661276Y-5179715D02*
X231661276Y-3979715D01*
X231661276Y-3979715D02*
X231546990Y-4151144D01*
X231546990Y-4151144D02*
X231432705Y-4265430D01*
X231432705Y-4265430D02*
X231318419Y-4322573D01*
X233032705Y-4379715D02*
X233032705Y-5179715D01*
X232746990Y-3922573D02*
X232461276Y-4779715D01*
X232461276Y-4779715D02*
X233204133Y-4779715D01*
X234518419Y-4836858D02*
X235089848Y-4836858D01*
X234404133Y-5179715D02*
X234804133Y-3979715D01*
X234804133Y-3979715D02*
X235204133Y-5179715D01*
X236518419Y-5179715D02*
X236518419Y-4379715D01*
X236518419Y-4608287D02*
X236575562Y-4494001D01*
X236575562Y-4494001D02*
X236632705Y-4436858D01*
X236632705Y-4436858D02*
X236746990Y-4379715D01*
X236746990Y-4379715D02*
X236861276Y-4379715D01*
X237261276Y-5179715D02*
X237261276Y-4379715D01*
X237261276Y-4494001D02*
X237318419Y-4436858D01*
X237318419Y-4436858D02*
X237432704Y-4379715D01*
X237432704Y-4379715D02*
X237604133Y-4379715D01*
X237604133Y-4379715D02*
X237718419Y-4436858D01*
X237718419Y-4436858D02*
X237775562Y-4551144D01*
X237775562Y-4551144D02*
X237775562Y-5179715D01*
X237775562Y-4551144D02*
X237832704Y-4436858D01*
X237832704Y-4436858D02*
X237946990Y-4379715D01*
X237946990Y-4379715D02*
X238118419Y-4379715D01*
X238118419Y-4379715D02*
X238232704Y-4436858D01*
X238232704Y-4436858D02*
X238289847Y-4551144D01*
X238289847Y-4551144D02*
X238289847Y-5179715D01*
X238804133Y-5122573D02*
X238918419Y-5179715D01*
X238918419Y-5179715D02*
X239146990Y-5179715D01*
X239146990Y-5179715D02*
X239261276Y-5122573D01*
X239261276Y-5122573D02*
X239318419Y-5008287D01*
X239318419Y-5008287D02*
X239318419Y-4951144D01*
X239318419Y-4951144D02*
X239261276Y-4836858D01*
X239261276Y-4836858D02*
X239146990Y-4779715D01*
X239146990Y-4779715D02*
X238975562Y-4779715D01*
X238975562Y-4779715D02*
X238861276Y-4722573D01*
X238861276Y-4722573D02*
X238804133Y-4608287D01*
X238804133Y-4608287D02*
X238804133Y-4551144D01*
X238804133Y-4551144D02*
X238861276Y-4436858D01*
X238861276Y-4436858D02*
X238975562Y-4379715D01*
X238975562Y-4379715D02*
X239146990Y-4379715D01*
X239146990Y-4379715D02*
X239261276Y-4436858D01*
X240746991Y-5179715D02*
X240746991Y-3979715D01*
X240746991Y-4436858D02*
X240861277Y-4379715D01*
X240861277Y-4379715D02*
X241089848Y-4379715D01*
X241089848Y-4379715D02*
X241204134Y-4436858D01*
X241204134Y-4436858D02*
X241261277Y-4494001D01*
X241261277Y-4494001D02*
X241318419Y-4608287D01*
X241318419Y-4608287D02*
X241318419Y-4951144D01*
X241318419Y-4951144D02*
X241261277Y-5065430D01*
X241261277Y-5065430D02*
X241204134Y-5122573D01*
X241204134Y-5122573D02*
X241089848Y-5179715D01*
X241089848Y-5179715D02*
X240861277Y-5179715D01*
X240861277Y-5179715D02*
X240746991Y-5122573D01*
X242346991Y-5179715D02*
X242346991Y-4551144D01*
X242346991Y-4551144D02*
X242289848Y-4436858D01*
X242289848Y-4436858D02*
X242175562Y-4379715D01*
X242175562Y-4379715D02*
X241946991Y-4379715D01*
X241946991Y-4379715D02*
X241832705Y-4436858D01*
X242346991Y-5122573D02*
X242232705Y-5179715D01*
X242232705Y-5179715D02*
X241946991Y-5179715D01*
X241946991Y-5179715D02*
X241832705Y-5122573D01*
X241832705Y-5122573D02*
X241775562Y-5008287D01*
X241775562Y-5008287D02*
X241775562Y-4894001D01*
X241775562Y-4894001D02*
X241832705Y-4779715D01*
X241832705Y-4779715D02*
X241946991Y-4722573D01*
X241946991Y-4722573D02*
X242232705Y-4722573D01*
X242232705Y-4722573D02*
X242346991Y-4665430D01*
X242918419Y-4379715D02*
X242918419Y-5179715D01*
X242918419Y-4494001D02*
X242975562Y-4436858D01*
X242975562Y-4436858D02*
X243089847Y-4379715D01*
X243089847Y-4379715D02*
X243261276Y-4379715D01*
X243261276Y-4379715D02*
X243375562Y-4436858D01*
X243375562Y-4436858D02*
X243432705Y-4551144D01*
X243432705Y-4551144D02*
X243432705Y-5179715D01*
X244004133Y-5179715D02*
X244004133Y-3979715D01*
X244118419Y-4722573D02*
X244461276Y-5179715D01*
X244461276Y-4379715D02*
X244004133Y-4836858D01*
X246404134Y-5179715D02*
X246404134Y-3979715D01*
X246404134Y-5122573D02*
X246289848Y-5179715D01*
X246289848Y-5179715D02*
X246061276Y-5179715D01*
X246061276Y-5179715D02*
X245946991Y-5122573D01*
X245946991Y-5122573D02*
X245889848Y-5065430D01*
X245889848Y-5065430D02*
X245832705Y-4951144D01*
X245832705Y-4951144D02*
X245832705Y-4608287D01*
X245832705Y-4608287D02*
X245889848Y-4494001D01*
X245889848Y-4494001D02*
X245946991Y-4436858D01*
X245946991Y-4436858D02*
X246061276Y-4379715D01*
X246061276Y-4379715D02*
X246289848Y-4379715D01*
X246289848Y-4379715D02*
X246404134Y-4436858D01*
X247489848Y-4379715D02*
X247489848Y-5179715D01*
X246975562Y-4379715D02*
X246975562Y-5008287D01*
X246975562Y-5008287D02*
X247032705Y-5122573D01*
X247032705Y-5122573D02*
X247146990Y-5179715D01*
X247146990Y-5179715D02*
X247318419Y-5179715D01*
X247318419Y-5179715D02*
X247432705Y-5122573D01*
X247432705Y-5122573D02*
X247489848Y-5065430D01*
X247889847Y-4379715D02*
X248346990Y-4379715D01*
X248061276Y-3979715D02*
X248061276Y-5008287D01*
X248061276Y-5008287D02*
X248118419Y-5122573D01*
X248118419Y-5122573D02*
X248232704Y-5179715D01*
X248232704Y-5179715D02*
X248346990Y-5179715D01*
X248632704Y-4379715D02*
X248918418Y-5179715D01*
X249204133Y-4379715D02*
X248918418Y-5179715D01*
X248918418Y-5179715D02*
X248804133Y-5465430D01*
X248804133Y-5465430D02*
X248746990Y-5522573D01*
X248746990Y-5522573D02*
X248632704Y-5579715D01*
X249718419Y-5122573D02*
X249718419Y-5179715D01*
X249718419Y-5179715D02*
X249661276Y-5294001D01*
X249661276Y-5294001D02*
X249604133Y-5351144D01*
X249661276Y-4436858D02*
X249718419Y-4494001D01*
X249718419Y-4494001D02*
X249661276Y-4551144D01*
X249661276Y-4551144D02*
X249604133Y-4494001D01*
X249604133Y-4494001D02*
X249661276Y-4436858D01*
X249661276Y-4436858D02*
X249661276Y-4551144D01*
X192346992Y-7054506D02*
X192461278Y-7111648D01*
X192461278Y-7111648D02*
X192689849Y-7111648D01*
X192689849Y-7111648D02*
X192804135Y-7054506D01*
X192804135Y-7054506D02*
X192861278Y-6940220D01*
X192861278Y-6940220D02*
X192861278Y-6883077D01*
X192861278Y-6883077D02*
X192804135Y-6768791D01*
X192804135Y-6768791D02*
X192689849Y-6711648D01*
X192689849Y-6711648D02*
X192518421Y-6711648D01*
X192518421Y-6711648D02*
X192404135Y-6654506D01*
X192404135Y-6654506D02*
X192346992Y-6540220D01*
X192346992Y-6540220D02*
X192346992Y-6483077D01*
X192346992Y-6483077D02*
X192404135Y-6368791D01*
X192404135Y-6368791D02*
X192518421Y-6311648D01*
X192518421Y-6311648D02*
X192689849Y-6311648D01*
X192689849Y-6311648D02*
X192804135Y-6368791D01*
X193546992Y-7111648D02*
X193432707Y-7054506D01*
X193432707Y-7054506D02*
X193375564Y-6997363D01*
X193375564Y-6997363D02*
X193318421Y-6883077D01*
X193318421Y-6883077D02*
X193318421Y-6540220D01*
X193318421Y-6540220D02*
X193375564Y-6425934D01*
X193375564Y-6425934D02*
X193432707Y-6368791D01*
X193432707Y-6368791D02*
X193546992Y-6311648D01*
X193546992Y-6311648D02*
X193718421Y-6311648D01*
X193718421Y-6311648D02*
X193832707Y-6368791D01*
X193832707Y-6368791D02*
X193889850Y-6425934D01*
X193889850Y-6425934D02*
X193946992Y-6540220D01*
X193946992Y-6540220D02*
X193946992Y-6883077D01*
X193946992Y-6883077D02*
X193889850Y-6997363D01*
X193889850Y-6997363D02*
X193832707Y-7054506D01*
X193832707Y-7054506D02*
X193718421Y-7111648D01*
X193718421Y-7111648D02*
X193546992Y-7111648D01*
X194632706Y-7111648D02*
X194518421Y-7054506D01*
X194518421Y-7054506D02*
X194461278Y-6940220D01*
X194461278Y-6940220D02*
X194461278Y-5911648D01*
X195089849Y-7111648D02*
X195089849Y-6311648D01*
X195089849Y-5911648D02*
X195032706Y-5968791D01*
X195032706Y-5968791D02*
X195089849Y-6025934D01*
X195089849Y-6025934D02*
X195146992Y-5968791D01*
X195146992Y-5968791D02*
X195089849Y-5911648D01*
X195089849Y-5911648D02*
X195089849Y-6025934D01*
X196175564Y-7111648D02*
X196175564Y-5911648D01*
X196175564Y-7054506D02*
X196061278Y-7111648D01*
X196061278Y-7111648D02*
X195832706Y-7111648D01*
X195832706Y-7111648D02*
X195718421Y-7054506D01*
X195718421Y-7054506D02*
X195661278Y-6997363D01*
X195661278Y-6997363D02*
X195604135Y-6883077D01*
X195604135Y-6883077D02*
X195604135Y-6540220D01*
X195604135Y-6540220D02*
X195661278Y-6425934D01*
X195661278Y-6425934D02*
X195718421Y-6368791D01*
X195718421Y-6368791D02*
X195832706Y-6311648D01*
X195832706Y-6311648D02*
X196061278Y-6311648D01*
X196061278Y-6311648D02*
X196175564Y-6368791D01*
X197546992Y-6311648D02*
X198175564Y-6311648D01*
X198175564Y-6311648D02*
X197546992Y-7111648D01*
X197546992Y-7111648D02*
X198175564Y-7111648D01*
X198804135Y-7111648D02*
X198689850Y-7054506D01*
X198689850Y-7054506D02*
X198632707Y-6997363D01*
X198632707Y-6997363D02*
X198575564Y-6883077D01*
X198575564Y-6883077D02*
X198575564Y-6540220D01*
X198575564Y-6540220D02*
X198632707Y-6425934D01*
X198632707Y-6425934D02*
X198689850Y-6368791D01*
X198689850Y-6368791D02*
X198804135Y-6311648D01*
X198804135Y-6311648D02*
X198975564Y-6311648D01*
X198975564Y-6311648D02*
X199089850Y-6368791D01*
X199089850Y-6368791D02*
X199146993Y-6425934D01*
X199146993Y-6425934D02*
X199204135Y-6540220D01*
X199204135Y-6540220D02*
X199204135Y-6883077D01*
X199204135Y-6883077D02*
X199146993Y-6997363D01*
X199146993Y-6997363D02*
X199089850Y-7054506D01*
X199089850Y-7054506D02*
X198975564Y-7111648D01*
X198975564Y-7111648D02*
X198804135Y-7111648D01*
X199718421Y-6311648D02*
X199718421Y-7111648D01*
X199718421Y-6425934D02*
X199775564Y-6368791D01*
X199775564Y-6368791D02*
X199889849Y-6311648D01*
X199889849Y-6311648D02*
X200061278Y-6311648D01*
X200061278Y-6311648D02*
X200175564Y-6368791D01*
X200175564Y-6368791D02*
X200232707Y-6483077D01*
X200232707Y-6483077D02*
X200232707Y-7111648D01*
X201261278Y-7054506D02*
X201146992Y-7111648D01*
X201146992Y-7111648D02*
X200918421Y-7111648D01*
X200918421Y-7111648D02*
X200804135Y-7054506D01*
X200804135Y-7054506D02*
X200746992Y-6940220D01*
X200746992Y-6940220D02*
X200746992Y-6483077D01*
X200746992Y-6483077D02*
X200804135Y-6368791D01*
X200804135Y-6368791D02*
X200918421Y-6311648D01*
X200918421Y-6311648D02*
X201146992Y-6311648D01*
X201146992Y-6311648D02*
X201261278Y-6368791D01*
X201261278Y-6368791D02*
X201318421Y-6483077D01*
X201318421Y-6483077D02*
X201318421Y-6597363D01*
X201318421Y-6597363D02*
X200746992Y-6711648D01*
X203261278Y-7054506D02*
X203146992Y-7111648D01*
X203146992Y-7111648D02*
X202918420Y-7111648D01*
X202918420Y-7111648D02*
X202804135Y-7054506D01*
X202804135Y-7054506D02*
X202746992Y-6997363D01*
X202746992Y-6997363D02*
X202689849Y-6883077D01*
X202689849Y-6883077D02*
X202689849Y-6540220D01*
X202689849Y-6540220D02*
X202746992Y-6425934D01*
X202746992Y-6425934D02*
X202804135Y-6368791D01*
X202804135Y-6368791D02*
X202918420Y-6311648D01*
X202918420Y-6311648D02*
X203146992Y-6311648D01*
X203146992Y-6311648D02*
X203261278Y-6368791D01*
X203946991Y-7111648D02*
X203832706Y-7054506D01*
X203832706Y-7054506D02*
X203775563Y-6997363D01*
X203775563Y-6997363D02*
X203718420Y-6883077D01*
X203718420Y-6883077D02*
X203718420Y-6540220D01*
X203718420Y-6540220D02*
X203775563Y-6425934D01*
X203775563Y-6425934D02*
X203832706Y-6368791D01*
X203832706Y-6368791D02*
X203946991Y-6311648D01*
X203946991Y-6311648D02*
X204118420Y-6311648D01*
X204118420Y-6311648D02*
X204232706Y-6368791D01*
X204232706Y-6368791D02*
X204289849Y-6425934D01*
X204289849Y-6425934D02*
X204346991Y-6540220D01*
X204346991Y-6540220D02*
X204346991Y-6883077D01*
X204346991Y-6883077D02*
X204289849Y-6997363D01*
X204289849Y-6997363D02*
X204232706Y-7054506D01*
X204232706Y-7054506D02*
X204118420Y-7111648D01*
X204118420Y-7111648D02*
X203946991Y-7111648D01*
X204861277Y-6311648D02*
X204861277Y-7111648D01*
X204861277Y-6425934D02*
X204918420Y-6368791D01*
X204918420Y-6368791D02*
X205032705Y-6311648D01*
X205032705Y-6311648D02*
X205204134Y-6311648D01*
X205204134Y-6311648D02*
X205318420Y-6368791D01*
X205318420Y-6368791D02*
X205375563Y-6483077D01*
X205375563Y-6483077D02*
X205375563Y-7111648D01*
X205946991Y-6311648D02*
X205946991Y-7111648D01*
X205946991Y-6425934D02*
X206004134Y-6368791D01*
X206004134Y-6368791D02*
X206118419Y-6311648D01*
X206118419Y-6311648D02*
X206289848Y-6311648D01*
X206289848Y-6311648D02*
X206404134Y-6368791D01*
X206404134Y-6368791D02*
X206461277Y-6483077D01*
X206461277Y-6483077D02*
X206461277Y-7111648D01*
X207489848Y-7054506D02*
X207375562Y-7111648D01*
X207375562Y-7111648D02*
X207146991Y-7111648D01*
X207146991Y-7111648D02*
X207032705Y-7054506D01*
X207032705Y-7054506D02*
X206975562Y-6940220D01*
X206975562Y-6940220D02*
X206975562Y-6483077D01*
X206975562Y-6483077D02*
X207032705Y-6368791D01*
X207032705Y-6368791D02*
X207146991Y-6311648D01*
X207146991Y-6311648D02*
X207375562Y-6311648D01*
X207375562Y-6311648D02*
X207489848Y-6368791D01*
X207489848Y-6368791D02*
X207546991Y-6483077D01*
X207546991Y-6483077D02*
X207546991Y-6597363D01*
X207546991Y-6597363D02*
X206975562Y-6711648D01*
X208575562Y-7054506D02*
X208461276Y-7111648D01*
X208461276Y-7111648D02*
X208232704Y-7111648D01*
X208232704Y-7111648D02*
X208118419Y-7054506D01*
X208118419Y-7054506D02*
X208061276Y-6997363D01*
X208061276Y-6997363D02*
X208004133Y-6883077D01*
X208004133Y-6883077D02*
X208004133Y-6540220D01*
X208004133Y-6540220D02*
X208061276Y-6425934D01*
X208061276Y-6425934D02*
X208118419Y-6368791D01*
X208118419Y-6368791D02*
X208232704Y-6311648D01*
X208232704Y-6311648D02*
X208461276Y-6311648D01*
X208461276Y-6311648D02*
X208575562Y-6368791D01*
X208918418Y-6311648D02*
X209375561Y-6311648D01*
X209089847Y-5911648D02*
X209089847Y-6940220D01*
X209089847Y-6940220D02*
X209146990Y-7054506D01*
X209146990Y-7054506D02*
X209261275Y-7111648D01*
X209261275Y-7111648D02*
X209375561Y-7111648D01*
X209775561Y-7111648D02*
X209775561Y-6311648D01*
X209775561Y-5911648D02*
X209718418Y-5968791D01*
X209718418Y-5968791D02*
X209775561Y-6025934D01*
X209775561Y-6025934D02*
X209832704Y-5968791D01*
X209832704Y-5968791D02*
X209775561Y-5911648D01*
X209775561Y-5911648D02*
X209775561Y-6025934D01*
X210518418Y-7111648D02*
X210404133Y-7054506D01*
X210404133Y-7054506D02*
X210346990Y-6997363D01*
X210346990Y-6997363D02*
X210289847Y-6883077D01*
X210289847Y-6883077D02*
X210289847Y-6540220D01*
X210289847Y-6540220D02*
X210346990Y-6425934D01*
X210346990Y-6425934D02*
X210404133Y-6368791D01*
X210404133Y-6368791D02*
X210518418Y-6311648D01*
X210518418Y-6311648D02*
X210689847Y-6311648D01*
X210689847Y-6311648D02*
X210804133Y-6368791D01*
X210804133Y-6368791D02*
X210861276Y-6425934D01*
X210861276Y-6425934D02*
X210918418Y-6540220D01*
X210918418Y-6540220D02*
X210918418Y-6883077D01*
X210918418Y-6883077D02*
X210861276Y-6997363D01*
X210861276Y-6997363D02*
X210804133Y-7054506D01*
X210804133Y-7054506D02*
X210689847Y-7111648D01*
X210689847Y-7111648D02*
X210518418Y-7111648D01*
X211432704Y-6311648D02*
X211432704Y-7111648D01*
X211432704Y-6425934D02*
X211489847Y-6368791D01*
X211489847Y-6368791D02*
X211604132Y-6311648D01*
X211604132Y-6311648D02*
X211775561Y-6311648D01*
X211775561Y-6311648D02*
X211889847Y-6368791D01*
X211889847Y-6368791D02*
X211946990Y-6483077D01*
X211946990Y-6483077D02*
X211946990Y-7111648D01*
X212461275Y-7054506D02*
X212575561Y-7111648D01*
X212575561Y-7111648D02*
X212804132Y-7111648D01*
X212804132Y-7111648D02*
X212918418Y-7054506D01*
X212918418Y-7054506D02*
X212975561Y-6940220D01*
X212975561Y-6940220D02*
X212975561Y-6883077D01*
X212975561Y-6883077D02*
X212918418Y-6768791D01*
X212918418Y-6768791D02*
X212804132Y-6711648D01*
X212804132Y-6711648D02*
X212632704Y-6711648D01*
X212632704Y-6711648D02*
X212518418Y-6654506D01*
X212518418Y-6654506D02*
X212461275Y-6540220D01*
X212461275Y-6540220D02*
X212461275Y-6483077D01*
X212461275Y-6483077D02*
X212518418Y-6368791D01*
X212518418Y-6368791D02*
X212632704Y-6311648D01*
X212632704Y-6311648D02*
X212804132Y-6311648D01*
X212804132Y-6311648D02*
X212918418Y-6368791D01*
X213546990Y-7054506D02*
X213546990Y-7111648D01*
X213546990Y-7111648D02*
X213489847Y-7225934D01*
X213489847Y-7225934D02*
X213432704Y-7283077D01*
X214975562Y-6311648D02*
X214975562Y-7111648D01*
X214975562Y-6425934D02*
X215032705Y-6368791D01*
X215032705Y-6368791D02*
X215146990Y-6311648D01*
X215146990Y-6311648D02*
X215318419Y-6311648D01*
X215318419Y-6311648D02*
X215432705Y-6368791D01*
X215432705Y-6368791D02*
X215489848Y-6483077D01*
X215489848Y-6483077D02*
X215489848Y-7111648D01*
X216232704Y-7111648D02*
X216118419Y-7054506D01*
X216118419Y-7054506D02*
X216061276Y-6997363D01*
X216061276Y-6997363D02*
X216004133Y-6883077D01*
X216004133Y-6883077D02*
X216004133Y-6540220D01*
X216004133Y-6540220D02*
X216061276Y-6425934D01*
X216061276Y-6425934D02*
X216118419Y-6368791D01*
X216118419Y-6368791D02*
X216232704Y-6311648D01*
X216232704Y-6311648D02*
X216404133Y-6311648D01*
X216404133Y-6311648D02*
X216518419Y-6368791D01*
X216518419Y-6368791D02*
X216575562Y-6425934D01*
X216575562Y-6425934D02*
X216632704Y-6540220D01*
X216632704Y-6540220D02*
X216632704Y-6883077D01*
X216632704Y-6883077D02*
X216575562Y-6997363D01*
X216575562Y-6997363D02*
X216518419Y-7054506D01*
X216518419Y-7054506D02*
X216404133Y-7111648D01*
X216404133Y-7111648D02*
X216232704Y-7111648D01*
X217889847Y-6311648D02*
X218346990Y-6311648D01*
X218061276Y-5911648D02*
X218061276Y-6940220D01*
X218061276Y-6940220D02*
X218118419Y-7054506D01*
X218118419Y-7054506D02*
X218232704Y-7111648D01*
X218232704Y-7111648D02*
X218346990Y-7111648D01*
X218746990Y-7111648D02*
X218746990Y-5911648D01*
X219261276Y-7111648D02*
X219261276Y-6483077D01*
X219261276Y-6483077D02*
X219204133Y-6368791D01*
X219204133Y-6368791D02*
X219089847Y-6311648D01*
X219089847Y-6311648D02*
X218918418Y-6311648D01*
X218918418Y-6311648D02*
X218804133Y-6368791D01*
X218804133Y-6368791D02*
X218746990Y-6425934D01*
X220289847Y-7054506D02*
X220175561Y-7111648D01*
X220175561Y-7111648D02*
X219946990Y-7111648D01*
X219946990Y-7111648D02*
X219832704Y-7054506D01*
X219832704Y-7054506D02*
X219775561Y-6940220D01*
X219775561Y-6940220D02*
X219775561Y-6483077D01*
X219775561Y-6483077D02*
X219832704Y-6368791D01*
X219832704Y-6368791D02*
X219946990Y-6311648D01*
X219946990Y-6311648D02*
X220175561Y-6311648D01*
X220175561Y-6311648D02*
X220289847Y-6368791D01*
X220289847Y-6368791D02*
X220346990Y-6483077D01*
X220346990Y-6483077D02*
X220346990Y-6597363D01*
X220346990Y-6597363D02*
X219775561Y-6711648D01*
X220861275Y-7111648D02*
X220861275Y-6311648D01*
X220861275Y-6540220D02*
X220918418Y-6425934D01*
X220918418Y-6425934D02*
X220975561Y-6368791D01*
X220975561Y-6368791D02*
X221089846Y-6311648D01*
X221089846Y-6311648D02*
X221204132Y-6311648D01*
X221604132Y-7111648D02*
X221604132Y-6311648D01*
X221604132Y-6425934D02*
X221661275Y-6368791D01*
X221661275Y-6368791D02*
X221775560Y-6311648D01*
X221775560Y-6311648D02*
X221946989Y-6311648D01*
X221946989Y-6311648D02*
X222061275Y-6368791D01*
X222061275Y-6368791D02*
X222118418Y-6483077D01*
X222118418Y-6483077D02*
X222118418Y-7111648D01*
X222118418Y-6483077D02*
X222175560Y-6368791D01*
X222175560Y-6368791D02*
X222289846Y-6311648D01*
X222289846Y-6311648D02*
X222461275Y-6311648D01*
X222461275Y-6311648D02*
X222575560Y-6368791D01*
X222575560Y-6368791D02*
X222632703Y-6483077D01*
X222632703Y-6483077D02*
X222632703Y-7111648D01*
X223718418Y-7111648D02*
X223718418Y-6483077D01*
X223718418Y-6483077D02*
X223661275Y-6368791D01*
X223661275Y-6368791D02*
X223546989Y-6311648D01*
X223546989Y-6311648D02*
X223318418Y-6311648D01*
X223318418Y-6311648D02*
X223204132Y-6368791D01*
X223718418Y-7054506D02*
X223604132Y-7111648D01*
X223604132Y-7111648D02*
X223318418Y-7111648D01*
X223318418Y-7111648D02*
X223204132Y-7054506D01*
X223204132Y-7054506D02*
X223146989Y-6940220D01*
X223146989Y-6940220D02*
X223146989Y-6825934D01*
X223146989Y-6825934D02*
X223204132Y-6711648D01*
X223204132Y-6711648D02*
X223318418Y-6654506D01*
X223318418Y-6654506D02*
X223604132Y-6654506D01*
X223604132Y-6654506D02*
X223718418Y-6597363D01*
X224461274Y-7111648D02*
X224346989Y-7054506D01*
X224346989Y-7054506D02*
X224289846Y-6940220D01*
X224289846Y-6940220D02*
X224289846Y-5911648D01*
X225832703Y-7111648D02*
X225832703Y-6311648D01*
X225832703Y-6540220D02*
X225889846Y-6425934D01*
X225889846Y-6425934D02*
X225946989Y-6368791D01*
X225946989Y-6368791D02*
X226061274Y-6311648D01*
X226061274Y-6311648D02*
X226175560Y-6311648D01*
X227032703Y-7054506D02*
X226918417Y-7111648D01*
X226918417Y-7111648D02*
X226689846Y-7111648D01*
X226689846Y-7111648D02*
X226575560Y-7054506D01*
X226575560Y-7054506D02*
X226518417Y-6940220D01*
X226518417Y-6940220D02*
X226518417Y-6483077D01*
X226518417Y-6483077D02*
X226575560Y-6368791D01*
X226575560Y-6368791D02*
X226689846Y-6311648D01*
X226689846Y-6311648D02*
X226918417Y-6311648D01*
X226918417Y-6311648D02*
X227032703Y-6368791D01*
X227032703Y-6368791D02*
X227089846Y-6483077D01*
X227089846Y-6483077D02*
X227089846Y-6597363D01*
X227089846Y-6597363D02*
X226518417Y-6711648D01*
X227775559Y-7111648D02*
X227661274Y-7054506D01*
X227661274Y-7054506D02*
X227604131Y-6940220D01*
X227604131Y-6940220D02*
X227604131Y-5911648D01*
X228232702Y-7111648D02*
X228232702Y-6311648D01*
X228232702Y-5911648D02*
X228175559Y-5968791D01*
X228175559Y-5968791D02*
X228232702Y-6025934D01*
X228232702Y-6025934D02*
X228289845Y-5968791D01*
X228289845Y-5968791D02*
X228232702Y-5911648D01*
X228232702Y-5911648D02*
X228232702Y-6025934D01*
X229261274Y-7054506D02*
X229146988Y-7111648D01*
X229146988Y-7111648D02*
X228918417Y-7111648D01*
X228918417Y-7111648D02*
X228804131Y-7054506D01*
X228804131Y-7054506D02*
X228746988Y-6940220D01*
X228746988Y-6940220D02*
X228746988Y-6483077D01*
X228746988Y-6483077D02*
X228804131Y-6368791D01*
X228804131Y-6368791D02*
X228918417Y-6311648D01*
X228918417Y-6311648D02*
X229146988Y-6311648D01*
X229146988Y-6311648D02*
X229261274Y-6368791D01*
X229261274Y-6368791D02*
X229318417Y-6483077D01*
X229318417Y-6483077D02*
X229318417Y-6597363D01*
X229318417Y-6597363D02*
X228746988Y-6711648D01*
X229661273Y-6311648D02*
X230118416Y-6311648D01*
X229832702Y-7111648D02*
X229832702Y-6083077D01*
X229832702Y-6083077D02*
X229889845Y-5968791D01*
X229889845Y-5968791D02*
X230004130Y-5911648D01*
X230004130Y-5911648D02*
X230118416Y-5911648D01*
X230461273Y-7054506D02*
X230575559Y-7111648D01*
X230575559Y-7111648D02*
X230804130Y-7111648D01*
X230804130Y-7111648D02*
X230918416Y-7054506D01*
X230918416Y-7054506D02*
X230975559Y-6940220D01*
X230975559Y-6940220D02*
X230975559Y-6883077D01*
X230975559Y-6883077D02*
X230918416Y-6768791D01*
X230918416Y-6768791D02*
X230804130Y-6711648D01*
X230804130Y-6711648D02*
X230632702Y-6711648D01*
X230632702Y-6711648D02*
X230518416Y-6654506D01*
X230518416Y-6654506D02*
X230461273Y-6540220D01*
X230461273Y-6540220D02*
X230461273Y-6483077D01*
X230461273Y-6483077D02*
X230518416Y-6368791D01*
X230518416Y-6368791D02*
X230632702Y-6311648D01*
X230632702Y-6311648D02*
X230804130Y-6311648D01*
X230804130Y-6311648D02*
X230918416Y-6368791D01*
X231546988Y-7054506D02*
X231546988Y-7111648D01*
X231546988Y-7111648D02*
X231489845Y-7225934D01*
X231489845Y-7225934D02*
X231432702Y-7283077D01*
X231489845Y-6368791D02*
X231546988Y-6425934D01*
X231546988Y-6425934D02*
X231489845Y-6483077D01*
X231489845Y-6483077D02*
X231432702Y-6425934D01*
X231432702Y-6425934D02*
X231489845Y-6368791D01*
X231489845Y-6368791D02*
X231489845Y-6483077D01*
X192232706Y-8243581D02*
X192689849Y-8243581D01*
X192404135Y-9043581D02*
X192404135Y-8015010D01*
X192404135Y-8015010D02*
X192461278Y-7900724D01*
X192461278Y-7900724D02*
X192575563Y-7843581D01*
X192575563Y-7843581D02*
X192689849Y-7843581D01*
X193089849Y-9043581D02*
X193089849Y-8243581D01*
X193089849Y-7843581D02*
X193032706Y-7900724D01*
X193032706Y-7900724D02*
X193089849Y-7957867D01*
X193089849Y-7957867D02*
X193146992Y-7900724D01*
X193146992Y-7900724D02*
X193089849Y-7843581D01*
X193089849Y-7843581D02*
X193089849Y-7957867D01*
X193661278Y-8243581D02*
X193661278Y-9043581D01*
X193661278Y-8357867D02*
X193718421Y-8300724D01*
X193718421Y-8300724D02*
X193832706Y-8243581D01*
X193832706Y-8243581D02*
X194004135Y-8243581D01*
X194004135Y-8243581D02*
X194118421Y-8300724D01*
X194118421Y-8300724D02*
X194175564Y-8415010D01*
X194175564Y-8415010D02*
X194175564Y-9043581D01*
X195261278Y-9043581D02*
X195261278Y-8415010D01*
X195261278Y-8415010D02*
X195204135Y-8300724D01*
X195204135Y-8300724D02*
X195089849Y-8243581D01*
X195089849Y-8243581D02*
X194861278Y-8243581D01*
X194861278Y-8243581D02*
X194746992Y-8300724D01*
X195261278Y-8986439D02*
X195146992Y-9043581D01*
X195146992Y-9043581D02*
X194861278Y-9043581D01*
X194861278Y-9043581D02*
X194746992Y-8986439D01*
X194746992Y-8986439D02*
X194689849Y-8872153D01*
X194689849Y-8872153D02*
X194689849Y-8757867D01*
X194689849Y-8757867D02*
X194746992Y-8643581D01*
X194746992Y-8643581D02*
X194861278Y-8586439D01*
X194861278Y-8586439D02*
X195146992Y-8586439D01*
X195146992Y-8586439D02*
X195261278Y-8529296D01*
X196004134Y-9043581D02*
X195889849Y-8986439D01*
X195889849Y-8986439D02*
X195832706Y-8872153D01*
X195832706Y-8872153D02*
X195832706Y-7843581D01*
X197375563Y-9043581D02*
X197375563Y-7843581D01*
X197375563Y-7843581D02*
X197775563Y-8700724D01*
X197775563Y-8700724D02*
X198175563Y-7843581D01*
X198175563Y-7843581D02*
X198175563Y-9043581D01*
X199261278Y-7843581D02*
X199032706Y-7843581D01*
X199032706Y-7843581D02*
X198918420Y-7900724D01*
X198918420Y-7900724D02*
X198861278Y-7957867D01*
X198861278Y-7957867D02*
X198746992Y-8129296D01*
X198746992Y-8129296D02*
X198689849Y-8357867D01*
X198689849Y-8357867D02*
X198689849Y-8815010D01*
X198689849Y-8815010D02*
X198746992Y-8929296D01*
X198746992Y-8929296D02*
X198804135Y-8986439D01*
X198804135Y-8986439D02*
X198918420Y-9043581D01*
X198918420Y-9043581D02*
X199146992Y-9043581D01*
X199146992Y-9043581D02*
X199261278Y-8986439D01*
X199261278Y-8986439D02*
X199318420Y-8929296D01*
X199318420Y-8929296D02*
X199375563Y-8815010D01*
X199375563Y-8815010D02*
X199375563Y-8529296D01*
X199375563Y-8529296D02*
X199318420Y-8415010D01*
X199318420Y-8415010D02*
X199261278Y-8357867D01*
X199261278Y-8357867D02*
X199146992Y-8300724D01*
X199146992Y-8300724D02*
X198918420Y-8300724D01*
X198918420Y-8300724D02*
X198804135Y-8357867D01*
X198804135Y-8357867D02*
X198746992Y-8415010D01*
X198746992Y-8415010D02*
X198689849Y-8529296D01*
X200804135Y-8243581D02*
X200804135Y-9443581D01*
X200804135Y-8300724D02*
X200918421Y-8243581D01*
X200918421Y-8243581D02*
X201146992Y-8243581D01*
X201146992Y-8243581D02*
X201261278Y-8300724D01*
X201261278Y-8300724D02*
X201318421Y-8357867D01*
X201318421Y-8357867D02*
X201375563Y-8472153D01*
X201375563Y-8472153D02*
X201375563Y-8815010D01*
X201375563Y-8815010D02*
X201318421Y-8929296D01*
X201318421Y-8929296D02*
X201261278Y-8986439D01*
X201261278Y-8986439D02*
X201146992Y-9043581D01*
X201146992Y-9043581D02*
X200918421Y-9043581D01*
X200918421Y-9043581D02*
X200804135Y-8986439D01*
X202061277Y-9043581D02*
X201946992Y-8986439D01*
X201946992Y-8986439D02*
X201889849Y-8929296D01*
X201889849Y-8929296D02*
X201832706Y-8815010D01*
X201832706Y-8815010D02*
X201832706Y-8472153D01*
X201832706Y-8472153D02*
X201889849Y-8357867D01*
X201889849Y-8357867D02*
X201946992Y-8300724D01*
X201946992Y-8300724D02*
X202061277Y-8243581D01*
X202061277Y-8243581D02*
X202232706Y-8243581D01*
X202232706Y-8243581D02*
X202346992Y-8300724D01*
X202346992Y-8300724D02*
X202404135Y-8357867D01*
X202404135Y-8357867D02*
X202461277Y-8472153D01*
X202461277Y-8472153D02*
X202461277Y-8815010D01*
X202461277Y-8815010D02*
X202404135Y-8929296D01*
X202404135Y-8929296D02*
X202346992Y-8986439D01*
X202346992Y-8986439D02*
X202232706Y-9043581D01*
X202232706Y-9043581D02*
X202061277Y-9043581D01*
X202918420Y-8986439D02*
X203032706Y-9043581D01*
X203032706Y-9043581D02*
X203261277Y-9043581D01*
X203261277Y-9043581D02*
X203375563Y-8986439D01*
X203375563Y-8986439D02*
X203432706Y-8872153D01*
X203432706Y-8872153D02*
X203432706Y-8815010D01*
X203432706Y-8815010D02*
X203375563Y-8700724D01*
X203375563Y-8700724D02*
X203261277Y-8643581D01*
X203261277Y-8643581D02*
X203089849Y-8643581D01*
X203089849Y-8643581D02*
X202975563Y-8586439D01*
X202975563Y-8586439D02*
X202918420Y-8472153D01*
X202918420Y-8472153D02*
X202918420Y-8415010D01*
X202918420Y-8415010D02*
X202975563Y-8300724D01*
X202975563Y-8300724D02*
X203089849Y-8243581D01*
X203089849Y-8243581D02*
X203261277Y-8243581D01*
X203261277Y-8243581D02*
X203375563Y-8300724D01*
X203946992Y-9043581D02*
X203946992Y-8243581D01*
X203946992Y-7843581D02*
X203889849Y-7900724D01*
X203889849Y-7900724D02*
X203946992Y-7957867D01*
X203946992Y-7957867D02*
X204004135Y-7900724D01*
X204004135Y-7900724D02*
X203946992Y-7843581D01*
X203946992Y-7843581D02*
X203946992Y-7957867D01*
X204346992Y-8243581D02*
X204804135Y-8243581D01*
X204518421Y-7843581D02*
X204518421Y-8872153D01*
X204518421Y-8872153D02*
X204575564Y-8986439D01*
X204575564Y-8986439D02*
X204689849Y-9043581D01*
X204689849Y-9043581D02*
X204804135Y-9043581D01*
X205204135Y-9043581D02*
X205204135Y-8243581D01*
X205204135Y-7843581D02*
X205146992Y-7900724D01*
X205146992Y-7900724D02*
X205204135Y-7957867D01*
X205204135Y-7957867D02*
X205261278Y-7900724D01*
X205261278Y-7900724D02*
X205204135Y-7843581D01*
X205204135Y-7843581D02*
X205204135Y-7957867D01*
X205946992Y-9043581D02*
X205832707Y-8986439D01*
X205832707Y-8986439D02*
X205775564Y-8929296D01*
X205775564Y-8929296D02*
X205718421Y-8815010D01*
X205718421Y-8815010D02*
X205718421Y-8472153D01*
X205718421Y-8472153D02*
X205775564Y-8357867D01*
X205775564Y-8357867D02*
X205832707Y-8300724D01*
X205832707Y-8300724D02*
X205946992Y-8243581D01*
X205946992Y-8243581D02*
X206118421Y-8243581D01*
X206118421Y-8243581D02*
X206232707Y-8300724D01*
X206232707Y-8300724D02*
X206289850Y-8357867D01*
X206289850Y-8357867D02*
X206346992Y-8472153D01*
X206346992Y-8472153D02*
X206346992Y-8815010D01*
X206346992Y-8815010D02*
X206289850Y-8929296D01*
X206289850Y-8929296D02*
X206232707Y-8986439D01*
X206232707Y-8986439D02*
X206118421Y-9043581D01*
X206118421Y-9043581D02*
X205946992Y-9043581D01*
X206861278Y-8243581D02*
X206861278Y-9043581D01*
X206861278Y-8357867D02*
X206918421Y-8300724D01*
X206918421Y-8300724D02*
X207032706Y-8243581D01*
X207032706Y-8243581D02*
X207204135Y-8243581D01*
X207204135Y-8243581D02*
X207318421Y-8300724D01*
X207318421Y-8300724D02*
X207375564Y-8415010D01*
X207375564Y-8415010D02*
X207375564Y-9043581D01*
X207889849Y-8986439D02*
X208004135Y-9043581D01*
X208004135Y-9043581D02*
X208232706Y-9043581D01*
X208232706Y-9043581D02*
X208346992Y-8986439D01*
X208346992Y-8986439D02*
X208404135Y-8872153D01*
X208404135Y-8872153D02*
X208404135Y-8815010D01*
X208404135Y-8815010D02*
X208346992Y-8700724D01*
X208346992Y-8700724D02*
X208232706Y-8643581D01*
X208232706Y-8643581D02*
X208061278Y-8643581D01*
X208061278Y-8643581D02*
X207946992Y-8586439D01*
X207946992Y-8586439D02*
X207889849Y-8472153D01*
X207889849Y-8472153D02*
X207889849Y-8415010D01*
X207889849Y-8415010D02*
X207946992Y-8300724D01*
X207946992Y-8300724D02*
X208061278Y-8243581D01*
X208061278Y-8243581D02*
X208232706Y-8243581D01*
X208232706Y-8243581D02*
X208346992Y-8300724D01*
X209832707Y-8243581D02*
X209832707Y-9443581D01*
X209832707Y-8300724D02*
X209946993Y-8243581D01*
X209946993Y-8243581D02*
X210175564Y-8243581D01*
X210175564Y-8243581D02*
X210289850Y-8300724D01*
X210289850Y-8300724D02*
X210346993Y-8357867D01*
X210346993Y-8357867D02*
X210404135Y-8472153D01*
X210404135Y-8472153D02*
X210404135Y-8815010D01*
X210404135Y-8815010D02*
X210346993Y-8929296D01*
X210346993Y-8929296D02*
X210289850Y-8986439D01*
X210289850Y-8986439D02*
X210175564Y-9043581D01*
X210175564Y-9043581D02*
X209946993Y-9043581D01*
X209946993Y-9043581D02*
X209832707Y-8986439D01*
X211375564Y-8986439D02*
X211261278Y-9043581D01*
X211261278Y-9043581D02*
X211032707Y-9043581D01*
X211032707Y-9043581D02*
X210918421Y-8986439D01*
X210918421Y-8986439D02*
X210861278Y-8872153D01*
X210861278Y-8872153D02*
X210861278Y-8415010D01*
X210861278Y-8415010D02*
X210918421Y-8300724D01*
X210918421Y-8300724D02*
X211032707Y-8243581D01*
X211032707Y-8243581D02*
X211261278Y-8243581D01*
X211261278Y-8243581D02*
X211375564Y-8300724D01*
X211375564Y-8300724D02*
X211432707Y-8415010D01*
X211432707Y-8415010D02*
X211432707Y-8529296D01*
X211432707Y-8529296D02*
X210861278Y-8643581D01*
X211946992Y-9043581D02*
X211946992Y-8243581D01*
X211946992Y-8472153D02*
X212004135Y-8357867D01*
X212004135Y-8357867D02*
X212061278Y-8300724D01*
X212061278Y-8300724D02*
X212175563Y-8243581D01*
X212175563Y-8243581D02*
X212289849Y-8243581D01*
X213604135Y-9043581D02*
X213604135Y-7843581D01*
X213604135Y-8300724D02*
X213718421Y-8243581D01*
X213718421Y-8243581D02*
X213946992Y-8243581D01*
X213946992Y-8243581D02*
X214061278Y-8300724D01*
X214061278Y-8300724D02*
X214118421Y-8357867D01*
X214118421Y-8357867D02*
X214175563Y-8472153D01*
X214175563Y-8472153D02*
X214175563Y-8815010D01*
X214175563Y-8815010D02*
X214118421Y-8929296D01*
X214118421Y-8929296D02*
X214061278Y-8986439D01*
X214061278Y-8986439D02*
X213946992Y-9043581D01*
X213946992Y-9043581D02*
X213718421Y-9043581D01*
X213718421Y-9043581D02*
X213604135Y-8986439D01*
X215204135Y-8243581D02*
X215204135Y-9043581D01*
X214689849Y-8243581D02*
X214689849Y-8872153D01*
X214689849Y-8872153D02*
X214746992Y-8986439D01*
X214746992Y-8986439D02*
X214861277Y-9043581D01*
X214861277Y-9043581D02*
X215032706Y-9043581D01*
X215032706Y-9043581D02*
X215146992Y-8986439D01*
X215146992Y-8986439D02*
X215204135Y-8929296D01*
X215718420Y-8986439D02*
X215832706Y-9043581D01*
X215832706Y-9043581D02*
X216061277Y-9043581D01*
X216061277Y-9043581D02*
X216175563Y-8986439D01*
X216175563Y-8986439D02*
X216232706Y-8872153D01*
X216232706Y-8872153D02*
X216232706Y-8815010D01*
X216232706Y-8815010D02*
X216175563Y-8700724D01*
X216175563Y-8700724D02*
X216061277Y-8643581D01*
X216061277Y-8643581D02*
X215889849Y-8643581D01*
X215889849Y-8643581D02*
X215775563Y-8586439D01*
X215775563Y-8586439D02*
X215718420Y-8472153D01*
X215718420Y-8472153D02*
X215718420Y-8415010D01*
X215718420Y-8415010D02*
X215775563Y-8300724D01*
X215775563Y-8300724D02*
X215889849Y-8243581D01*
X215889849Y-8243581D02*
X216061277Y-8243581D01*
X216061277Y-8243581D02*
X216175563Y-8300724D01*
X216746992Y-9043581D02*
X216746992Y-7843581D01*
X216746992Y-8300724D02*
X216861278Y-8243581D01*
X216861278Y-8243581D02*
X217089849Y-8243581D01*
X217089849Y-8243581D02*
X217204135Y-8300724D01*
X217204135Y-8300724D02*
X217261278Y-8357867D01*
X217261278Y-8357867D02*
X217318420Y-8472153D01*
X217318420Y-8472153D02*
X217318420Y-8815010D01*
X217318420Y-8815010D02*
X217261278Y-8929296D01*
X217261278Y-8929296D02*
X217204135Y-8986439D01*
X217204135Y-8986439D02*
X217089849Y-9043581D01*
X217089849Y-9043581D02*
X216861278Y-9043581D01*
X216861278Y-9043581D02*
X216746992Y-8986439D01*
X218346992Y-9043581D02*
X218346992Y-8415010D01*
X218346992Y-8415010D02*
X218289849Y-8300724D01*
X218289849Y-8300724D02*
X218175563Y-8243581D01*
X218175563Y-8243581D02*
X217946992Y-8243581D01*
X217946992Y-8243581D02*
X217832706Y-8300724D01*
X218346992Y-8986439D02*
X218232706Y-9043581D01*
X218232706Y-9043581D02*
X217946992Y-9043581D01*
X217946992Y-9043581D02*
X217832706Y-8986439D01*
X217832706Y-8986439D02*
X217775563Y-8872153D01*
X217775563Y-8872153D02*
X217775563Y-8757867D01*
X217775563Y-8757867D02*
X217832706Y-8643581D01*
X217832706Y-8643581D02*
X217946992Y-8586439D01*
X217946992Y-8586439D02*
X218232706Y-8586439D01*
X218232706Y-8586439D02*
X218346992Y-8529296D01*
X218918420Y-9043581D02*
X218918420Y-8243581D01*
X218918420Y-8472153D02*
X218975563Y-8357867D01*
X218975563Y-8357867D02*
X219032706Y-8300724D01*
X219032706Y-8300724D02*
X219146991Y-8243581D01*
X219146991Y-8243581D02*
X219261277Y-8243581D01*
X221089849Y-9043581D02*
X221089849Y-7843581D01*
X221089849Y-8986439D02*
X220975563Y-9043581D01*
X220975563Y-9043581D02*
X220746991Y-9043581D01*
X220746991Y-9043581D02*
X220632706Y-8986439D01*
X220632706Y-8986439D02*
X220575563Y-8929296D01*
X220575563Y-8929296D02*
X220518420Y-8815010D01*
X220518420Y-8815010D02*
X220518420Y-8472153D01*
X220518420Y-8472153D02*
X220575563Y-8357867D01*
X220575563Y-8357867D02*
X220632706Y-8300724D01*
X220632706Y-8300724D02*
X220746991Y-8243581D01*
X220746991Y-8243581D02*
X220975563Y-8243581D01*
X220975563Y-8243581D02*
X221089849Y-8300724D01*
X221661277Y-9043581D02*
X221661277Y-8243581D01*
X221661277Y-8472153D02*
X221718420Y-8357867D01*
X221718420Y-8357867D02*
X221775563Y-8300724D01*
X221775563Y-8300724D02*
X221889848Y-8243581D01*
X221889848Y-8243581D02*
X222004134Y-8243581D01*
X222918420Y-9043581D02*
X222918420Y-8415010D01*
X222918420Y-8415010D02*
X222861277Y-8300724D01*
X222861277Y-8300724D02*
X222746991Y-8243581D01*
X222746991Y-8243581D02*
X222518420Y-8243581D01*
X222518420Y-8243581D02*
X222404134Y-8300724D01*
X222918420Y-8986439D02*
X222804134Y-9043581D01*
X222804134Y-9043581D02*
X222518420Y-9043581D01*
X222518420Y-9043581D02*
X222404134Y-8986439D01*
X222404134Y-8986439D02*
X222346991Y-8872153D01*
X222346991Y-8872153D02*
X222346991Y-8757867D01*
X222346991Y-8757867D02*
X222404134Y-8643581D01*
X222404134Y-8643581D02*
X222518420Y-8586439D01*
X222518420Y-8586439D02*
X222804134Y-8586439D01*
X222804134Y-8586439D02*
X222918420Y-8529296D01*
X223375562Y-8243581D02*
X223604134Y-9043581D01*
X223604134Y-9043581D02*
X223832705Y-8472153D01*
X223832705Y-8472153D02*
X224061276Y-9043581D01*
X224061276Y-9043581D02*
X224289848Y-8243581D01*
X224746991Y-9043581D02*
X224746991Y-8243581D01*
X224746991Y-7843581D02*
X224689848Y-7900724D01*
X224689848Y-7900724D02*
X224746991Y-7957867D01*
X224746991Y-7957867D02*
X224804134Y-7900724D01*
X224804134Y-7900724D02*
X224746991Y-7843581D01*
X224746991Y-7843581D02*
X224746991Y-7957867D01*
X225318420Y-8243581D02*
X225318420Y-9043581D01*
X225318420Y-8357867D02*
X225375563Y-8300724D01*
X225375563Y-8300724D02*
X225489848Y-8243581D01*
X225489848Y-8243581D02*
X225661277Y-8243581D01*
X225661277Y-8243581D02*
X225775563Y-8300724D01*
X225775563Y-8300724D02*
X225832706Y-8415010D01*
X225832706Y-8415010D02*
X225832706Y-9043581D01*
X226918420Y-8243581D02*
X226918420Y-9215010D01*
X226918420Y-9215010D02*
X226861277Y-9329296D01*
X226861277Y-9329296D02*
X226804134Y-9386439D01*
X226804134Y-9386439D02*
X226689848Y-9443581D01*
X226689848Y-9443581D02*
X226518420Y-9443581D01*
X226518420Y-9443581D02*
X226404134Y-9386439D01*
X226918420Y-8986439D02*
X226804134Y-9043581D01*
X226804134Y-9043581D02*
X226575562Y-9043581D01*
X226575562Y-9043581D02*
X226461277Y-8986439D01*
X226461277Y-8986439D02*
X226404134Y-8929296D01*
X226404134Y-8929296D02*
X226346991Y-8815010D01*
X226346991Y-8815010D02*
X226346991Y-8472153D01*
X226346991Y-8472153D02*
X226404134Y-8357867D01*
X226404134Y-8357867D02*
X226461277Y-8300724D01*
X226461277Y-8300724D02*
X226575562Y-8243581D01*
X226575562Y-8243581D02*
X226804134Y-8243581D01*
X226804134Y-8243581D02*
X226918420Y-8300724D01*
X228746991Y-9443581D02*
X228461277Y-9443581D01*
X228461277Y-9443581D02*
X228461277Y-7729296D01*
X228461277Y-7729296D02*
X228746991Y-7729296D01*
X229032705Y-7843581D02*
X229718420Y-7843581D01*
X229375562Y-9043581D02*
X229375562Y-7843581D01*
X230518420Y-8415010D02*
X230689848Y-8472153D01*
X230689848Y-8472153D02*
X230746991Y-8529296D01*
X230746991Y-8529296D02*
X230804134Y-8643581D01*
X230804134Y-8643581D02*
X230804134Y-8815010D01*
X230804134Y-8815010D02*
X230746991Y-8929296D01*
X230746991Y-8929296D02*
X230689848Y-8986439D01*
X230689848Y-8986439D02*
X230575563Y-9043581D01*
X230575563Y-9043581D02*
X230118420Y-9043581D01*
X230118420Y-9043581D02*
X230118420Y-7843581D01*
X230118420Y-7843581D02*
X230518420Y-7843581D01*
X230518420Y-7843581D02*
X230632706Y-7900724D01*
X230632706Y-7900724D02*
X230689848Y-7957867D01*
X230689848Y-7957867D02*
X230746991Y-8072153D01*
X230746991Y-8072153D02*
X230746991Y-8186439D01*
X230746991Y-8186439D02*
X230689848Y-8300724D01*
X230689848Y-8300724D02*
X230632706Y-8357867D01*
X230632706Y-8357867D02*
X230518420Y-8415010D01*
X230518420Y-8415010D02*
X230118420Y-8415010D01*
X231146991Y-7843581D02*
X231546991Y-9043581D01*
X231546991Y-9043581D02*
X231946991Y-7843581D01*
X232232705Y-9443581D02*
X232518419Y-9443581D01*
X232518419Y-9443581D02*
X232518419Y-7729296D01*
X232518419Y-7729296D02*
X232232705Y-7729296D01*
X233204134Y-8986439D02*
X233204134Y-9043581D01*
X233204134Y-9043581D02*
X233146991Y-9157867D01*
X233146991Y-9157867D02*
X233089848Y-9215010D01*
X233146991Y-8300724D02*
X233204134Y-8357867D01*
X233204134Y-8357867D02*
X233146991Y-8415010D01*
X233146991Y-8415010D02*
X233089848Y-8357867D01*
X233089848Y-8357867D02*
X233146991Y-8300724D01*
X233146991Y-8300724D02*
X233146991Y-8415010D01*
X192404135Y-10975514D02*
X192404135Y-10175514D01*
X192404135Y-9775514D02*
X192346992Y-9832657D01*
X192346992Y-9832657D02*
X192404135Y-9889800D01*
X192404135Y-9889800D02*
X192461278Y-9832657D01*
X192461278Y-9832657D02*
X192404135Y-9775514D01*
X192404135Y-9775514D02*
X192404135Y-9889800D01*
X192975564Y-10975514D02*
X192975564Y-10175514D01*
X192975564Y-10289800D02*
X193032707Y-10232657D01*
X193032707Y-10232657D02*
X193146992Y-10175514D01*
X193146992Y-10175514D02*
X193318421Y-10175514D01*
X193318421Y-10175514D02*
X193432707Y-10232657D01*
X193432707Y-10232657D02*
X193489850Y-10346943D01*
X193489850Y-10346943D02*
X193489850Y-10975514D01*
X193489850Y-10346943D02*
X193546992Y-10232657D01*
X193546992Y-10232657D02*
X193661278Y-10175514D01*
X193661278Y-10175514D02*
X193832707Y-10175514D01*
X193832707Y-10175514D02*
X193946992Y-10232657D01*
X193946992Y-10232657D02*
X194004135Y-10346943D01*
X194004135Y-10346943D02*
X194004135Y-10975514D01*
X194575564Y-10975514D02*
X194575564Y-10175514D01*
X194575564Y-10289800D02*
X194632707Y-10232657D01*
X194632707Y-10232657D02*
X194746992Y-10175514D01*
X194746992Y-10175514D02*
X194918421Y-10175514D01*
X194918421Y-10175514D02*
X195032707Y-10232657D01*
X195032707Y-10232657D02*
X195089850Y-10346943D01*
X195089850Y-10346943D02*
X195089850Y-10975514D01*
X195089850Y-10346943D02*
X195146992Y-10232657D01*
X195146992Y-10232657D02*
X195261278Y-10175514D01*
X195261278Y-10175514D02*
X195432707Y-10175514D01*
X195432707Y-10175514D02*
X195546992Y-10232657D01*
X195546992Y-10232657D02*
X195604135Y-10346943D01*
X195604135Y-10346943D02*
X195604135Y-10975514D01*
X196632707Y-10918372D02*
X196518421Y-10975514D01*
X196518421Y-10975514D02*
X196289850Y-10975514D01*
X196289850Y-10975514D02*
X196175564Y-10918372D01*
X196175564Y-10918372D02*
X196118421Y-10804086D01*
X196118421Y-10804086D02*
X196118421Y-10346943D01*
X196118421Y-10346943D02*
X196175564Y-10232657D01*
X196175564Y-10232657D02*
X196289850Y-10175514D01*
X196289850Y-10175514D02*
X196518421Y-10175514D01*
X196518421Y-10175514D02*
X196632707Y-10232657D01*
X196632707Y-10232657D02*
X196689850Y-10346943D01*
X196689850Y-10346943D02*
X196689850Y-10461229D01*
X196689850Y-10461229D02*
X196118421Y-10575514D01*
X197204135Y-10975514D02*
X197204135Y-10175514D01*
X197204135Y-10404086D02*
X197261278Y-10289800D01*
X197261278Y-10289800D02*
X197318421Y-10232657D01*
X197318421Y-10232657D02*
X197432706Y-10175514D01*
X197432706Y-10175514D02*
X197546992Y-10175514D01*
X197889849Y-10918372D02*
X198004135Y-10975514D01*
X198004135Y-10975514D02*
X198232706Y-10975514D01*
X198232706Y-10975514D02*
X198346992Y-10918372D01*
X198346992Y-10918372D02*
X198404135Y-10804086D01*
X198404135Y-10804086D02*
X198404135Y-10746943D01*
X198404135Y-10746943D02*
X198346992Y-10632657D01*
X198346992Y-10632657D02*
X198232706Y-10575514D01*
X198232706Y-10575514D02*
X198061278Y-10575514D01*
X198061278Y-10575514D02*
X197946992Y-10518372D01*
X197946992Y-10518372D02*
X197889849Y-10404086D01*
X197889849Y-10404086D02*
X197889849Y-10346943D01*
X197889849Y-10346943D02*
X197946992Y-10232657D01*
X197946992Y-10232657D02*
X198061278Y-10175514D01*
X198061278Y-10175514D02*
X198232706Y-10175514D01*
X198232706Y-10175514D02*
X198346992Y-10232657D01*
X198918421Y-10975514D02*
X198918421Y-10175514D01*
X198918421Y-9775514D02*
X198861278Y-9832657D01*
X198861278Y-9832657D02*
X198918421Y-9889800D01*
X198918421Y-9889800D02*
X198975564Y-9832657D01*
X198975564Y-9832657D02*
X198918421Y-9775514D01*
X198918421Y-9775514D02*
X198918421Y-9889800D01*
X199661278Y-10975514D02*
X199546993Y-10918372D01*
X199546993Y-10918372D02*
X199489850Y-10861229D01*
X199489850Y-10861229D02*
X199432707Y-10746943D01*
X199432707Y-10746943D02*
X199432707Y-10404086D01*
X199432707Y-10404086D02*
X199489850Y-10289800D01*
X199489850Y-10289800D02*
X199546993Y-10232657D01*
X199546993Y-10232657D02*
X199661278Y-10175514D01*
X199661278Y-10175514D02*
X199832707Y-10175514D01*
X199832707Y-10175514D02*
X199946993Y-10232657D01*
X199946993Y-10232657D02*
X200004136Y-10289800D01*
X200004136Y-10289800D02*
X200061278Y-10404086D01*
X200061278Y-10404086D02*
X200061278Y-10746943D01*
X200061278Y-10746943D02*
X200004136Y-10861229D01*
X200004136Y-10861229D02*
X199946993Y-10918372D01*
X199946993Y-10918372D02*
X199832707Y-10975514D01*
X199832707Y-10975514D02*
X199661278Y-10975514D01*
X200575564Y-10175514D02*
X200575564Y-10975514D01*
X200575564Y-10289800D02*
X200632707Y-10232657D01*
X200632707Y-10232657D02*
X200746992Y-10175514D01*
X200746992Y-10175514D02*
X200918421Y-10175514D01*
X200918421Y-10175514D02*
X201032707Y-10232657D01*
X201032707Y-10232657D02*
X201089850Y-10346943D01*
X201089850Y-10346943D02*
X201089850Y-10975514D01*
X202404135Y-10175514D02*
X202861278Y-10175514D01*
X202575564Y-9775514D02*
X202575564Y-10804086D01*
X202575564Y-10804086D02*
X202632707Y-10918372D01*
X202632707Y-10918372D02*
X202746992Y-10975514D01*
X202746992Y-10975514D02*
X202861278Y-10975514D01*
X203261278Y-10975514D02*
X203261278Y-10175514D01*
X203261278Y-9775514D02*
X203204135Y-9832657D01*
X203204135Y-9832657D02*
X203261278Y-9889800D01*
X203261278Y-9889800D02*
X203318421Y-9832657D01*
X203318421Y-9832657D02*
X203261278Y-9775514D01*
X203261278Y-9775514D02*
X203261278Y-9889800D01*
X203832707Y-10175514D02*
X203832707Y-10975514D01*
X203832707Y-10289800D02*
X203889850Y-10232657D01*
X203889850Y-10232657D02*
X204004135Y-10175514D01*
X204004135Y-10175514D02*
X204175564Y-10175514D01*
X204175564Y-10175514D02*
X204289850Y-10232657D01*
X204289850Y-10232657D02*
X204346993Y-10346943D01*
X204346993Y-10346943D02*
X204346993Y-10975514D01*
X205832707Y-10175514D02*
X205832707Y-10975514D01*
X205832707Y-10289800D02*
X205889850Y-10232657D01*
X205889850Y-10232657D02*
X206004135Y-10175514D01*
X206004135Y-10175514D02*
X206175564Y-10175514D01*
X206175564Y-10175514D02*
X206289850Y-10232657D01*
X206289850Y-10232657D02*
X206346993Y-10346943D01*
X206346993Y-10346943D02*
X206346993Y-10975514D01*
X207089849Y-10975514D02*
X206975564Y-10918372D01*
X206975564Y-10918372D02*
X206918421Y-10861229D01*
X206918421Y-10861229D02*
X206861278Y-10746943D01*
X206861278Y-10746943D02*
X206861278Y-10404086D01*
X206861278Y-10404086D02*
X206918421Y-10289800D01*
X206918421Y-10289800D02*
X206975564Y-10232657D01*
X206975564Y-10232657D02*
X207089849Y-10175514D01*
X207089849Y-10175514D02*
X207261278Y-10175514D01*
X207261278Y-10175514D02*
X207375564Y-10232657D01*
X207375564Y-10232657D02*
X207432707Y-10289800D01*
X207432707Y-10289800D02*
X207489849Y-10404086D01*
X207489849Y-10404086D02*
X207489849Y-10746943D01*
X207489849Y-10746943D02*
X207432707Y-10861229D01*
X207432707Y-10861229D02*
X207375564Y-10918372D01*
X207375564Y-10918372D02*
X207261278Y-10975514D01*
X207261278Y-10975514D02*
X207089849Y-10975514D01*
X207832706Y-10175514D02*
X208289849Y-10175514D01*
X208004135Y-9775514D02*
X208004135Y-10804086D01*
X208004135Y-10804086D02*
X208061278Y-10918372D01*
X208061278Y-10918372D02*
X208175563Y-10975514D01*
X208175563Y-10975514D02*
X208289849Y-10975514D01*
X209604135Y-10975514D02*
X209604135Y-10175514D01*
X209604135Y-10404086D02*
X209661278Y-10289800D01*
X209661278Y-10289800D02*
X209718421Y-10232657D01*
X209718421Y-10232657D02*
X209832706Y-10175514D01*
X209832706Y-10175514D02*
X209946992Y-10175514D01*
X210804135Y-10918372D02*
X210689849Y-10975514D01*
X210689849Y-10975514D02*
X210461278Y-10975514D01*
X210461278Y-10975514D02*
X210346992Y-10918372D01*
X210346992Y-10918372D02*
X210289849Y-10804086D01*
X210289849Y-10804086D02*
X210289849Y-10346943D01*
X210289849Y-10346943D02*
X210346992Y-10232657D01*
X210346992Y-10232657D02*
X210461278Y-10175514D01*
X210461278Y-10175514D02*
X210689849Y-10175514D01*
X210689849Y-10175514D02*
X210804135Y-10232657D01*
X210804135Y-10232657D02*
X210861278Y-10346943D01*
X210861278Y-10346943D02*
X210861278Y-10461229D01*
X210861278Y-10461229D02*
X210289849Y-10575514D01*
X211889849Y-10175514D02*
X211889849Y-11375514D01*
X211889849Y-10918372D02*
X211775563Y-10975514D01*
X211775563Y-10975514D02*
X211546991Y-10975514D01*
X211546991Y-10975514D02*
X211432706Y-10918372D01*
X211432706Y-10918372D02*
X211375563Y-10861229D01*
X211375563Y-10861229D02*
X211318420Y-10746943D01*
X211318420Y-10746943D02*
X211318420Y-10404086D01*
X211318420Y-10404086D02*
X211375563Y-10289800D01*
X211375563Y-10289800D02*
X211432706Y-10232657D01*
X211432706Y-10232657D02*
X211546991Y-10175514D01*
X211546991Y-10175514D02*
X211775563Y-10175514D01*
X211775563Y-10175514D02*
X211889849Y-10232657D01*
X212975563Y-10175514D02*
X212975563Y-10975514D01*
X212461277Y-10175514D02*
X212461277Y-10804086D01*
X212461277Y-10804086D02*
X212518420Y-10918372D01*
X212518420Y-10918372D02*
X212632705Y-10975514D01*
X212632705Y-10975514D02*
X212804134Y-10975514D01*
X212804134Y-10975514D02*
X212918420Y-10918372D01*
X212918420Y-10918372D02*
X212975563Y-10861229D01*
X213546991Y-10975514D02*
X213546991Y-10175514D01*
X213546991Y-9775514D02*
X213489848Y-9832657D01*
X213489848Y-9832657D02*
X213546991Y-9889800D01*
X213546991Y-9889800D02*
X213604134Y-9832657D01*
X213604134Y-9832657D02*
X213546991Y-9775514D01*
X213546991Y-9775514D02*
X213546991Y-9889800D01*
X214118420Y-10975514D02*
X214118420Y-10175514D01*
X214118420Y-10404086D02*
X214175563Y-10289800D01*
X214175563Y-10289800D02*
X214232706Y-10232657D01*
X214232706Y-10232657D02*
X214346991Y-10175514D01*
X214346991Y-10175514D02*
X214461277Y-10175514D01*
X215318420Y-10918372D02*
X215204134Y-10975514D01*
X215204134Y-10975514D02*
X214975563Y-10975514D01*
X214975563Y-10975514D02*
X214861277Y-10918372D01*
X214861277Y-10918372D02*
X214804134Y-10804086D01*
X214804134Y-10804086D02*
X214804134Y-10346943D01*
X214804134Y-10346943D02*
X214861277Y-10232657D01*
X214861277Y-10232657D02*
X214975563Y-10175514D01*
X214975563Y-10175514D02*
X215204134Y-10175514D01*
X215204134Y-10175514D02*
X215318420Y-10232657D01*
X215318420Y-10232657D02*
X215375563Y-10346943D01*
X215375563Y-10346943D02*
X215375563Y-10461229D01*
X215375563Y-10461229D02*
X214804134Y-10575514D01*
X216404134Y-10975514D02*
X216404134Y-9775514D01*
X216404134Y-10918372D02*
X216289848Y-10975514D01*
X216289848Y-10975514D02*
X216061276Y-10975514D01*
X216061276Y-10975514D02*
X215946991Y-10918372D01*
X215946991Y-10918372D02*
X215889848Y-10861229D01*
X215889848Y-10861229D02*
X215832705Y-10746943D01*
X215832705Y-10746943D02*
X215832705Y-10404086D01*
X215832705Y-10404086D02*
X215889848Y-10289800D01*
X215889848Y-10289800D02*
X215946991Y-10232657D01*
X215946991Y-10232657D02*
X216061276Y-10175514D01*
X216061276Y-10175514D02*
X216289848Y-10175514D01*
X216289848Y-10175514D02*
X216404134Y-10232657D01*
X217889848Y-10975514D02*
X217889848Y-9775514D01*
X218404134Y-10975514D02*
X218404134Y-10346943D01*
X218404134Y-10346943D02*
X218346991Y-10232657D01*
X218346991Y-10232657D02*
X218232705Y-10175514D01*
X218232705Y-10175514D02*
X218061276Y-10175514D01*
X218061276Y-10175514D02*
X217946991Y-10232657D01*
X217946991Y-10232657D02*
X217889848Y-10289800D01*
X219432705Y-10918372D02*
X219318419Y-10975514D01*
X219318419Y-10975514D02*
X219089848Y-10975514D01*
X219089848Y-10975514D02*
X218975562Y-10918372D01*
X218975562Y-10918372D02*
X218918419Y-10804086D01*
X218918419Y-10804086D02*
X218918419Y-10346943D01*
X218918419Y-10346943D02*
X218975562Y-10232657D01*
X218975562Y-10232657D02*
X219089848Y-10175514D01*
X219089848Y-10175514D02*
X219318419Y-10175514D01*
X219318419Y-10175514D02*
X219432705Y-10232657D01*
X219432705Y-10232657D02*
X219489848Y-10346943D01*
X219489848Y-10346943D02*
X219489848Y-10461229D01*
X219489848Y-10461229D02*
X218918419Y-10575514D01*
X220004133Y-10975514D02*
X220004133Y-10175514D01*
X220004133Y-10404086D02*
X220061276Y-10289800D01*
X220061276Y-10289800D02*
X220118419Y-10232657D01*
X220118419Y-10232657D02*
X220232704Y-10175514D01*
X220232704Y-10175514D02*
X220346990Y-10175514D01*
X221204133Y-10918372D02*
X221089847Y-10975514D01*
X221089847Y-10975514D02*
X220861276Y-10975514D01*
X220861276Y-10975514D02*
X220746990Y-10918372D01*
X220746990Y-10918372D02*
X220689847Y-10804086D01*
X220689847Y-10804086D02*
X220689847Y-10346943D01*
X220689847Y-10346943D02*
X220746990Y-10232657D01*
X220746990Y-10232657D02*
X220861276Y-10175514D01*
X220861276Y-10175514D02*
X221089847Y-10175514D01*
X221089847Y-10175514D02*
X221204133Y-10232657D01*
X221204133Y-10232657D02*
X221261276Y-10346943D01*
X221261276Y-10346943D02*
X221261276Y-10461229D01*
X221261276Y-10461229D02*
X220689847Y-10575514D01*
X223032704Y-11432657D02*
X222975561Y-11375514D01*
X222975561Y-11375514D02*
X222861275Y-11204086D01*
X222861275Y-11204086D02*
X222804133Y-11089800D01*
X222804133Y-11089800D02*
X222746990Y-10918372D01*
X222746990Y-10918372D02*
X222689847Y-10632657D01*
X222689847Y-10632657D02*
X222689847Y-10404086D01*
X222689847Y-10404086D02*
X222746990Y-10118372D01*
X222746990Y-10118372D02*
X222804133Y-9946943D01*
X222804133Y-9946943D02*
X222861275Y-9832657D01*
X222861275Y-9832657D02*
X222975561Y-9661229D01*
X222975561Y-9661229D02*
X223032704Y-9604086D01*
X223489847Y-10175514D02*
X223489847Y-10975514D01*
X223489847Y-10289800D02*
X223546990Y-10232657D01*
X223546990Y-10232657D02*
X223661275Y-10175514D01*
X223661275Y-10175514D02*
X223832704Y-10175514D01*
X223832704Y-10175514D02*
X223946990Y-10232657D01*
X223946990Y-10232657D02*
X224004133Y-10346943D01*
X224004133Y-10346943D02*
X224004133Y-10975514D01*
X224746989Y-10975514D02*
X224632704Y-10918372D01*
X224632704Y-10918372D02*
X224575561Y-10861229D01*
X224575561Y-10861229D02*
X224518418Y-10746943D01*
X224518418Y-10746943D02*
X224518418Y-10404086D01*
X224518418Y-10404086D02*
X224575561Y-10289800D01*
X224575561Y-10289800D02*
X224632704Y-10232657D01*
X224632704Y-10232657D02*
X224746989Y-10175514D01*
X224746989Y-10175514D02*
X224918418Y-10175514D01*
X224918418Y-10175514D02*
X225032704Y-10232657D01*
X225032704Y-10232657D02*
X225089847Y-10289800D01*
X225089847Y-10289800D02*
X225146989Y-10404086D01*
X225146989Y-10404086D02*
X225146989Y-10746943D01*
X225146989Y-10746943D02*
X225089847Y-10861229D01*
X225089847Y-10861229D02*
X225032704Y-10918372D01*
X225032704Y-10918372D02*
X224918418Y-10975514D01*
X224918418Y-10975514D02*
X224746989Y-10975514D01*
X226575561Y-10175514D02*
X226575561Y-11375514D01*
X226575561Y-10232657D02*
X226689847Y-10175514D01*
X226689847Y-10175514D02*
X226918418Y-10175514D01*
X226918418Y-10175514D02*
X227032704Y-10232657D01*
X227032704Y-10232657D02*
X227089847Y-10289800D01*
X227089847Y-10289800D02*
X227146989Y-10404086D01*
X227146989Y-10404086D02*
X227146989Y-10746943D01*
X227146989Y-10746943D02*
X227089847Y-10861229D01*
X227089847Y-10861229D02*
X227032704Y-10918372D01*
X227032704Y-10918372D02*
X226918418Y-10975514D01*
X226918418Y-10975514D02*
X226689847Y-10975514D01*
X226689847Y-10975514D02*
X226575561Y-10918372D01*
X227661275Y-10975514D02*
X227661275Y-10175514D01*
X227661275Y-10404086D02*
X227718418Y-10289800D01*
X227718418Y-10289800D02*
X227775561Y-10232657D01*
X227775561Y-10232657D02*
X227889846Y-10175514D01*
X227889846Y-10175514D02*
X228004132Y-10175514D01*
X228861275Y-10918372D02*
X228746989Y-10975514D01*
X228746989Y-10975514D02*
X228518418Y-10975514D01*
X228518418Y-10975514D02*
X228404132Y-10918372D01*
X228404132Y-10918372D02*
X228346989Y-10804086D01*
X228346989Y-10804086D02*
X228346989Y-10346943D01*
X228346989Y-10346943D02*
X228404132Y-10232657D01*
X228404132Y-10232657D02*
X228518418Y-10175514D01*
X228518418Y-10175514D02*
X228746989Y-10175514D01*
X228746989Y-10175514D02*
X228861275Y-10232657D01*
X228861275Y-10232657D02*
X228918418Y-10346943D01*
X228918418Y-10346943D02*
X228918418Y-10461229D01*
X228918418Y-10461229D02*
X228346989Y-10575514D01*
X229375560Y-10918372D02*
X229489846Y-10975514D01*
X229489846Y-10975514D02*
X229718417Y-10975514D01*
X229718417Y-10975514D02*
X229832703Y-10918372D01*
X229832703Y-10918372D02*
X229889846Y-10804086D01*
X229889846Y-10804086D02*
X229889846Y-10746943D01*
X229889846Y-10746943D02*
X229832703Y-10632657D01*
X229832703Y-10632657D02*
X229718417Y-10575514D01*
X229718417Y-10575514D02*
X229546989Y-10575514D01*
X229546989Y-10575514D02*
X229432703Y-10518372D01*
X229432703Y-10518372D02*
X229375560Y-10404086D01*
X229375560Y-10404086D02*
X229375560Y-10346943D01*
X229375560Y-10346943D02*
X229432703Y-10232657D01*
X229432703Y-10232657D02*
X229546989Y-10175514D01*
X229546989Y-10175514D02*
X229718417Y-10175514D01*
X229718417Y-10175514D02*
X229832703Y-10232657D01*
X230346989Y-10918372D02*
X230461275Y-10975514D01*
X230461275Y-10975514D02*
X230689846Y-10975514D01*
X230689846Y-10975514D02*
X230804132Y-10918372D01*
X230804132Y-10918372D02*
X230861275Y-10804086D01*
X230861275Y-10804086D02*
X230861275Y-10746943D01*
X230861275Y-10746943D02*
X230804132Y-10632657D01*
X230804132Y-10632657D02*
X230689846Y-10575514D01*
X230689846Y-10575514D02*
X230518418Y-10575514D01*
X230518418Y-10575514D02*
X230404132Y-10518372D01*
X230404132Y-10518372D02*
X230346989Y-10404086D01*
X230346989Y-10404086D02*
X230346989Y-10346943D01*
X230346989Y-10346943D02*
X230404132Y-10232657D01*
X230404132Y-10232657D02*
X230518418Y-10175514D01*
X230518418Y-10175514D02*
X230689846Y-10175514D01*
X230689846Y-10175514D02*
X230804132Y-10232657D01*
X231375561Y-10518372D02*
X232289847Y-10518372D01*
X232689846Y-10175514D02*
X233146989Y-10175514D01*
X232861275Y-10975514D02*
X232861275Y-9946943D01*
X232861275Y-9946943D02*
X232918418Y-9832657D01*
X232918418Y-9832657D02*
X233032703Y-9775514D01*
X233032703Y-9775514D02*
X233146989Y-9775514D01*
X233546989Y-10975514D02*
X233546989Y-10175514D01*
X233546989Y-9775514D02*
X233489846Y-9832657D01*
X233489846Y-9832657D02*
X233546989Y-9889800D01*
X233546989Y-9889800D02*
X233604132Y-9832657D01*
X233604132Y-9832657D02*
X233546989Y-9775514D01*
X233546989Y-9775514D02*
X233546989Y-9889800D01*
X233946989Y-10175514D02*
X234404132Y-10175514D01*
X234118418Y-9775514D02*
X234118418Y-10804086D01*
X234118418Y-10804086D02*
X234175561Y-10918372D01*
X234175561Y-10918372D02*
X234289846Y-10975514D01*
X234289846Y-10975514D02*
X234404132Y-10975514D01*
X234689846Y-11432657D02*
X234746989Y-11375514D01*
X234746989Y-11375514D02*
X234861275Y-11204086D01*
X234861275Y-11204086D02*
X234918418Y-11089800D01*
X234918418Y-11089800D02*
X234975560Y-10918372D01*
X234975560Y-10918372D02*
X235032703Y-10632657D01*
X235032703Y-10632657D02*
X235032703Y-10404086D01*
X235032703Y-10404086D02*
X234975560Y-10118372D01*
X234975560Y-10118372D02*
X234918418Y-9946943D01*
X234918418Y-9946943D02*
X234861275Y-9832657D01*
X234861275Y-9832657D02*
X234746989Y-9661229D01*
X234746989Y-9661229D02*
X234689846Y-9604086D01*
X235604132Y-10861229D02*
X235661275Y-10918372D01*
X235661275Y-10918372D02*
X235604132Y-10975514D01*
X235604132Y-10975514D02*
X235546989Y-10918372D01*
X235546989Y-10918372D02*
X235604132Y-10861229D01*
X235604132Y-10861229D02*
X235604132Y-10975514D01*
X192346992Y-11821733D02*
X192404135Y-11764590D01*
X192404135Y-11764590D02*
X192518421Y-11707447D01*
X192518421Y-11707447D02*
X192804135Y-11707447D01*
X192804135Y-11707447D02*
X192918421Y-11764590D01*
X192918421Y-11764590D02*
X192975563Y-11821733D01*
X192975563Y-11821733D02*
X193032706Y-11936019D01*
X193032706Y-11936019D02*
X193032706Y-12050305D01*
X193032706Y-12050305D02*
X192975563Y-12221733D01*
X192975563Y-12221733D02*
X192289849Y-12907447D01*
X192289849Y-12907447D02*
X193032706Y-12907447D01*
X193546992Y-12450305D02*
X194461278Y-12450305D01*
X195204134Y-12907447D02*
X195089849Y-12850305D01*
X195089849Y-12850305D02*
X195032706Y-12736019D01*
X195032706Y-12736019D02*
X195032706Y-11707447D01*
X196175563Y-12907447D02*
X196175563Y-12278876D01*
X196175563Y-12278876D02*
X196118420Y-12164590D01*
X196118420Y-12164590D02*
X196004134Y-12107447D01*
X196004134Y-12107447D02*
X195775563Y-12107447D01*
X195775563Y-12107447D02*
X195661277Y-12164590D01*
X196175563Y-12850305D02*
X196061277Y-12907447D01*
X196061277Y-12907447D02*
X195775563Y-12907447D01*
X195775563Y-12907447D02*
X195661277Y-12850305D01*
X195661277Y-12850305D02*
X195604134Y-12736019D01*
X195604134Y-12736019D02*
X195604134Y-12621733D01*
X195604134Y-12621733D02*
X195661277Y-12507447D01*
X195661277Y-12507447D02*
X195775563Y-12450305D01*
X195775563Y-12450305D02*
X196061277Y-12450305D01*
X196061277Y-12450305D02*
X196175563Y-12393162D01*
X196632705Y-12107447D02*
X196918419Y-12907447D01*
X197204134Y-12107447D02*
X196918419Y-12907447D01*
X196918419Y-12907447D02*
X196804134Y-13193162D01*
X196804134Y-13193162D02*
X196746991Y-13250305D01*
X196746991Y-13250305D02*
X196632705Y-13307447D01*
X198118420Y-12850305D02*
X198004134Y-12907447D01*
X198004134Y-12907447D02*
X197775563Y-12907447D01*
X197775563Y-12907447D02*
X197661277Y-12850305D01*
X197661277Y-12850305D02*
X197604134Y-12736019D01*
X197604134Y-12736019D02*
X197604134Y-12278876D01*
X197604134Y-12278876D02*
X197661277Y-12164590D01*
X197661277Y-12164590D02*
X197775563Y-12107447D01*
X197775563Y-12107447D02*
X198004134Y-12107447D01*
X198004134Y-12107447D02*
X198118420Y-12164590D01*
X198118420Y-12164590D02*
X198175563Y-12278876D01*
X198175563Y-12278876D02*
X198175563Y-12393162D01*
X198175563Y-12393162D02*
X197604134Y-12507447D01*
X198689848Y-12907447D02*
X198689848Y-12107447D01*
X198689848Y-12336019D02*
X198746991Y-12221733D01*
X198746991Y-12221733D02*
X198804134Y-12164590D01*
X198804134Y-12164590D02*
X198918419Y-12107447D01*
X198918419Y-12107447D02*
X199032705Y-12107447D01*
X200975562Y-12907447D02*
X200289848Y-12907447D01*
X200632705Y-12907447D02*
X200632705Y-11707447D01*
X200632705Y-11707447D02*
X200518419Y-11878876D01*
X200518419Y-11878876D02*
X200404134Y-11993162D01*
X200404134Y-11993162D02*
X200289848Y-12050305D01*
X201489848Y-12793162D02*
X201546991Y-12850305D01*
X201546991Y-12850305D02*
X201489848Y-12907447D01*
X201489848Y-12907447D02*
X201432705Y-12850305D01*
X201432705Y-12850305D02*
X201489848Y-12793162D01*
X201489848Y-12793162D02*
X201489848Y-12907447D01*
X202575563Y-11707447D02*
X202346991Y-11707447D01*
X202346991Y-11707447D02*
X202232705Y-11764590D01*
X202232705Y-11764590D02*
X202175563Y-11821733D01*
X202175563Y-11821733D02*
X202061277Y-11993162D01*
X202061277Y-11993162D02*
X202004134Y-12221733D01*
X202004134Y-12221733D02*
X202004134Y-12678876D01*
X202004134Y-12678876D02*
X202061277Y-12793162D01*
X202061277Y-12793162D02*
X202118420Y-12850305D01*
X202118420Y-12850305D02*
X202232705Y-12907447D01*
X202232705Y-12907447D02*
X202461277Y-12907447D01*
X202461277Y-12907447D02*
X202575563Y-12850305D01*
X202575563Y-12850305D02*
X202632705Y-12793162D01*
X202632705Y-12793162D02*
X202689848Y-12678876D01*
X202689848Y-12678876D02*
X202689848Y-12393162D01*
X202689848Y-12393162D02*
X202632705Y-12278876D01*
X202632705Y-12278876D02*
X202575563Y-12221733D01*
X202575563Y-12221733D02*
X202461277Y-12164590D01*
X202461277Y-12164590D02*
X202232705Y-12164590D01*
X202232705Y-12164590D02*
X202118420Y-12221733D01*
X202118420Y-12221733D02*
X202061277Y-12278876D01*
X202061277Y-12278876D02*
X202004134Y-12393162D01*
X204118420Y-12907447D02*
X204118420Y-12107447D01*
X204118420Y-12221733D02*
X204175563Y-12164590D01*
X204175563Y-12164590D02*
X204289848Y-12107447D01*
X204289848Y-12107447D02*
X204461277Y-12107447D01*
X204461277Y-12107447D02*
X204575563Y-12164590D01*
X204575563Y-12164590D02*
X204632706Y-12278876D01*
X204632706Y-12278876D02*
X204632706Y-12907447D01*
X204632706Y-12278876D02*
X204689848Y-12164590D01*
X204689848Y-12164590D02*
X204804134Y-12107447D01*
X204804134Y-12107447D02*
X204975563Y-12107447D01*
X204975563Y-12107447D02*
X205089848Y-12164590D01*
X205089848Y-12164590D02*
X205146991Y-12278876D01*
X205146991Y-12278876D02*
X205146991Y-12907447D01*
X205718420Y-12907447D02*
X205718420Y-12107447D01*
X205718420Y-12221733D02*
X205775563Y-12164590D01*
X205775563Y-12164590D02*
X205889848Y-12107447D01*
X205889848Y-12107447D02*
X206061277Y-12107447D01*
X206061277Y-12107447D02*
X206175563Y-12164590D01*
X206175563Y-12164590D02*
X206232706Y-12278876D01*
X206232706Y-12278876D02*
X206232706Y-12907447D01*
X206232706Y-12278876D02*
X206289848Y-12164590D01*
X206289848Y-12164590D02*
X206404134Y-12107447D01*
X206404134Y-12107447D02*
X206575563Y-12107447D01*
X206575563Y-12107447D02*
X206689848Y-12164590D01*
X206689848Y-12164590D02*
X206746991Y-12278876D01*
X206746991Y-12278876D02*
X206746991Y-12907447D01*
X208632706Y-12278876D02*
X208232706Y-12278876D01*
X208232706Y-12907447D02*
X208232706Y-11707447D01*
X208232706Y-11707447D02*
X208804134Y-11707447D01*
X209946991Y-12907447D02*
X209546991Y-12336019D01*
X209261277Y-12907447D02*
X209261277Y-11707447D01*
X209261277Y-11707447D02*
X209718420Y-11707447D01*
X209718420Y-11707447D02*
X209832705Y-11764590D01*
X209832705Y-11764590D02*
X209889848Y-11821733D01*
X209889848Y-11821733D02*
X209946991Y-11936019D01*
X209946991Y-11936019D02*
X209946991Y-12107447D01*
X209946991Y-12107447D02*
X209889848Y-12221733D01*
X209889848Y-12221733D02*
X209832705Y-12278876D01*
X209832705Y-12278876D02*
X209718420Y-12336019D01*
X209718420Y-12336019D02*
X209261277Y-12336019D01*
X210461277Y-12450305D02*
X211375563Y-12450305D01*
X212461277Y-12107447D02*
X212461277Y-12907447D01*
X212175562Y-11650305D02*
X211889848Y-12507447D01*
X211889848Y-12507447D02*
X212632705Y-12507447D01*
X213146991Y-12850305D02*
X213146991Y-12907447D01*
X213146991Y-12907447D02*
X213089848Y-13021733D01*
X213089848Y-13021733D02*
X213032705Y-13078876D01*
X215089849Y-12107447D02*
X215089849Y-12907447D01*
X214804134Y-11650305D02*
X214518420Y-12507447D01*
X214518420Y-12507447D02*
X215261277Y-12507447D01*
X216804134Y-12907447D02*
X216689849Y-12850305D01*
X216689849Y-12850305D02*
X216632706Y-12793162D01*
X216632706Y-12793162D02*
X216575563Y-12678876D01*
X216575563Y-12678876D02*
X216575563Y-12336019D01*
X216575563Y-12336019D02*
X216632706Y-12221733D01*
X216632706Y-12221733D02*
X216689849Y-12164590D01*
X216689849Y-12164590D02*
X216804134Y-12107447D01*
X216804134Y-12107447D02*
X216975563Y-12107447D01*
X216975563Y-12107447D02*
X217089849Y-12164590D01*
X217089849Y-12164590D02*
X217146992Y-12221733D01*
X217146992Y-12221733D02*
X217204134Y-12336019D01*
X217204134Y-12336019D02*
X217204134Y-12678876D01*
X217204134Y-12678876D02*
X217146992Y-12793162D01*
X217146992Y-12793162D02*
X217089849Y-12850305D01*
X217089849Y-12850305D02*
X216975563Y-12907447D01*
X216975563Y-12907447D02*
X216804134Y-12907447D01*
X217604134Y-12107447D02*
X218232706Y-12107447D01*
X218232706Y-12107447D02*
X217604134Y-12907447D01*
X217604134Y-12907447D02*
X218232706Y-12907447D01*
X219946992Y-13364590D02*
X219889849Y-13307447D01*
X219889849Y-13307447D02*
X219775563Y-13136019D01*
X219775563Y-13136019D02*
X219718421Y-13021733D01*
X219718421Y-13021733D02*
X219661278Y-12850305D01*
X219661278Y-12850305D02*
X219604135Y-12564590D01*
X219604135Y-12564590D02*
X219604135Y-12336019D01*
X219604135Y-12336019D02*
X219661278Y-12050305D01*
X219661278Y-12050305D02*
X219718421Y-11878876D01*
X219718421Y-11878876D02*
X219775563Y-11764590D01*
X219775563Y-11764590D02*
X219889849Y-11593162D01*
X219889849Y-11593162D02*
X219946992Y-11536019D01*
X221032706Y-12907447D02*
X220346992Y-12907447D01*
X220689849Y-12907447D02*
X220689849Y-11707447D01*
X220689849Y-11707447D02*
X220575563Y-11878876D01*
X220575563Y-11878876D02*
X220461278Y-11993162D01*
X220461278Y-11993162D02*
X220346992Y-12050305D01*
X222061278Y-12107447D02*
X222061278Y-12907447D01*
X221775563Y-11650305D02*
X221489849Y-12507447D01*
X221489849Y-12507447D02*
X222232706Y-12507447D01*
X222918420Y-11707447D02*
X223032706Y-11707447D01*
X223032706Y-11707447D02*
X223146992Y-11764590D01*
X223146992Y-11764590D02*
X223204135Y-11821733D01*
X223204135Y-11821733D02*
X223261277Y-11936019D01*
X223261277Y-11936019D02*
X223318420Y-12164590D01*
X223318420Y-12164590D02*
X223318420Y-12450305D01*
X223318420Y-12450305D02*
X223261277Y-12678876D01*
X223261277Y-12678876D02*
X223204135Y-12793162D01*
X223204135Y-12793162D02*
X223146992Y-12850305D01*
X223146992Y-12850305D02*
X223032706Y-12907447D01*
X223032706Y-12907447D02*
X222918420Y-12907447D01*
X222918420Y-12907447D02*
X222804135Y-12850305D01*
X222804135Y-12850305D02*
X222746992Y-12793162D01*
X222746992Y-12793162D02*
X222689849Y-12678876D01*
X222689849Y-12678876D02*
X222632706Y-12450305D01*
X222632706Y-12450305D02*
X222632706Y-12164590D01*
X222632706Y-12164590D02*
X222689849Y-11936019D01*
X222689849Y-11936019D02*
X222746992Y-11821733D01*
X222746992Y-11821733D02*
X222804135Y-11764590D01*
X222804135Y-11764590D02*
X222918420Y-11707447D01*
X225261278Y-12107447D02*
X225261278Y-12907447D01*
X224746992Y-12107447D02*
X224746992Y-12736019D01*
X224746992Y-12736019D02*
X224804135Y-12850305D01*
X224804135Y-12850305D02*
X224918420Y-12907447D01*
X224918420Y-12907447D02*
X225089849Y-12907447D01*
X225089849Y-12907447D02*
X225204135Y-12850305D01*
X225204135Y-12850305D02*
X225261278Y-12793162D01*
X225832706Y-12907447D02*
X225832706Y-12107447D01*
X225832706Y-12221733D02*
X225889849Y-12164590D01*
X225889849Y-12164590D02*
X226004134Y-12107447D01*
X226004134Y-12107447D02*
X226175563Y-12107447D01*
X226175563Y-12107447D02*
X226289849Y-12164590D01*
X226289849Y-12164590D02*
X226346992Y-12278876D01*
X226346992Y-12278876D02*
X226346992Y-12907447D01*
X226346992Y-12278876D02*
X226404134Y-12164590D01*
X226404134Y-12164590D02*
X226518420Y-12107447D01*
X226518420Y-12107447D02*
X226689849Y-12107447D01*
X226689849Y-12107447D02*
X226804134Y-12164590D01*
X226804134Y-12164590D02*
X226861277Y-12278876D01*
X226861277Y-12278876D02*
X226861277Y-12907447D01*
X227318420Y-13364590D02*
X227375563Y-13307447D01*
X227375563Y-13307447D02*
X227489849Y-13136019D01*
X227489849Y-13136019D02*
X227546992Y-13021733D01*
X227546992Y-13021733D02*
X227604134Y-12850305D01*
X227604134Y-12850305D02*
X227661277Y-12564590D01*
X227661277Y-12564590D02*
X227661277Y-12336019D01*
X227661277Y-12336019D02*
X227604134Y-12050305D01*
X227604134Y-12050305D02*
X227546992Y-11878876D01*
X227546992Y-11878876D02*
X227489849Y-11764590D01*
X227489849Y-11764590D02*
X227375563Y-11593162D01*
X227375563Y-11593162D02*
X227318420Y-11536019D01*
X229832706Y-12793162D02*
X229775563Y-12850305D01*
X229775563Y-12850305D02*
X229604135Y-12907447D01*
X229604135Y-12907447D02*
X229489849Y-12907447D01*
X229489849Y-12907447D02*
X229318420Y-12850305D01*
X229318420Y-12850305D02*
X229204135Y-12736019D01*
X229204135Y-12736019D02*
X229146992Y-12621733D01*
X229146992Y-12621733D02*
X229089849Y-12393162D01*
X229089849Y-12393162D02*
X229089849Y-12221733D01*
X229089849Y-12221733D02*
X229146992Y-11993162D01*
X229146992Y-11993162D02*
X229204135Y-11878876D01*
X229204135Y-11878876D02*
X229318420Y-11764590D01*
X229318420Y-11764590D02*
X229489849Y-11707447D01*
X229489849Y-11707447D02*
X229604135Y-11707447D01*
X229604135Y-11707447D02*
X229775563Y-11764590D01*
X229775563Y-11764590D02*
X229832706Y-11821733D01*
X230861278Y-12107447D02*
X230861278Y-12907447D01*
X230346992Y-12107447D02*
X230346992Y-12736019D01*
X230346992Y-12736019D02*
X230404135Y-12850305D01*
X230404135Y-12850305D02*
X230518420Y-12907447D01*
X230518420Y-12907447D02*
X230689849Y-12907447D01*
X230689849Y-12907447D02*
X230804135Y-12850305D01*
X230804135Y-12850305D02*
X230861278Y-12793162D01*
X232746992Y-12278876D02*
X232918420Y-12336019D01*
X232918420Y-12336019D02*
X232975563Y-12393162D01*
X232975563Y-12393162D02*
X233032706Y-12507447D01*
X233032706Y-12507447D02*
X233032706Y-12678876D01*
X233032706Y-12678876D02*
X232975563Y-12793162D01*
X232975563Y-12793162D02*
X232918420Y-12850305D01*
X232918420Y-12850305D02*
X232804135Y-12907447D01*
X232804135Y-12907447D02*
X232346992Y-12907447D01*
X232346992Y-12907447D02*
X232346992Y-11707447D01*
X232346992Y-11707447D02*
X232746992Y-11707447D01*
X232746992Y-11707447D02*
X232861278Y-11764590D01*
X232861278Y-11764590D02*
X232918420Y-11821733D01*
X232918420Y-11821733D02*
X232975563Y-11936019D01*
X232975563Y-11936019D02*
X232975563Y-12050305D01*
X232975563Y-12050305D02*
X232918420Y-12164590D01*
X232918420Y-12164590D02*
X232861278Y-12221733D01*
X232861278Y-12221733D02*
X232746992Y-12278876D01*
X232746992Y-12278876D02*
X232346992Y-12278876D01*
X233775563Y-11707447D02*
X234004135Y-11707447D01*
X234004135Y-11707447D02*
X234118420Y-11764590D01*
X234118420Y-11764590D02*
X234232706Y-11878876D01*
X234232706Y-11878876D02*
X234289849Y-12107447D01*
X234289849Y-12107447D02*
X234289849Y-12507447D01*
X234289849Y-12507447D02*
X234232706Y-12736019D01*
X234232706Y-12736019D02*
X234118420Y-12850305D01*
X234118420Y-12850305D02*
X234004135Y-12907447D01*
X234004135Y-12907447D02*
X233775563Y-12907447D01*
X233775563Y-12907447D02*
X233661278Y-12850305D01*
X233661278Y-12850305D02*
X233546992Y-12736019D01*
X233546992Y-12736019D02*
X233489849Y-12507447D01*
X233489849Y-12507447D02*
X233489849Y-12107447D01*
X233489849Y-12107447D02*
X233546992Y-11878876D01*
X233546992Y-11878876D02*
X233661278Y-11764590D01*
X233661278Y-11764590D02*
X233775563Y-11707447D01*
X234632706Y-11707447D02*
X235318421Y-11707447D01*
X234975563Y-12907447D02*
X234975563Y-11707447D01*
X235718421Y-12907447D02*
X235718421Y-11707447D01*
X235718421Y-12278876D02*
X236404135Y-12278876D01*
X236404135Y-12907447D02*
X236404135Y-11707447D01*
X237832707Y-12850305D02*
X238004136Y-12907447D01*
X238004136Y-12907447D02*
X238289850Y-12907447D01*
X238289850Y-12907447D02*
X238404136Y-12850305D01*
X238404136Y-12850305D02*
X238461278Y-12793162D01*
X238461278Y-12793162D02*
X238518421Y-12678876D01*
X238518421Y-12678876D02*
X238518421Y-12564590D01*
X238518421Y-12564590D02*
X238461278Y-12450305D01*
X238461278Y-12450305D02*
X238404136Y-12393162D01*
X238404136Y-12393162D02*
X238289850Y-12336019D01*
X238289850Y-12336019D02*
X238061278Y-12278876D01*
X238061278Y-12278876D02*
X237946993Y-12221733D01*
X237946993Y-12221733D02*
X237889850Y-12164590D01*
X237889850Y-12164590D02*
X237832707Y-12050305D01*
X237832707Y-12050305D02*
X237832707Y-11936019D01*
X237832707Y-11936019D02*
X237889850Y-11821733D01*
X237889850Y-11821733D02*
X237946993Y-11764590D01*
X237946993Y-11764590D02*
X238061278Y-11707447D01*
X238061278Y-11707447D02*
X238346993Y-11707447D01*
X238346993Y-11707447D02*
X238518421Y-11764590D01*
X239032707Y-12907447D02*
X239032707Y-11707447D01*
X239604136Y-12907447D02*
X239604136Y-11707447D01*
X239604136Y-11707447D02*
X239889850Y-11707447D01*
X239889850Y-11707447D02*
X240061279Y-11764590D01*
X240061279Y-11764590D02*
X240175564Y-11878876D01*
X240175564Y-11878876D02*
X240232707Y-11993162D01*
X240232707Y-11993162D02*
X240289850Y-12221733D01*
X240289850Y-12221733D02*
X240289850Y-12393162D01*
X240289850Y-12393162D02*
X240232707Y-12621733D01*
X240232707Y-12621733D02*
X240175564Y-12736019D01*
X240175564Y-12736019D02*
X240061279Y-12850305D01*
X240061279Y-12850305D02*
X239889850Y-12907447D01*
X239889850Y-12907447D02*
X239604136Y-12907447D01*
X240804136Y-12278876D02*
X241204136Y-12278876D01*
X241375564Y-12907447D02*
X240804136Y-12907447D01*
X240804136Y-12907447D02*
X240804136Y-11707447D01*
X240804136Y-11707447D02*
X241375564Y-11707447D01*
X241832707Y-12850305D02*
X242004136Y-12907447D01*
X242004136Y-12907447D02*
X242289850Y-12907447D01*
X242289850Y-12907447D02*
X242404136Y-12850305D01*
X242404136Y-12850305D02*
X242461278Y-12793162D01*
X242461278Y-12793162D02*
X242518421Y-12678876D01*
X242518421Y-12678876D02*
X242518421Y-12564590D01*
X242518421Y-12564590D02*
X242461278Y-12450305D01*
X242461278Y-12450305D02*
X242404136Y-12393162D01*
X242404136Y-12393162D02*
X242289850Y-12336019D01*
X242289850Y-12336019D02*
X242061278Y-12278876D01*
X242061278Y-12278876D02*
X241946993Y-12221733D01*
X241946993Y-12221733D02*
X241889850Y-12164590D01*
X241889850Y-12164590D02*
X241832707Y-12050305D01*
X241832707Y-12050305D02*
X241832707Y-11936019D01*
X241832707Y-11936019D02*
X241889850Y-11821733D01*
X241889850Y-11821733D02*
X241946993Y-11764590D01*
X241946993Y-11764590D02*
X242061278Y-11707447D01*
X242061278Y-11707447D02*
X242346993Y-11707447D01*
X242346993Y-11707447D02*
X242518421Y-11764590D01*
X243946993Y-12450305D02*
X244861279Y-12450305D01*
X247032707Y-12907447D02*
X246632707Y-12336019D01*
X246346993Y-12907447D02*
X246346993Y-11707447D01*
X246346993Y-11707447D02*
X246804136Y-11707447D01*
X246804136Y-11707447D02*
X246918421Y-11764590D01*
X246918421Y-11764590D02*
X246975564Y-11821733D01*
X246975564Y-11821733D02*
X247032707Y-11936019D01*
X247032707Y-11936019D02*
X247032707Y-12107447D01*
X247032707Y-12107447D02*
X246975564Y-12221733D01*
X246975564Y-12221733D02*
X246918421Y-12278876D01*
X246918421Y-12278876D02*
X246804136Y-12336019D01*
X246804136Y-12336019D02*
X246346993Y-12336019D01*
X247546993Y-12278876D02*
X247946993Y-12278876D01*
X248118421Y-12907447D02*
X247546993Y-12907447D01*
X247546993Y-12907447D02*
X247546993Y-11707447D01*
X247546993Y-11707447D02*
X248118421Y-11707447D01*
X249432707Y-13021733D02*
X249318421Y-12964590D01*
X249318421Y-12964590D02*
X249204135Y-12850305D01*
X249204135Y-12850305D02*
X249032707Y-12678876D01*
X249032707Y-12678876D02*
X248918421Y-12621733D01*
X248918421Y-12621733D02*
X248804135Y-12621733D01*
X248861278Y-12907447D02*
X248746993Y-12850305D01*
X248746993Y-12850305D02*
X248632707Y-12736019D01*
X248632707Y-12736019D02*
X248575564Y-12507447D01*
X248575564Y-12507447D02*
X248575564Y-12107447D01*
X248575564Y-12107447D02*
X248632707Y-11878876D01*
X248632707Y-11878876D02*
X248746993Y-11764590D01*
X248746993Y-11764590D02*
X248861278Y-11707447D01*
X248861278Y-11707447D02*
X249089850Y-11707447D01*
X249089850Y-11707447D02*
X249204135Y-11764590D01*
X249204135Y-11764590D02*
X249318421Y-11878876D01*
X249318421Y-11878876D02*
X249375564Y-12107447D01*
X249375564Y-12107447D02*
X249375564Y-12507447D01*
X249375564Y-12507447D02*
X249318421Y-12736019D01*
X249318421Y-12736019D02*
X249204135Y-12850305D01*
X249204135Y-12850305D02*
X249089850Y-12907447D01*
X249089850Y-12907447D02*
X248861278Y-12907447D01*
X249889850Y-11707447D02*
X249889850Y-12678876D01*
X249889850Y-12678876D02*
X249946993Y-12793162D01*
X249946993Y-12793162D02*
X250004136Y-12850305D01*
X250004136Y-12850305D02*
X250118421Y-12907447D01*
X250118421Y-12907447D02*
X250346993Y-12907447D01*
X250346993Y-12907447D02*
X250461278Y-12850305D01*
X250461278Y-12850305D02*
X250518421Y-12793162D01*
X250518421Y-12793162D02*
X250575564Y-12678876D01*
X250575564Y-12678876D02*
X250575564Y-11707447D01*
X251146993Y-12907447D02*
X251146993Y-11707447D01*
X252404136Y-12907447D02*
X252004136Y-12336019D01*
X251718422Y-12907447D02*
X251718422Y-11707447D01*
X251718422Y-11707447D02*
X252175565Y-11707447D01*
X252175565Y-11707447D02*
X252289850Y-11764590D01*
X252289850Y-11764590D02*
X252346993Y-11821733D01*
X252346993Y-11821733D02*
X252404136Y-11936019D01*
X252404136Y-11936019D02*
X252404136Y-12107447D01*
X252404136Y-12107447D02*
X252346993Y-12221733D01*
X252346993Y-12221733D02*
X252289850Y-12278876D01*
X252289850Y-12278876D02*
X252175565Y-12336019D01*
X252175565Y-12336019D02*
X251718422Y-12336019D01*
X252918422Y-12278876D02*
X253318422Y-12278876D01*
X253489850Y-12907447D02*
X252918422Y-12907447D01*
X252918422Y-12907447D02*
X252918422Y-11707447D01*
X252918422Y-11707447D02*
X253489850Y-11707447D01*
X254004136Y-12907447D02*
X254004136Y-11707447D01*
X254004136Y-11707447D02*
X254289850Y-11707447D01*
X254289850Y-11707447D02*
X254461279Y-11764590D01*
X254461279Y-11764590D02*
X254575564Y-11878876D01*
X254575564Y-11878876D02*
X254632707Y-11993162D01*
X254632707Y-11993162D02*
X254689850Y-12221733D01*
X254689850Y-12221733D02*
X254689850Y-12393162D01*
X254689850Y-12393162D02*
X254632707Y-12621733D01*
X254632707Y-12621733D02*
X254575564Y-12736019D01*
X254575564Y-12736019D02*
X254461279Y-12850305D01*
X254461279Y-12850305D02*
X254289850Y-12907447D01*
X254289850Y-12907447D02*
X254004136Y-12907447D01*
X255204136Y-12793162D02*
X255261279Y-12850305D01*
X255261279Y-12850305D02*
X255204136Y-12907447D01*
X255204136Y-12907447D02*
X255146993Y-12850305D01*
X255146993Y-12850305D02*
X255204136Y-12793162D01*
X255204136Y-12793162D02*
X255204136Y-12907447D01*
X255204136Y-12164590D02*
X255261279Y-12221733D01*
X255261279Y-12221733D02*
X255204136Y-12278876D01*
X255204136Y-12278876D02*
X255146993Y-12221733D01*
X255146993Y-12221733D02*
X255204136Y-12164590D01*
X255204136Y-12164590D02*
X255204136Y-12278876D01*
X256689851Y-12107447D02*
X256689851Y-13307447D01*
X256689851Y-12164590D02*
X256804137Y-12107447D01*
X256804137Y-12107447D02*
X257032708Y-12107447D01*
X257032708Y-12107447D02*
X257146994Y-12164590D01*
X257146994Y-12164590D02*
X257204137Y-12221733D01*
X257204137Y-12221733D02*
X257261279Y-12336019D01*
X257261279Y-12336019D02*
X257261279Y-12678876D01*
X257261279Y-12678876D02*
X257204137Y-12793162D01*
X257204137Y-12793162D02*
X257146994Y-12850305D01*
X257146994Y-12850305D02*
X257032708Y-12907447D01*
X257032708Y-12907447D02*
X256804137Y-12907447D01*
X256804137Y-12907447D02*
X256689851Y-12850305D01*
X257946993Y-12907447D02*
X257832708Y-12850305D01*
X257832708Y-12850305D02*
X257775565Y-12736019D01*
X257775565Y-12736019D02*
X257775565Y-11707447D01*
X258918422Y-12907447D02*
X258918422Y-12278876D01*
X258918422Y-12278876D02*
X258861279Y-12164590D01*
X258861279Y-12164590D02*
X258746993Y-12107447D01*
X258746993Y-12107447D02*
X258518422Y-12107447D01*
X258518422Y-12107447D02*
X258404136Y-12164590D01*
X258918422Y-12850305D02*
X258804136Y-12907447D01*
X258804136Y-12907447D02*
X258518422Y-12907447D01*
X258518422Y-12907447D02*
X258404136Y-12850305D01*
X258404136Y-12850305D02*
X258346993Y-12736019D01*
X258346993Y-12736019D02*
X258346993Y-12621733D01*
X258346993Y-12621733D02*
X258404136Y-12507447D01*
X258404136Y-12507447D02*
X258518422Y-12450305D01*
X258518422Y-12450305D02*
X258804136Y-12450305D01*
X258804136Y-12450305D02*
X258918422Y-12393162D01*
X259489850Y-12107447D02*
X259489850Y-12907447D01*
X259489850Y-12221733D02*
X259546993Y-12164590D01*
X259546993Y-12164590D02*
X259661278Y-12107447D01*
X259661278Y-12107447D02*
X259832707Y-12107447D01*
X259832707Y-12107447D02*
X259946993Y-12164590D01*
X259946993Y-12164590D02*
X260004136Y-12278876D01*
X260004136Y-12278876D02*
X260004136Y-12907447D01*
X261032707Y-12850305D02*
X260918421Y-12907447D01*
X260918421Y-12907447D02*
X260689850Y-12907447D01*
X260689850Y-12907447D02*
X260575564Y-12850305D01*
X260575564Y-12850305D02*
X260518421Y-12736019D01*
X260518421Y-12736019D02*
X260518421Y-12278876D01*
X260518421Y-12278876D02*
X260575564Y-12164590D01*
X260575564Y-12164590D02*
X260689850Y-12107447D01*
X260689850Y-12107447D02*
X260918421Y-12107447D01*
X260918421Y-12107447D02*
X261032707Y-12164590D01*
X261032707Y-12164590D02*
X261089850Y-12278876D01*
X261089850Y-12278876D02*
X261089850Y-12393162D01*
X261089850Y-12393162D02*
X260518421Y-12507447D01*
X261546992Y-12850305D02*
X261661278Y-12907447D01*
X261661278Y-12907447D02*
X261889849Y-12907447D01*
X261889849Y-12907447D02*
X262004135Y-12850305D01*
X262004135Y-12850305D02*
X262061278Y-12736019D01*
X262061278Y-12736019D02*
X262061278Y-12678876D01*
X262061278Y-12678876D02*
X262004135Y-12564590D01*
X262004135Y-12564590D02*
X261889849Y-12507447D01*
X261889849Y-12507447D02*
X261718421Y-12507447D01*
X261718421Y-12507447D02*
X261604135Y-12450305D01*
X261604135Y-12450305D02*
X261546992Y-12336019D01*
X261546992Y-12336019D02*
X261546992Y-12278876D01*
X261546992Y-12278876D02*
X261604135Y-12164590D01*
X261604135Y-12164590D02*
X261718421Y-12107447D01*
X261718421Y-12107447D02*
X261889849Y-12107447D01*
X261889849Y-12107447D02*
X262004135Y-12164590D01*
X264004136Y-12850305D02*
X263889850Y-12907447D01*
X263889850Y-12907447D02*
X263661278Y-12907447D01*
X263661278Y-12907447D02*
X263546993Y-12850305D01*
X263546993Y-12850305D02*
X263489850Y-12793162D01*
X263489850Y-12793162D02*
X263432707Y-12678876D01*
X263432707Y-12678876D02*
X263432707Y-12336019D01*
X263432707Y-12336019D02*
X263489850Y-12221733D01*
X263489850Y-12221733D02*
X263546993Y-12164590D01*
X263546993Y-12164590D02*
X263661278Y-12107447D01*
X263661278Y-12107447D02*
X263889850Y-12107447D01*
X263889850Y-12107447D02*
X264004136Y-12164590D01*
X265032707Y-12907447D02*
X265032707Y-12278876D01*
X265032707Y-12278876D02*
X264975564Y-12164590D01*
X264975564Y-12164590D02*
X264861278Y-12107447D01*
X264861278Y-12107447D02*
X264632707Y-12107447D01*
X264632707Y-12107447D02*
X264518421Y-12164590D01*
X265032707Y-12850305D02*
X264918421Y-12907447D01*
X264918421Y-12907447D02*
X264632707Y-12907447D01*
X264632707Y-12907447D02*
X264518421Y-12850305D01*
X264518421Y-12850305D02*
X264461278Y-12736019D01*
X264461278Y-12736019D02*
X264461278Y-12621733D01*
X264461278Y-12621733D02*
X264518421Y-12507447D01*
X264518421Y-12507447D02*
X264632707Y-12450305D01*
X264632707Y-12450305D02*
X264918421Y-12450305D01*
X264918421Y-12450305D02*
X265032707Y-12393162D01*
X265604135Y-12907447D02*
X265604135Y-12107447D01*
X265604135Y-12336019D02*
X265661278Y-12221733D01*
X265661278Y-12221733D02*
X265718421Y-12164590D01*
X265718421Y-12164590D02*
X265832706Y-12107447D01*
X265832706Y-12107447D02*
X265946992Y-12107447D01*
X266346992Y-12907447D02*
X266346992Y-12107447D01*
X266346992Y-12336019D02*
X266404135Y-12221733D01*
X266404135Y-12221733D02*
X266461278Y-12164590D01*
X266461278Y-12164590D02*
X266575563Y-12107447D01*
X266575563Y-12107447D02*
X266689849Y-12107447D01*
X266975563Y-12107447D02*
X267261277Y-12907447D01*
X267546992Y-12107447D02*
X267261277Y-12907447D01*
X267261277Y-12907447D02*
X267146992Y-13193162D01*
X267146992Y-13193162D02*
X267089849Y-13250305D01*
X267089849Y-13250305D02*
X266975563Y-13307447D01*
X268746992Y-12107447D02*
X269204135Y-12107447D01*
X268918421Y-11707447D02*
X268918421Y-12736019D01*
X268918421Y-12736019D02*
X268975564Y-12850305D01*
X268975564Y-12850305D02*
X269089849Y-12907447D01*
X269089849Y-12907447D02*
X269204135Y-12907447D01*
X269604135Y-12907447D02*
X269604135Y-11707447D01*
X270118421Y-12907447D02*
X270118421Y-12278876D01*
X270118421Y-12278876D02*
X270061278Y-12164590D01*
X270061278Y-12164590D02*
X269946992Y-12107447D01*
X269946992Y-12107447D02*
X269775563Y-12107447D01*
X269775563Y-12107447D02*
X269661278Y-12164590D01*
X269661278Y-12164590D02*
X269604135Y-12221733D01*
X271146992Y-12850305D02*
X271032706Y-12907447D01*
X271032706Y-12907447D02*
X270804135Y-12907447D01*
X270804135Y-12907447D02*
X270689849Y-12850305D01*
X270689849Y-12850305D02*
X270632706Y-12736019D01*
X270632706Y-12736019D02*
X270632706Y-12278876D01*
X270632706Y-12278876D02*
X270689849Y-12164590D01*
X270689849Y-12164590D02*
X270804135Y-12107447D01*
X270804135Y-12107447D02*
X271032706Y-12107447D01*
X271032706Y-12107447D02*
X271146992Y-12164590D01*
X271146992Y-12164590D02*
X271204135Y-12278876D01*
X271204135Y-12278876D02*
X271204135Y-12393162D01*
X271204135Y-12393162D02*
X270632706Y-12507447D01*
X272632706Y-12907447D02*
X272632706Y-12107447D01*
X272632706Y-12221733D02*
X272689849Y-12164590D01*
X272689849Y-12164590D02*
X272804134Y-12107447D01*
X272804134Y-12107447D02*
X272975563Y-12107447D01*
X272975563Y-12107447D02*
X273089849Y-12164590D01*
X273089849Y-12164590D02*
X273146992Y-12278876D01*
X273146992Y-12278876D02*
X273146992Y-12907447D01*
X273146992Y-12278876D02*
X273204134Y-12164590D01*
X273204134Y-12164590D02*
X273318420Y-12107447D01*
X273318420Y-12107447D02*
X273489849Y-12107447D01*
X273489849Y-12107447D02*
X273604134Y-12164590D01*
X273604134Y-12164590D02*
X273661277Y-12278876D01*
X273661277Y-12278876D02*
X273661277Y-12907447D01*
X274746992Y-12907447D02*
X274746992Y-12278876D01*
X274746992Y-12278876D02*
X274689849Y-12164590D01*
X274689849Y-12164590D02*
X274575563Y-12107447D01*
X274575563Y-12107447D02*
X274346992Y-12107447D01*
X274346992Y-12107447D02*
X274232706Y-12164590D01*
X274746992Y-12850305D02*
X274632706Y-12907447D01*
X274632706Y-12907447D02*
X274346992Y-12907447D01*
X274346992Y-12907447D02*
X274232706Y-12850305D01*
X274232706Y-12850305D02*
X274175563Y-12736019D01*
X274175563Y-12736019D02*
X274175563Y-12621733D01*
X274175563Y-12621733D02*
X274232706Y-12507447D01*
X274232706Y-12507447D02*
X274346992Y-12450305D01*
X274346992Y-12450305D02*
X274632706Y-12450305D01*
X274632706Y-12450305D02*
X274746992Y-12393162D01*
X275318420Y-12907447D02*
X275318420Y-12107447D01*
X275318420Y-11707447D02*
X275261277Y-11764590D01*
X275261277Y-11764590D02*
X275318420Y-11821733D01*
X275318420Y-11821733D02*
X275375563Y-11764590D01*
X275375563Y-11764590D02*
X275318420Y-11707447D01*
X275318420Y-11707447D02*
X275318420Y-11821733D01*
X275889849Y-12107447D02*
X275889849Y-12907447D01*
X275889849Y-12221733D02*
X275946992Y-12164590D01*
X275946992Y-12164590D02*
X276061277Y-12107447D01*
X276061277Y-12107447D02*
X276232706Y-12107447D01*
X276232706Y-12107447D02*
X276346992Y-12164590D01*
X276346992Y-12164590D02*
X276404135Y-12278876D01*
X276404135Y-12278876D02*
X276404135Y-12907447D01*
X277889849Y-12907447D02*
X277889849Y-11707447D01*
X277889849Y-11707447D02*
X278175563Y-11707447D01*
X278175563Y-11707447D02*
X278346992Y-11764590D01*
X278346992Y-11764590D02*
X278461277Y-11878876D01*
X278461277Y-11878876D02*
X278518420Y-11993162D01*
X278518420Y-11993162D02*
X278575563Y-12221733D01*
X278575563Y-12221733D02*
X278575563Y-12393162D01*
X278575563Y-12393162D02*
X278518420Y-12621733D01*
X278518420Y-12621733D02*
X278461277Y-12736019D01*
X278461277Y-12736019D02*
X278346992Y-12850305D01*
X278346992Y-12850305D02*
X278175563Y-12907447D01*
X278175563Y-12907447D02*
X277889849Y-12907447D01*
X279775563Y-12793162D02*
X279718420Y-12850305D01*
X279718420Y-12850305D02*
X279546992Y-12907447D01*
X279546992Y-12907447D02*
X279432706Y-12907447D01*
X279432706Y-12907447D02*
X279261277Y-12850305D01*
X279261277Y-12850305D02*
X279146992Y-12736019D01*
X279146992Y-12736019D02*
X279089849Y-12621733D01*
X279089849Y-12621733D02*
X279032706Y-12393162D01*
X279032706Y-12393162D02*
X279032706Y-12221733D01*
X279032706Y-12221733D02*
X279089849Y-11993162D01*
X279089849Y-11993162D02*
X279146992Y-11878876D01*
X279146992Y-11878876D02*
X279261277Y-11764590D01*
X279261277Y-11764590D02*
X279432706Y-11707447D01*
X279432706Y-11707447D02*
X279546992Y-11707447D01*
X279546992Y-11707447D02*
X279718420Y-11764590D01*
X279718420Y-11764590D02*
X279775563Y-11821733D01*
X281204135Y-12107447D02*
X281204135Y-13307447D01*
X281204135Y-12164590D02*
X281318421Y-12107447D01*
X281318421Y-12107447D02*
X281546992Y-12107447D01*
X281546992Y-12107447D02*
X281661278Y-12164590D01*
X281661278Y-12164590D02*
X281718421Y-12221733D01*
X281718421Y-12221733D02*
X281775563Y-12336019D01*
X281775563Y-12336019D02*
X281775563Y-12678876D01*
X281775563Y-12678876D02*
X281718421Y-12793162D01*
X281718421Y-12793162D02*
X281661278Y-12850305D01*
X281661278Y-12850305D02*
X281546992Y-12907447D01*
X281546992Y-12907447D02*
X281318421Y-12907447D01*
X281318421Y-12907447D02*
X281204135Y-12850305D01*
X282804135Y-12907447D02*
X282804135Y-12278876D01*
X282804135Y-12278876D02*
X282746992Y-12164590D01*
X282746992Y-12164590D02*
X282632706Y-12107447D01*
X282632706Y-12107447D02*
X282404135Y-12107447D01*
X282404135Y-12107447D02*
X282289849Y-12164590D01*
X282804135Y-12850305D02*
X282689849Y-12907447D01*
X282689849Y-12907447D02*
X282404135Y-12907447D01*
X282404135Y-12907447D02*
X282289849Y-12850305D01*
X282289849Y-12850305D02*
X282232706Y-12736019D01*
X282232706Y-12736019D02*
X282232706Y-12621733D01*
X282232706Y-12621733D02*
X282289849Y-12507447D01*
X282289849Y-12507447D02*
X282404135Y-12450305D01*
X282404135Y-12450305D02*
X282689849Y-12450305D01*
X282689849Y-12450305D02*
X282804135Y-12393162D01*
X283204134Y-12107447D02*
X283661277Y-12107447D01*
X283375563Y-11707447D02*
X283375563Y-12736019D01*
X283375563Y-12736019D02*
X283432706Y-12850305D01*
X283432706Y-12850305D02*
X283546991Y-12907447D01*
X283546991Y-12907447D02*
X283661277Y-12907447D01*
X284061277Y-12907447D02*
X284061277Y-11707447D01*
X284575563Y-12907447D02*
X284575563Y-12278876D01*
X284575563Y-12278876D02*
X284518420Y-12164590D01*
X284518420Y-12164590D02*
X284404134Y-12107447D01*
X284404134Y-12107447D02*
X284232705Y-12107447D01*
X284232705Y-12107447D02*
X284118420Y-12164590D01*
X284118420Y-12164590D02*
X284061277Y-12221733D01*
X286404134Y-13364590D02*
X286346991Y-13307447D01*
X286346991Y-13307447D02*
X286232705Y-13136019D01*
X286232705Y-13136019D02*
X286175563Y-13021733D01*
X286175563Y-13021733D02*
X286118420Y-12850305D01*
X286118420Y-12850305D02*
X286061277Y-12564590D01*
X286061277Y-12564590D02*
X286061277Y-12336019D01*
X286061277Y-12336019D02*
X286118420Y-12050305D01*
X286118420Y-12050305D02*
X286175563Y-11878876D01*
X286175563Y-11878876D02*
X286232705Y-11764590D01*
X286232705Y-11764590D02*
X286346991Y-11593162D01*
X286346991Y-11593162D02*
X286404134Y-11536019D01*
X287489848Y-12907447D02*
X286804134Y-12907447D01*
X287146991Y-12907447D02*
X287146991Y-11707447D01*
X287146991Y-11707447D02*
X287032705Y-11878876D01*
X287032705Y-11878876D02*
X286918420Y-11993162D01*
X286918420Y-11993162D02*
X286804134Y-12050305D01*
X288518420Y-12107447D02*
X288518420Y-12907447D01*
X288232705Y-11650305D02*
X287946991Y-12507447D01*
X287946991Y-12507447D02*
X288689848Y-12507447D01*
X289375562Y-11707447D02*
X289489848Y-11707447D01*
X289489848Y-11707447D02*
X289604134Y-11764590D01*
X289604134Y-11764590D02*
X289661277Y-11821733D01*
X289661277Y-11821733D02*
X289718419Y-11936019D01*
X289718419Y-11936019D02*
X289775562Y-12164590D01*
X289775562Y-12164590D02*
X289775562Y-12450305D01*
X289775562Y-12450305D02*
X289718419Y-12678876D01*
X289718419Y-12678876D02*
X289661277Y-12793162D01*
X289661277Y-12793162D02*
X289604134Y-12850305D01*
X289604134Y-12850305D02*
X289489848Y-12907447D01*
X289489848Y-12907447D02*
X289375562Y-12907447D01*
X289375562Y-12907447D02*
X289261277Y-12850305D01*
X289261277Y-12850305D02*
X289204134Y-12793162D01*
X289204134Y-12793162D02*
X289146991Y-12678876D01*
X289146991Y-12678876D02*
X289089848Y-12450305D01*
X289089848Y-12450305D02*
X289089848Y-12164590D01*
X289089848Y-12164590D02*
X289146991Y-11936019D01*
X289146991Y-11936019D02*
X289204134Y-11821733D01*
X289204134Y-11821733D02*
X289261277Y-11764590D01*
X289261277Y-11764590D02*
X289375562Y-11707447D01*
X291146991Y-12564590D02*
X291718420Y-12564590D01*
X291032705Y-12907447D02*
X291432705Y-11707447D01*
X291432705Y-11707447D02*
X291832705Y-12907447D01*
X293146991Y-12107447D02*
X293146991Y-13307447D01*
X293146991Y-12164590D02*
X293261277Y-12107447D01*
X293261277Y-12107447D02*
X293489848Y-12107447D01*
X293489848Y-12107447D02*
X293604134Y-12164590D01*
X293604134Y-12164590D02*
X293661277Y-12221733D01*
X293661277Y-12221733D02*
X293718419Y-12336019D01*
X293718419Y-12336019D02*
X293718419Y-12678876D01*
X293718419Y-12678876D02*
X293661277Y-12793162D01*
X293661277Y-12793162D02*
X293604134Y-12850305D01*
X293604134Y-12850305D02*
X293489848Y-12907447D01*
X293489848Y-12907447D02*
X293261277Y-12907447D01*
X293261277Y-12907447D02*
X293146991Y-12850305D01*
X294689848Y-12850305D02*
X294575562Y-12907447D01*
X294575562Y-12907447D02*
X294346991Y-12907447D01*
X294346991Y-12907447D02*
X294232705Y-12850305D01*
X294232705Y-12850305D02*
X294175562Y-12736019D01*
X294175562Y-12736019D02*
X294175562Y-12278876D01*
X294175562Y-12278876D02*
X294232705Y-12164590D01*
X294232705Y-12164590D02*
X294346991Y-12107447D01*
X294346991Y-12107447D02*
X294575562Y-12107447D01*
X294575562Y-12107447D02*
X294689848Y-12164590D01*
X294689848Y-12164590D02*
X294746991Y-12278876D01*
X294746991Y-12278876D02*
X294746991Y-12393162D01*
X294746991Y-12393162D02*
X294175562Y-12507447D01*
X295775562Y-12907447D02*
X295775562Y-12278876D01*
X295775562Y-12278876D02*
X295718419Y-12164590D01*
X295718419Y-12164590D02*
X295604133Y-12107447D01*
X295604133Y-12107447D02*
X295375562Y-12107447D01*
X295375562Y-12107447D02*
X295261276Y-12164590D01*
X295775562Y-12850305D02*
X295661276Y-12907447D01*
X295661276Y-12907447D02*
X295375562Y-12907447D01*
X295375562Y-12907447D02*
X295261276Y-12850305D01*
X295261276Y-12850305D02*
X295204133Y-12736019D01*
X295204133Y-12736019D02*
X295204133Y-12621733D01*
X295204133Y-12621733D02*
X295261276Y-12507447D01*
X295261276Y-12507447D02*
X295375562Y-12450305D01*
X295375562Y-12450305D02*
X295661276Y-12450305D01*
X295661276Y-12450305D02*
X295775562Y-12393162D01*
X296346990Y-12907447D02*
X296346990Y-11707447D01*
X296461276Y-12450305D02*
X296804133Y-12907447D01*
X296804133Y-12107447D02*
X296346990Y-12564590D01*
X297204133Y-13364590D02*
X297261276Y-13307447D01*
X297261276Y-13307447D02*
X297375562Y-13136019D01*
X297375562Y-13136019D02*
X297432705Y-13021733D01*
X297432705Y-13021733D02*
X297489847Y-12850305D01*
X297489847Y-12850305D02*
X297546990Y-12564590D01*
X297546990Y-12564590D02*
X297546990Y-12336019D01*
X297546990Y-12336019D02*
X297489847Y-12050305D01*
X297489847Y-12050305D02*
X297432705Y-11878876D01*
X297432705Y-11878876D02*
X297375562Y-11764590D01*
X297375562Y-11764590D02*
X297261276Y-11593162D01*
X297261276Y-11593162D02*
X297204133Y-11536019D01*
X298175562Y-12850305D02*
X298175562Y-12907447D01*
X298175562Y-12907447D02*
X298118419Y-13021733D01*
X298118419Y-13021733D02*
X298061276Y-13078876D01*
X298118419Y-12164590D02*
X298175562Y-12221733D01*
X298175562Y-12221733D02*
X298118419Y-12278876D01*
X298118419Y-12278876D02*
X298061276Y-12221733D01*
X298061276Y-12221733D02*
X298118419Y-12164590D01*
X298118419Y-12164590D02*
X298118419Y-12278876D01*
X299546991Y-11821733D02*
X299604134Y-11764590D01*
X299604134Y-11764590D02*
X299718420Y-11707447D01*
X299718420Y-11707447D02*
X300004134Y-11707447D01*
X300004134Y-11707447D02*
X300118420Y-11764590D01*
X300118420Y-11764590D02*
X300175562Y-11821733D01*
X300175562Y-11821733D02*
X300232705Y-11936019D01*
X300232705Y-11936019D02*
X300232705Y-12050305D01*
X300232705Y-12050305D02*
X300175562Y-12221733D01*
X300175562Y-12221733D02*
X299489848Y-12907447D01*
X299489848Y-12907447D02*
X300232705Y-12907447D01*
X301832705Y-12907447D02*
X301718420Y-12850305D01*
X301718420Y-12850305D02*
X301661277Y-12793162D01*
X301661277Y-12793162D02*
X301604134Y-12678876D01*
X301604134Y-12678876D02*
X301604134Y-12336019D01*
X301604134Y-12336019D02*
X301661277Y-12221733D01*
X301661277Y-12221733D02*
X301718420Y-12164590D01*
X301718420Y-12164590D02*
X301832705Y-12107447D01*
X301832705Y-12107447D02*
X302004134Y-12107447D01*
X302004134Y-12107447D02*
X302118420Y-12164590D01*
X302118420Y-12164590D02*
X302175563Y-12221733D01*
X302175563Y-12221733D02*
X302232705Y-12336019D01*
X302232705Y-12336019D02*
X302232705Y-12678876D01*
X302232705Y-12678876D02*
X302175563Y-12793162D01*
X302175563Y-12793162D02*
X302118420Y-12850305D01*
X302118420Y-12850305D02*
X302004134Y-12907447D01*
X302004134Y-12907447D02*
X301832705Y-12907447D01*
X302632705Y-12107447D02*
X303261277Y-12107447D01*
X303261277Y-12107447D02*
X302632705Y-12907447D01*
X302632705Y-12907447D02*
X303261277Y-12907447D01*
X304518420Y-12107447D02*
X304746992Y-12907447D01*
X304746992Y-12907447D02*
X304975563Y-12336019D01*
X304975563Y-12336019D02*
X305204134Y-12907447D01*
X305204134Y-12907447D02*
X305432706Y-12107447D01*
X306061277Y-12907447D02*
X305946992Y-12850305D01*
X305946992Y-12850305D02*
X305889849Y-12793162D01*
X305889849Y-12793162D02*
X305832706Y-12678876D01*
X305832706Y-12678876D02*
X305832706Y-12336019D01*
X305832706Y-12336019D02*
X305889849Y-12221733D01*
X305889849Y-12221733D02*
X305946992Y-12164590D01*
X305946992Y-12164590D02*
X306061277Y-12107447D01*
X306061277Y-12107447D02*
X306232706Y-12107447D01*
X306232706Y-12107447D02*
X306346992Y-12164590D01*
X306346992Y-12164590D02*
X306404135Y-12221733D01*
X306404135Y-12221733D02*
X306461277Y-12336019D01*
X306461277Y-12336019D02*
X306461277Y-12678876D01*
X306461277Y-12678876D02*
X306404135Y-12793162D01*
X306404135Y-12793162D02*
X306346992Y-12850305D01*
X306346992Y-12850305D02*
X306232706Y-12907447D01*
X306232706Y-12907447D02*
X306061277Y-12907447D01*
X307489849Y-12107447D02*
X307489849Y-12907447D01*
X306975563Y-12107447D02*
X306975563Y-12736019D01*
X306975563Y-12736019D02*
X307032706Y-12850305D01*
X307032706Y-12850305D02*
X307146991Y-12907447D01*
X307146991Y-12907447D02*
X307318420Y-12907447D01*
X307318420Y-12907447D02*
X307432706Y-12850305D01*
X307432706Y-12850305D02*
X307489849Y-12793162D01*
X308232705Y-12907447D02*
X308118420Y-12850305D01*
X308118420Y-12850305D02*
X308061277Y-12736019D01*
X308061277Y-12736019D02*
X308061277Y-11707447D01*
X309204134Y-12907447D02*
X309204134Y-11707447D01*
X309204134Y-12850305D02*
X309089848Y-12907447D01*
X309089848Y-12907447D02*
X308861276Y-12907447D01*
X308861276Y-12907447D02*
X308746991Y-12850305D01*
X308746991Y-12850305D02*
X308689848Y-12793162D01*
X308689848Y-12793162D02*
X308632705Y-12678876D01*
X308632705Y-12678876D02*
X308632705Y-12336019D01*
X308632705Y-12336019D02*
X308689848Y-12221733D01*
X308689848Y-12221733D02*
X308746991Y-12164590D01*
X308746991Y-12164590D02*
X308861276Y-12107447D01*
X308861276Y-12107447D02*
X309089848Y-12107447D01*
X309089848Y-12107447D02*
X309204134Y-12164590D01*
X310689848Y-12907447D02*
X310689848Y-11707447D01*
X310689848Y-12164590D02*
X310804134Y-12107447D01*
X310804134Y-12107447D02*
X311032705Y-12107447D01*
X311032705Y-12107447D02*
X311146991Y-12164590D01*
X311146991Y-12164590D02*
X311204134Y-12221733D01*
X311204134Y-12221733D02*
X311261276Y-12336019D01*
X311261276Y-12336019D02*
X311261276Y-12678876D01*
X311261276Y-12678876D02*
X311204134Y-12793162D01*
X311204134Y-12793162D02*
X311146991Y-12850305D01*
X311146991Y-12850305D02*
X311032705Y-12907447D01*
X311032705Y-12907447D02*
X310804134Y-12907447D01*
X310804134Y-12907447D02*
X310689848Y-12850305D01*
X312232705Y-12850305D02*
X312118419Y-12907447D01*
X312118419Y-12907447D02*
X311889848Y-12907447D01*
X311889848Y-12907447D02*
X311775562Y-12850305D01*
X311775562Y-12850305D02*
X311718419Y-12736019D01*
X311718419Y-12736019D02*
X311718419Y-12278876D01*
X311718419Y-12278876D02*
X311775562Y-12164590D01*
X311775562Y-12164590D02*
X311889848Y-12107447D01*
X311889848Y-12107447D02*
X312118419Y-12107447D01*
X312118419Y-12107447D02*
X312232705Y-12164590D01*
X312232705Y-12164590D02*
X312289848Y-12278876D01*
X312289848Y-12278876D02*
X312289848Y-12393162D01*
X312289848Y-12393162D02*
X311718419Y-12507447D01*
X313546990Y-12450305D02*
X313604133Y-12393162D01*
X313604133Y-12393162D02*
X313718419Y-12336019D01*
X313718419Y-12336019D02*
X313946990Y-12450305D01*
X313946990Y-12450305D02*
X314061276Y-12393162D01*
X314061276Y-12393162D02*
X314118419Y-12336019D01*
X315204133Y-12907447D02*
X314518419Y-12907447D01*
X314861276Y-12907447D02*
X314861276Y-11707447D01*
X314861276Y-11707447D02*
X314746990Y-11878876D01*
X314746990Y-11878876D02*
X314632705Y-11993162D01*
X314632705Y-11993162D02*
X314518419Y-12050305D01*
X315718419Y-12793162D02*
X315775562Y-12850305D01*
X315775562Y-12850305D02*
X315718419Y-12907447D01*
X315718419Y-12907447D02*
X315661276Y-12850305D01*
X315661276Y-12850305D02*
X315718419Y-12793162D01*
X315718419Y-12793162D02*
X315718419Y-12907447D01*
X316346991Y-12907447D02*
X316575562Y-12907447D01*
X316575562Y-12907447D02*
X316689848Y-12850305D01*
X316689848Y-12850305D02*
X316746991Y-12793162D01*
X316746991Y-12793162D02*
X316861276Y-12621733D01*
X316861276Y-12621733D02*
X316918419Y-12393162D01*
X316918419Y-12393162D02*
X316918419Y-11936019D01*
X316918419Y-11936019D02*
X316861276Y-11821733D01*
X316861276Y-11821733D02*
X316804134Y-11764590D01*
X316804134Y-11764590D02*
X316689848Y-11707447D01*
X316689848Y-11707447D02*
X316461276Y-11707447D01*
X316461276Y-11707447D02*
X316346991Y-11764590D01*
X316346991Y-11764590D02*
X316289848Y-11821733D01*
X316289848Y-11821733D02*
X316232705Y-11936019D01*
X316232705Y-11936019D02*
X316232705Y-12221733D01*
X316232705Y-12221733D02*
X316289848Y-12336019D01*
X316289848Y-12336019D02*
X316346991Y-12393162D01*
X316346991Y-12393162D02*
X316461276Y-12450305D01*
X316461276Y-12450305D02*
X316689848Y-12450305D01*
X316689848Y-12450305D02*
X316804134Y-12393162D01*
X316804134Y-12393162D02*
X316861276Y-12336019D01*
X316861276Y-12336019D02*
X316918419Y-12221733D01*
X318346991Y-12907447D02*
X318346991Y-12107447D01*
X318346991Y-12221733D02*
X318404134Y-12164590D01*
X318404134Y-12164590D02*
X318518419Y-12107447D01*
X318518419Y-12107447D02*
X318689848Y-12107447D01*
X318689848Y-12107447D02*
X318804134Y-12164590D01*
X318804134Y-12164590D02*
X318861277Y-12278876D01*
X318861277Y-12278876D02*
X318861277Y-12907447D01*
X318861277Y-12278876D02*
X318918419Y-12164590D01*
X318918419Y-12164590D02*
X319032705Y-12107447D01*
X319032705Y-12107447D02*
X319204134Y-12107447D01*
X319204134Y-12107447D02*
X319318419Y-12164590D01*
X319318419Y-12164590D02*
X319375562Y-12278876D01*
X319375562Y-12278876D02*
X319375562Y-12907447D01*
X320175562Y-11707447D02*
X320404134Y-11707447D01*
X320404134Y-11707447D02*
X320518419Y-11764590D01*
X320518419Y-11764590D02*
X320632705Y-11878876D01*
X320632705Y-11878876D02*
X320689848Y-12107447D01*
X320689848Y-12107447D02*
X320689848Y-12507447D01*
X320689848Y-12507447D02*
X320632705Y-12736019D01*
X320632705Y-12736019D02*
X320518419Y-12850305D01*
X320518419Y-12850305D02*
X320404134Y-12907447D01*
X320404134Y-12907447D02*
X320175562Y-12907447D01*
X320175562Y-12907447D02*
X320061277Y-12850305D01*
X320061277Y-12850305D02*
X319946991Y-12736019D01*
X319946991Y-12736019D02*
X319889848Y-12507447D01*
X319889848Y-12507447D02*
X319889848Y-12107447D01*
X319889848Y-12107447D02*
X319946991Y-11878876D01*
X319946991Y-11878876D02*
X320061277Y-11764590D01*
X320061277Y-11764590D02*
X320175562Y-11707447D01*
X321204134Y-12907447D02*
X321204134Y-11707447D01*
X321718420Y-12907447D02*
X321718420Y-12278876D01*
X321718420Y-12278876D02*
X321661277Y-12164590D01*
X321661277Y-12164590D02*
X321546991Y-12107447D01*
X321546991Y-12107447D02*
X321375562Y-12107447D01*
X321375562Y-12107447D02*
X321261277Y-12164590D01*
X321261277Y-12164590D02*
X321204134Y-12221733D01*
X322289848Y-12907447D02*
X322289848Y-12107447D01*
X322289848Y-12221733D02*
X322346991Y-12164590D01*
X322346991Y-12164590D02*
X322461276Y-12107447D01*
X322461276Y-12107447D02*
X322632705Y-12107447D01*
X322632705Y-12107447D02*
X322746991Y-12164590D01*
X322746991Y-12164590D02*
X322804134Y-12278876D01*
X322804134Y-12278876D02*
X322804134Y-12907447D01*
X322804134Y-12278876D02*
X322861276Y-12164590D01*
X322861276Y-12164590D02*
X322975562Y-12107447D01*
X322975562Y-12107447D02*
X323146991Y-12107447D01*
X323146991Y-12107447D02*
X323261276Y-12164590D01*
X323261276Y-12164590D02*
X323318419Y-12278876D01*
X323318419Y-12278876D02*
X323318419Y-12907447D01*
X324804134Y-12278876D02*
X325718420Y-12278876D01*
X325718420Y-12621733D02*
X324804134Y-12621733D01*
X327089848Y-11707447D02*
X327832705Y-11707447D01*
X327832705Y-11707447D02*
X327432705Y-12164590D01*
X327432705Y-12164590D02*
X327604134Y-12164590D01*
X327604134Y-12164590D02*
X327718420Y-12221733D01*
X327718420Y-12221733D02*
X327775562Y-12278876D01*
X327775562Y-12278876D02*
X327832705Y-12393162D01*
X327832705Y-12393162D02*
X327832705Y-12678876D01*
X327832705Y-12678876D02*
X327775562Y-12793162D01*
X327775562Y-12793162D02*
X327718420Y-12850305D01*
X327718420Y-12850305D02*
X327604134Y-12907447D01*
X327604134Y-12907447D02*
X327261277Y-12907447D01*
X327261277Y-12907447D02*
X327146991Y-12850305D01*
X327146991Y-12850305D02*
X327089848Y-12793162D01*
X328232705Y-11707447D02*
X329032705Y-11707447D01*
X329032705Y-11707447D02*
X328518419Y-12907447D01*
X330289848Y-11707447D02*
X330575562Y-12907447D01*
X330575562Y-12907447D02*
X330804134Y-12050305D01*
X330804134Y-12050305D02*
X331032705Y-12907447D01*
X331032705Y-12907447D02*
X331318420Y-11707447D01*
X331775563Y-12793162D02*
X331832706Y-12850305D01*
X331832706Y-12850305D02*
X331775563Y-12907447D01*
X331775563Y-12907447D02*
X331718420Y-12850305D01*
X331718420Y-12850305D02*
X331775563Y-12793162D01*
X331775563Y-12793162D02*
X331775563Y-12907447D01*
D11*
X32083333Y-20859580D02*
X32035714Y-20907200D01*
X32035714Y-20907200D02*
X31892857Y-20954819D01*
X31892857Y-20954819D02*
X31797619Y-20954819D01*
X31797619Y-20954819D02*
X31654762Y-20907200D01*
X31654762Y-20907200D02*
X31559524Y-20811961D01*
X31559524Y-20811961D02*
X31511905Y-20716723D01*
X31511905Y-20716723D02*
X31464286Y-20526247D01*
X31464286Y-20526247D02*
X31464286Y-20383390D01*
X31464286Y-20383390D02*
X31511905Y-20192914D01*
X31511905Y-20192914D02*
X31559524Y-20097676D01*
X31559524Y-20097676D02*
X31654762Y-20002438D01*
X31654762Y-20002438D02*
X31797619Y-19954819D01*
X31797619Y-19954819D02*
X31892857Y-19954819D01*
X31892857Y-19954819D02*
X32035714Y-20002438D01*
X32035714Y-20002438D02*
X32083333Y-20050057D01*
X33035714Y-20954819D02*
X32464286Y-20954819D01*
X32750000Y-20954819D02*
X32750000Y-19954819D01*
X32750000Y-19954819D02*
X32654762Y-20097676D01*
X32654762Y-20097676D02*
X32559524Y-20192914D01*
X32559524Y-20192914D02*
X32464286Y-20240533D01*
X151083333Y-20859580D02*
X151035714Y-20907200D01*
X151035714Y-20907200D02*
X150892857Y-20954819D01*
X150892857Y-20954819D02*
X150797619Y-20954819D01*
X150797619Y-20954819D02*
X150654762Y-20907200D01*
X150654762Y-20907200D02*
X150559524Y-20811961D01*
X150559524Y-20811961D02*
X150511905Y-20716723D01*
X150511905Y-20716723D02*
X150464286Y-20526247D01*
X150464286Y-20526247D02*
X150464286Y-20383390D01*
X150464286Y-20383390D02*
X150511905Y-20192914D01*
X150511905Y-20192914D02*
X150559524Y-20097676D01*
X150559524Y-20097676D02*
X150654762Y-20002438D01*
X150654762Y-20002438D02*
X150797619Y-19954819D01*
X150797619Y-19954819D02*
X150892857Y-19954819D01*
X150892857Y-19954819D02*
X151035714Y-20002438D01*
X151035714Y-20002438D02*
X151083333Y-20050057D01*
X151416667Y-19954819D02*
X152035714Y-19954819D01*
X152035714Y-19954819D02*
X151702381Y-20335771D01*
X151702381Y-20335771D02*
X151845238Y-20335771D01*
X151845238Y-20335771D02*
X151940476Y-20383390D01*
X151940476Y-20383390D02*
X151988095Y-20431009D01*
X151988095Y-20431009D02*
X152035714Y-20526247D01*
X152035714Y-20526247D02*
X152035714Y-20764342D01*
X152035714Y-20764342D02*
X151988095Y-20859580D01*
X151988095Y-20859580D02*
X151940476Y-20907200D01*
X151940476Y-20907200D02*
X151845238Y-20954819D01*
X151845238Y-20954819D02*
X151559524Y-20954819D01*
X151559524Y-20954819D02*
X151464286Y-20907200D01*
X151464286Y-20907200D02*
X151416667Y-20859580D01*
X296928571Y-2981009D02*
X296595238Y-2981009D01*
X296595238Y-3504819D02*
X296595238Y-2504819D01*
X296595238Y-2504819D02*
X297071428Y-2504819D01*
X297452381Y-3504819D02*
X297452381Y-2504819D01*
X297928571Y-3504819D02*
X297928571Y-2504819D01*
X297928571Y-2504819D02*
X298166666Y-2504819D01*
X298166666Y-2504819D02*
X298309523Y-2552438D01*
X298309523Y-2552438D02*
X298404761Y-2647676D01*
X298404761Y-2647676D02*
X298452380Y-2742914D01*
X298452380Y-2742914D02*
X298499999Y-2933390D01*
X298499999Y-2933390D02*
X298499999Y-3076247D01*
X298499999Y-3076247D02*
X298452380Y-3266723D01*
X298452380Y-3266723D02*
X298404761Y-3361961D01*
X298404761Y-3361961D02*
X298309523Y-3457200D01*
X298309523Y-3457200D02*
X298166666Y-3504819D01*
X298166666Y-3504819D02*
X297928571Y-3504819D01*
X298833333Y-2504819D02*
X299452380Y-2504819D01*
X299452380Y-2504819D02*
X299119047Y-2885771D01*
X299119047Y-2885771D02*
X299261904Y-2885771D01*
X299261904Y-2885771D02*
X299357142Y-2933390D01*
X299357142Y-2933390D02*
X299404761Y-2981009D01*
X299404761Y-2981009D02*
X299452380Y-3076247D01*
X299452380Y-3076247D02*
X299452380Y-3314342D01*
X299452380Y-3314342D02*
X299404761Y-3409580D01*
X299404761Y-3409580D02*
X299357142Y-3457200D01*
X299357142Y-3457200D02*
X299261904Y-3504819D01*
X299261904Y-3504819D02*
X298976190Y-3504819D01*
X298976190Y-3504819D02*
X298880952Y-3457200D01*
X298880952Y-3457200D02*
X298833333Y-3409580D01*
X106666666Y-17954819D02*
X106666666Y-18669104D01*
X106666666Y-18669104D02*
X106619047Y-18811961D01*
X106619047Y-18811961D02*
X106523809Y-18907200D01*
X106523809Y-18907200D02*
X106380952Y-18954819D01*
X106380952Y-18954819D02*
X106285714Y-18954819D01*
X107095238Y-18050057D02*
X107142857Y-18002438D01*
X107142857Y-18002438D02*
X107238095Y-17954819D01*
X107238095Y-17954819D02*
X107476190Y-17954819D01*
X107476190Y-17954819D02*
X107571428Y-18002438D01*
X107571428Y-18002438D02*
X107619047Y-18050057D01*
X107619047Y-18050057D02*
X107666666Y-18145295D01*
X107666666Y-18145295D02*
X107666666Y-18240533D01*
X107666666Y-18240533D02*
X107619047Y-18383390D01*
X107619047Y-18383390D02*
X107047619Y-18954819D01*
X107047619Y-18954819D02*
X107666666Y-18954819D01*
X270083333Y-20859580D02*
X270035714Y-20907200D01*
X270035714Y-20907200D02*
X269892857Y-20954819D01*
X269892857Y-20954819D02*
X269797619Y-20954819D01*
X269797619Y-20954819D02*
X269654762Y-20907200D01*
X269654762Y-20907200D02*
X269559524Y-20811961D01*
X269559524Y-20811961D02*
X269511905Y-20716723D01*
X269511905Y-20716723D02*
X269464286Y-20526247D01*
X269464286Y-20526247D02*
X269464286Y-20383390D01*
X269464286Y-20383390D02*
X269511905Y-20192914D01*
X269511905Y-20192914D02*
X269559524Y-20097676D01*
X269559524Y-20097676D02*
X269654762Y-20002438D01*
X269654762Y-20002438D02*
X269797619Y-19954819D01*
X269797619Y-19954819D02*
X269892857Y-19954819D01*
X269892857Y-19954819D02*
X270035714Y-20002438D01*
X270035714Y-20002438D02*
X270083333Y-20050057D01*
X270988095Y-19954819D02*
X270511905Y-19954819D01*
X270511905Y-19954819D02*
X270464286Y-20431009D01*
X270464286Y-20431009D02*
X270511905Y-20383390D01*
X270511905Y-20383390D02*
X270607143Y-20335771D01*
X270607143Y-20335771D02*
X270845238Y-20335771D01*
X270845238Y-20335771D02*
X270940476Y-20383390D01*
X270940476Y-20383390D02*
X270988095Y-20431009D01*
X270988095Y-20431009D02*
X271035714Y-20526247D01*
X271035714Y-20526247D02*
X271035714Y-20764342D01*
X271035714Y-20764342D02*
X270988095Y-20859580D01*
X270988095Y-20859580D02*
X270940476Y-20907200D01*
X270940476Y-20907200D02*
X270845238Y-20954819D01*
X270845238Y-20954819D02*
X270607143Y-20954819D01*
X270607143Y-20954819D02*
X270511905Y-20907200D01*
X270511905Y-20907200D02*
X270464286Y-20859580D01*
X59666666Y-19254819D02*
X59666666Y-19969104D01*
X59666666Y-19969104D02*
X59619047Y-20111961D01*
X59619047Y-20111961D02*
X59523809Y-20207200D01*
X59523809Y-20207200D02*
X59380952Y-20254819D01*
X59380952Y-20254819D02*
X59285714Y-20254819D01*
X60666666Y-20254819D02*
X60095238Y-20254819D01*
X60380952Y-20254819D02*
X60380952Y-19254819D01*
X60380952Y-19254819D02*
X60285714Y-19397676D01*
X60285714Y-19397676D02*
X60190476Y-19492914D01*
X60190476Y-19492914D02*
X60095238Y-19540533D01*
X91583333Y-20859580D02*
X91535714Y-20907200D01*
X91535714Y-20907200D02*
X91392857Y-20954819D01*
X91392857Y-20954819D02*
X91297619Y-20954819D01*
X91297619Y-20954819D02*
X91154762Y-20907200D01*
X91154762Y-20907200D02*
X91059524Y-20811961D01*
X91059524Y-20811961D02*
X91011905Y-20716723D01*
X91011905Y-20716723D02*
X90964286Y-20526247D01*
X90964286Y-20526247D02*
X90964286Y-20383390D01*
X90964286Y-20383390D02*
X91011905Y-20192914D01*
X91011905Y-20192914D02*
X91059524Y-20097676D01*
X91059524Y-20097676D02*
X91154762Y-20002438D01*
X91154762Y-20002438D02*
X91297619Y-19954819D01*
X91297619Y-19954819D02*
X91392857Y-19954819D01*
X91392857Y-19954819D02*
X91535714Y-20002438D01*
X91535714Y-20002438D02*
X91583333Y-20050057D01*
X91964286Y-20050057D02*
X92011905Y-20002438D01*
X92011905Y-20002438D02*
X92107143Y-19954819D01*
X92107143Y-19954819D02*
X92345238Y-19954819D01*
X92345238Y-19954819D02*
X92440476Y-20002438D01*
X92440476Y-20002438D02*
X92488095Y-20050057D01*
X92488095Y-20050057D02*
X92535714Y-20145295D01*
X92535714Y-20145295D02*
X92535714Y-20240533D01*
X92535714Y-20240533D02*
X92488095Y-20383390D01*
X92488095Y-20383390D02*
X91916667Y-20954819D01*
X91916667Y-20954819D02*
X92535714Y-20954819D01*
X13238095Y-7454819D02*
X13238095Y-6454819D01*
X13238095Y-6931009D02*
X13809523Y-6931009D01*
X13809523Y-7454819D02*
X13809523Y-6454819D01*
X14809523Y-7454819D02*
X14238095Y-7454819D01*
X14523809Y-7454819D02*
X14523809Y-6454819D01*
X14523809Y-6454819D02*
X14428571Y-6597676D01*
X14428571Y-6597676D02*
X14333333Y-6692914D01*
X14333333Y-6692914D02*
X14238095Y-6740533D01*
X18928571Y-90981009D02*
X18595238Y-90981009D01*
X18595238Y-91504819D02*
X18595238Y-90504819D01*
X18595238Y-90504819D02*
X19071428Y-90504819D01*
X19452381Y-91504819D02*
X19452381Y-90504819D01*
X19928571Y-91504819D02*
X19928571Y-90504819D01*
X19928571Y-90504819D02*
X20166666Y-90504819D01*
X20166666Y-90504819D02*
X20309523Y-90552438D01*
X20309523Y-90552438D02*
X20404761Y-90647676D01*
X20404761Y-90647676D02*
X20452380Y-90742914D01*
X20452380Y-90742914D02*
X20499999Y-90933390D01*
X20499999Y-90933390D02*
X20499999Y-91076247D01*
X20499999Y-91076247D02*
X20452380Y-91266723D01*
X20452380Y-91266723D02*
X20404761Y-91361961D01*
X20404761Y-91361961D02*
X20309523Y-91457200D01*
X20309523Y-91457200D02*
X20166666Y-91504819D01*
X20166666Y-91504819D02*
X19928571Y-91504819D01*
X21452380Y-91504819D02*
X20880952Y-91504819D01*
X21166666Y-91504819D02*
X21166666Y-90504819D01*
X21166666Y-90504819D02*
X21071428Y-90647676D01*
X21071428Y-90647676D02*
X20976190Y-90742914D01*
X20976190Y-90742914D02*
X20880952Y-90790533D01*
X13238095Y-93454819D02*
X13238095Y-92454819D01*
X13238095Y-92931009D02*
X13809523Y-92931009D01*
X13809523Y-93454819D02*
X13809523Y-92454819D01*
X14190476Y-92454819D02*
X14809523Y-92454819D01*
X14809523Y-92454819D02*
X14476190Y-92835771D01*
X14476190Y-92835771D02*
X14619047Y-92835771D01*
X14619047Y-92835771D02*
X14714285Y-92883390D01*
X14714285Y-92883390D02*
X14761904Y-92931009D01*
X14761904Y-92931009D02*
X14809523Y-93026247D01*
X14809523Y-93026247D02*
X14809523Y-93264342D01*
X14809523Y-93264342D02*
X14761904Y-93359580D01*
X14761904Y-93359580D02*
X14714285Y-93407200D01*
X14714285Y-93407200D02*
X14619047Y-93454819D01*
X14619047Y-93454819D02*
X14333333Y-93454819D01*
X14333333Y-93454819D02*
X14238095Y-93407200D01*
X14238095Y-93407200D02*
X14190476Y-93359580D01*
X282206666Y-88954819D02*
X282206666Y-89669104D01*
X282206666Y-89669104D02*
X282159047Y-89811961D01*
X282159047Y-89811961D02*
X282063809Y-89907200D01*
X282063809Y-89907200D02*
X281920952Y-89954819D01*
X281920952Y-89954819D02*
X281825714Y-89954819D01*
X282730476Y-89954819D02*
X282920952Y-89954819D01*
X282920952Y-89954819D02*
X283016190Y-89907200D01*
X283016190Y-89907200D02*
X283063809Y-89859580D01*
X283063809Y-89859580D02*
X283159047Y-89716723D01*
X283159047Y-89716723D02*
X283206666Y-89526247D01*
X283206666Y-89526247D02*
X283206666Y-89145295D01*
X283206666Y-89145295D02*
X283159047Y-89050057D01*
X283159047Y-89050057D02*
X283111428Y-89002438D01*
X283111428Y-89002438D02*
X283016190Y-88954819D01*
X283016190Y-88954819D02*
X282825714Y-88954819D01*
X282825714Y-88954819D02*
X282730476Y-89002438D01*
X282730476Y-89002438D02*
X282682857Y-89050057D01*
X282682857Y-89050057D02*
X282635238Y-89145295D01*
X282635238Y-89145295D02*
X282635238Y-89383390D01*
X282635238Y-89383390D02*
X282682857Y-89478628D01*
X282682857Y-89478628D02*
X282730476Y-89526247D01*
X282730476Y-89526247D02*
X282825714Y-89573866D01*
X282825714Y-89573866D02*
X283016190Y-89573866D01*
X283016190Y-89573866D02*
X283111428Y-89526247D01*
X283111428Y-89526247D02*
X283159047Y-89478628D01*
X283159047Y-89478628D02*
X283206666Y-89383390D01*
X210583333Y-20859580D02*
X210535714Y-20907200D01*
X210535714Y-20907200D02*
X210392857Y-20954819D01*
X210392857Y-20954819D02*
X210297619Y-20954819D01*
X210297619Y-20954819D02*
X210154762Y-20907200D01*
X210154762Y-20907200D02*
X210059524Y-20811961D01*
X210059524Y-20811961D02*
X210011905Y-20716723D01*
X210011905Y-20716723D02*
X209964286Y-20526247D01*
X209964286Y-20526247D02*
X209964286Y-20383390D01*
X209964286Y-20383390D02*
X210011905Y-20192914D01*
X210011905Y-20192914D02*
X210059524Y-20097676D01*
X210059524Y-20097676D02*
X210154762Y-20002438D01*
X210154762Y-20002438D02*
X210297619Y-19954819D01*
X210297619Y-19954819D02*
X210392857Y-19954819D01*
X210392857Y-19954819D02*
X210535714Y-20002438D01*
X210535714Y-20002438D02*
X210583333Y-20050057D01*
X211440476Y-20288152D02*
X211440476Y-20954819D01*
X211202381Y-19907200D02*
X210964286Y-20621485D01*
X210964286Y-20621485D02*
X211583333Y-20621485D01*
X153666666Y-17954819D02*
X153666666Y-18669104D01*
X153666666Y-18669104D02*
X153619047Y-18811961D01*
X153619047Y-18811961D02*
X153523809Y-18907200D01*
X153523809Y-18907200D02*
X153380952Y-18954819D01*
X153380952Y-18954819D02*
X153285714Y-18954819D01*
X154047619Y-17954819D02*
X154666666Y-17954819D01*
X154666666Y-17954819D02*
X154333333Y-18335771D01*
X154333333Y-18335771D02*
X154476190Y-18335771D01*
X154476190Y-18335771D02*
X154571428Y-18383390D01*
X154571428Y-18383390D02*
X154619047Y-18431009D01*
X154619047Y-18431009D02*
X154666666Y-18526247D01*
X154666666Y-18526247D02*
X154666666Y-18764342D01*
X154666666Y-18764342D02*
X154619047Y-18859580D01*
X154619047Y-18859580D02*
X154571428Y-18907200D01*
X154571428Y-18907200D02*
X154476190Y-18954819D01*
X154476190Y-18954819D02*
X154190476Y-18954819D01*
X154190476Y-18954819D02*
X154095238Y-18907200D01*
X154095238Y-18907200D02*
X154047619Y-18859580D01*
X309666666Y-22454819D02*
X309666666Y-23169104D01*
X309666666Y-23169104D02*
X309619047Y-23311961D01*
X309619047Y-23311961D02*
X309523809Y-23407200D01*
X309523809Y-23407200D02*
X309380952Y-23454819D01*
X309380952Y-23454819D02*
X309285714Y-23454819D01*
X310571428Y-22788152D02*
X310571428Y-23454819D01*
X310333333Y-22407200D02*
X310095238Y-23121485D01*
X310095238Y-23121485D02*
X310714285Y-23121485D01*
X305238095Y-7454819D02*
X305238095Y-6454819D01*
X305238095Y-6931009D02*
X305809523Y-6931009D01*
X305809523Y-7454819D02*
X305809523Y-6454819D01*
X306238095Y-6550057D02*
X306285714Y-6502438D01*
X306285714Y-6502438D02*
X306380952Y-6454819D01*
X306380952Y-6454819D02*
X306619047Y-6454819D01*
X306619047Y-6454819D02*
X306714285Y-6502438D01*
X306714285Y-6502438D02*
X306761904Y-6550057D01*
X306761904Y-6550057D02*
X306809523Y-6645295D01*
X306809523Y-6645295D02*
X306809523Y-6740533D01*
X306809523Y-6740533D02*
X306761904Y-6883390D01*
X306761904Y-6883390D02*
X306190476Y-7454819D01*
X306190476Y-7454819D02*
X306809523Y-7454819D01*
X305238095Y-93454819D02*
X305238095Y-92454819D01*
X305238095Y-92931009D02*
X305809523Y-92931009D01*
X305809523Y-93454819D02*
X305809523Y-92454819D01*
X306714285Y-92788152D02*
X306714285Y-93454819D01*
X306476190Y-92407200D02*
X306238095Y-93121485D01*
X306238095Y-93121485D02*
X306857142Y-93121485D01*
X158928571Y-90981009D02*
X158595238Y-90981009D01*
X158595238Y-91504819D02*
X158595238Y-90504819D01*
X158595238Y-90504819D02*
X159071428Y-90504819D01*
X159452381Y-91504819D02*
X159452381Y-90504819D01*
X159928571Y-91504819D02*
X159928571Y-90504819D01*
X159928571Y-90504819D02*
X160166666Y-90504819D01*
X160166666Y-90504819D02*
X160309523Y-90552438D01*
X160309523Y-90552438D02*
X160404761Y-90647676D01*
X160404761Y-90647676D02*
X160452380Y-90742914D01*
X160452380Y-90742914D02*
X160499999Y-90933390D01*
X160499999Y-90933390D02*
X160499999Y-91076247D01*
X160499999Y-91076247D02*
X160452380Y-91266723D01*
X160452380Y-91266723D02*
X160404761Y-91361961D01*
X160404761Y-91361961D02*
X160309523Y-91457200D01*
X160309523Y-91457200D02*
X160166666Y-91504819D01*
X160166666Y-91504819D02*
X159928571Y-91504819D01*
X160880952Y-90600057D02*
X160928571Y-90552438D01*
X160928571Y-90552438D02*
X161023809Y-90504819D01*
X161023809Y-90504819D02*
X161261904Y-90504819D01*
X161261904Y-90504819D02*
X161357142Y-90552438D01*
X161357142Y-90552438D02*
X161404761Y-90600057D01*
X161404761Y-90600057D02*
X161452380Y-90695295D01*
X161452380Y-90695295D02*
X161452380Y-90790533D01*
X161452380Y-90790533D02*
X161404761Y-90933390D01*
X161404761Y-90933390D02*
X160833333Y-91504819D01*
X160833333Y-91504819D02*
X161452380Y-91504819D01*
X294730476Y-88954819D02*
X294730476Y-89669104D01*
X294730476Y-89669104D02*
X294682857Y-89811961D01*
X294682857Y-89811961D02*
X294587619Y-89907200D01*
X294587619Y-89907200D02*
X294444762Y-89954819D01*
X294444762Y-89954819D02*
X294349524Y-89954819D01*
X295730476Y-89954819D02*
X295159048Y-89954819D01*
X295444762Y-89954819D02*
X295444762Y-88954819D01*
X295444762Y-88954819D02*
X295349524Y-89097676D01*
X295349524Y-89097676D02*
X295254286Y-89192914D01*
X295254286Y-89192914D02*
X295159048Y-89240533D01*
X296349524Y-88954819D02*
X296444762Y-88954819D01*
X296444762Y-88954819D02*
X296540000Y-89002438D01*
X296540000Y-89002438D02*
X296587619Y-89050057D01*
X296587619Y-89050057D02*
X296635238Y-89145295D01*
X296635238Y-89145295D02*
X296682857Y-89335771D01*
X296682857Y-89335771D02*
X296682857Y-89573866D01*
X296682857Y-89573866D02*
X296635238Y-89764342D01*
X296635238Y-89764342D02*
X296587619Y-89859580D01*
X296587619Y-89859580D02*
X296540000Y-89907200D01*
X296540000Y-89907200D02*
X296444762Y-89954819D01*
X296444762Y-89954819D02*
X296349524Y-89954819D01*
X296349524Y-89954819D02*
X296254286Y-89907200D01*
X296254286Y-89907200D02*
X296206667Y-89859580D01*
X296206667Y-89859580D02*
X296159048Y-89764342D01*
X296159048Y-89764342D02*
X296111429Y-89573866D01*
X296111429Y-89573866D02*
X296111429Y-89335771D01*
X296111429Y-89335771D02*
X296159048Y-89145295D01*
X296159048Y-89145295D02*
X296206667Y-89050057D01*
X296206667Y-89050057D02*
X296254286Y-89002438D01*
X296254286Y-89002438D02*
X296349524Y-88954819D01*
%TO.C,C1*%
D12*
X3390000Y-22440000D02*
X61110000Y-22440000D01*
X61110000Y-88160000D01*
X3390000Y-88160000D01*
X3390000Y-22440000D01*
%TO.C,C3*%
X122390000Y-22440000D02*
X180110000Y-22440000D01*
X180110000Y-88160000D01*
X122390000Y-88160000D01*
X122390000Y-22440000D01*
%TO.C,J2*%
X113850000Y-9000000D02*
G75*
G02*
X100150000Y-9000000I-6850000J0D01*
G01*
X100150000Y-9000000D02*
G75*
G02*
X113850000Y-9000000I6850000J0D01*
G01*
%TO.C,C5*%
X241390000Y-22440000D02*
X299110000Y-22440000D01*
X299110000Y-88160000D01*
X241390000Y-88160000D01*
X241390000Y-22440000D01*
%TO.C,J1*%
X66850000Y-9000000D02*
G75*
G02*
X53150000Y-9000000I-6850000J0D01*
G01*
X53150000Y-9000000D02*
G75*
G02*
X66850000Y-9000000I6850000J0D01*
G01*
%TO.C,C2*%
X62890000Y-22440000D02*
X120610000Y-22440000D01*
X120610000Y-88160000D01*
X62890000Y-88160000D01*
X62890000Y-22440000D01*
%TO.C,J9*%
X277990000Y-90990000D02*
X287090000Y-90990000D01*
X287090000Y-95010000D01*
X277990000Y-95010000D01*
X277990000Y-90990000D01*
%TO.C,C4*%
X181890000Y-22440000D02*
X239610000Y-22440000D01*
X239610000Y-88160000D01*
X181890000Y-88160000D01*
X181890000Y-22440000D01*
%TO.C,J3*%
X160850000Y-9000000D02*
G75*
G02*
X147150000Y-9000000I-6850000J0D01*
G01*
X147150000Y-9000000D02*
G75*
G02*
X160850000Y-9000000I6850000J0D01*
G01*
%TO.C,J4*%
X316850000Y-32000000D02*
G75*
G02*
X303150000Y-32000000I-6850000J0D01*
G01*
X303150000Y-32000000D02*
G75*
G02*
X316850000Y-32000000I6850000J0D01*
G01*
%TO.C,J10*%
X290990000Y-90990000D02*
X300090000Y-90990000D01*
X300090000Y-95010000D01*
X290990000Y-95010000D01*
X290990000Y-90990000D01*
%TD*%
%LPC*%
D13*
%TO.C,C1*%
X6000000Y-35000000D03*
X6000000Y-55300000D03*
X6000000Y-75600000D03*
X58500000Y-35000000D03*
X58500000Y-55300000D03*
X58500000Y-75600000D03*
%TD*%
%TO.C,C3*%
X125000000Y-35000000D03*
X125000000Y-55300000D03*
X125000000Y-75600000D03*
X177500000Y-35000000D03*
X177500000Y-55300000D03*
X177500000Y-75600000D03*
%TD*%
D14*
%TO.C,FID3*%
X298000000Y-5000000D03*
%TD*%
D15*
%TO.C,J2*%
X107000000Y-9000000D03*
%TD*%
D13*
%TO.C,C5*%
X244000000Y-35000000D03*
X244000000Y-55300000D03*
X244000000Y-75600000D03*
X296500000Y-35000000D03*
X296500000Y-55300000D03*
X296500000Y-75600000D03*
%TD*%
D15*
%TO.C,J1*%
X60000000Y-9000000D03*
%TD*%
D13*
%TO.C,C2*%
X65500000Y-35000000D03*
X65500000Y-55300000D03*
X65500000Y-75600000D03*
X118000000Y-35000000D03*
X118000000Y-55300000D03*
X118000000Y-75600000D03*
%TD*%
D16*
%TO.C,H1*%
X8000000Y-7000000D03*
%TD*%
D14*
%TO.C,FID1*%
X20000000Y-93000000D03*
%TD*%
D16*
%TO.C,H3*%
X8000000Y-93000000D03*
%TD*%
D17*
%TO.C,J9*%
X280000000Y-93000000D03*
D18*
X285080000Y-93000000D03*
%TD*%
D13*
%TO.C,C4*%
X184500000Y-35000000D03*
X184500000Y-55300000D03*
X184500000Y-75600000D03*
X237000000Y-35000000D03*
X237000000Y-55300000D03*
X237000000Y-75600000D03*
%TD*%
D15*
%TO.C,J3*%
X154000000Y-9000000D03*
%TD*%
%TO.C,J4*%
X310000000Y-32000000D03*
%TD*%
D16*
%TO.C,H2*%
X312000000Y-7000000D03*
%TD*%
%TO.C,H4*%
X312000000Y-93000000D03*
%TD*%
D14*
%TO.C,FID2*%
X160000000Y-93000000D03*
%TD*%
D17*
%TO.C,J10*%
X293000000Y-93000000D03*
D18*
X298080000Y-93000000D03*
%TD*%
D15*
%TO.C,J8*%
X310000000Y-68000000D03*
%TD*%
%TO.C,J7*%
X177500000Y-9000000D03*
%TD*%
%TO.C,J5*%
X83500000Y-9000000D03*
%TD*%
%TO.C,J6*%
X130500000Y-9000000D03*
%TD*%
%LPD*%
M02*
