%TF.GenerationSoftware,KiCad,Pcbnew,9.0.6*%
%TF.CreationDate,2026-08-03T08:00:47-07:00*%
%TF.ProjectId,mcuc_dclink,6d637563-5f64-4636-9c69-6e6b2e6b6963,rev?*%
%TF.SameCoordinates,Original*%
%TF.FileFunction,Soldermask,Top*%
%TF.FilePolarity,Negative*%
%FSLAX46Y46*%
G04 Gerber Fmt 4.6, Leading zero omitted, Abs format (unit mm)*
G04 Created by KiCad (PCBNEW 9.0.6) date 2026-08-03 08:00:47*
%MOMM*%
%LPD*%
G01*
G04 APERTURE LIST*
%ADD10C,2.900000*%
%ADD11C,2.000000*%
%ADD12C,13.000000*%
%ADD13C,4.300000*%
%ADD14R,3.000000X3.000000*%
%ADD15C,3.000000*%
G04 APERTURE END LIST*
D10*
%TO.C,C1*%
X6000000Y-35000000D03*
X6000000Y-55300000D03*
X6000000Y-75600000D03*
X58500000Y-35000000D03*
X58500000Y-55300000D03*
X58500000Y-75600000D03*
%TD*%
%TO.C,C3*%
X125000000Y-35000000D03*
X125000000Y-55300000D03*
X125000000Y-75600000D03*
X177500000Y-35000000D03*
X177500000Y-55300000D03*
X177500000Y-75600000D03*
%TD*%
D11*
%TO.C,FID3*%
X298000000Y-5000000D03*
%TD*%
D12*
%TO.C,J2*%
X107000000Y-9000000D03*
%TD*%
D10*
%TO.C,C5*%
X244000000Y-35000000D03*
X244000000Y-55300000D03*
X244000000Y-75600000D03*
X296500000Y-35000000D03*
X296500000Y-55300000D03*
X296500000Y-75600000D03*
%TD*%
D12*
%TO.C,J1*%
X60000000Y-9000000D03*
%TD*%
D10*
%TO.C,C2*%
X65500000Y-35000000D03*
X65500000Y-55300000D03*
X65500000Y-75600000D03*
X118000000Y-35000000D03*
X118000000Y-55300000D03*
X118000000Y-75600000D03*
%TD*%
D13*
%TO.C,H1*%
X8000000Y-7000000D03*
%TD*%
D11*
%TO.C,FID1*%
X20000000Y-93000000D03*
%TD*%
D13*
%TO.C,H3*%
X8000000Y-93000000D03*
%TD*%
D14*
%TO.C,J9*%
X280000000Y-93000000D03*
D15*
X285080000Y-93000000D03*
%TD*%
D10*
%TO.C,C4*%
X184500000Y-35000000D03*
X184500000Y-55300000D03*
X184500000Y-75600000D03*
X237000000Y-35000000D03*
X237000000Y-55300000D03*
X237000000Y-75600000D03*
%TD*%
D12*
%TO.C,J3*%
X154000000Y-9000000D03*
%TD*%
%TO.C,J4*%
X310000000Y-32000000D03*
%TD*%
D13*
%TO.C,H2*%
X312000000Y-7000000D03*
%TD*%
%TO.C,H4*%
X312000000Y-93000000D03*
%TD*%
D11*
%TO.C,FID2*%
X160000000Y-93000000D03*
%TD*%
D14*
%TO.C,J10*%
X293000000Y-93000000D03*
D15*
X298080000Y-93000000D03*
%TD*%
D12*
%TO.C,J8*%
X310000000Y-68000000D03*
%TD*%
%TO.C,J7*%
X177500000Y-9000000D03*
%TD*%
%TO.C,J5*%
X83500000Y-9000000D03*
%TD*%
%TO.C,J6*%
X130500000Y-9000000D03*
%TD*%
M02*
