%TF.GenerationSoftware,KiCad,Pcbnew,9.0.6*%
%TF.CreationDate,2026-08-03T08:00:47-07:00*%
%TF.ProjectId,mcuc_dclink,6d637563-5f64-4636-9c69-6e6b2e6b6963,rev?*%
%TF.SameCoordinates,Original*%
%TF.FileFunction,Legend,Bot*%
%TF.FilePolarity,Positive*%
%FSLAX46Y46*%
G04 Gerber Fmt 4.6, Leading zero omitted, Abs format (unit mm)*
G04 Created by KiCad (PCBNEW 9.0.6) date 2026-08-03 08:00:47*
%MOMM*%
%LPD*%
G01*
G04 APERTURE LIST*
%ADD10C,0.224999*%
%ADD11C,0.150000*%
%ADD12C,0.120000*%
%ADD13C,2.900000*%
%ADD14C,13.000000*%
%ADD15C,4.300000*%
%ADD16R,3.000000X3.000000*%
%ADD17C,3.000000*%
G04 APERTURE END LIST*
D10*
X192642857Y-17559728D02*
X192642857Y-16059728D01*
X192642857Y-16059728D02*
X192285714Y-16059728D01*
X192285714Y-16059728D02*
X192071428Y-16131157D01*
X192071428Y-16131157D02*
X191928571Y-16274014D01*
X191928571Y-16274014D02*
X191857142Y-16416871D01*
X191857142Y-16416871D02*
X191785714Y-16702585D01*
X191785714Y-16702585D02*
X191785714Y-16916871D01*
X191785714Y-16916871D02*
X191857142Y-17202585D01*
X191857142Y-17202585D02*
X191928571Y-17345442D01*
X191928571Y-17345442D02*
X192071428Y-17488300D01*
X192071428Y-17488300D02*
X192285714Y-17559728D01*
X192285714Y-17559728D02*
X192642857Y-17559728D01*
X190285714Y-17416871D02*
X190357142Y-17488300D01*
X190357142Y-17488300D02*
X190571428Y-17559728D01*
X190571428Y-17559728D02*
X190714285Y-17559728D01*
X190714285Y-17559728D02*
X190928571Y-17488300D01*
X190928571Y-17488300D02*
X191071428Y-17345442D01*
X191071428Y-17345442D02*
X191142857Y-17202585D01*
X191142857Y-17202585D02*
X191214285Y-16916871D01*
X191214285Y-16916871D02*
X191214285Y-16702585D01*
X191214285Y-16702585D02*
X191142857Y-16416871D01*
X191142857Y-16416871D02*
X191071428Y-16274014D01*
X191071428Y-16274014D02*
X190928571Y-16131157D01*
X190928571Y-16131157D02*
X190714285Y-16059728D01*
X190714285Y-16059728D02*
X190571428Y-16059728D01*
X190571428Y-16059728D02*
X190357142Y-16131157D01*
X190357142Y-16131157D02*
X190285714Y-16202585D01*
X189642857Y-16988300D02*
X188500000Y-16988300D01*
X186857142Y-16059728D02*
X186000000Y-16059728D01*
X186428571Y-17559728D02*
X186428571Y-16059728D01*
X185500000Y-17559728D02*
X185500000Y-16059728D01*
X185500000Y-16774014D02*
X184642857Y-16774014D01*
X184642857Y-17559728D02*
X184642857Y-16059728D01*
X183928571Y-17559728D02*
X183928571Y-16059728D01*
X183285713Y-17488300D02*
X183071428Y-17559728D01*
X183071428Y-17559728D02*
X182714285Y-17559728D01*
X182714285Y-17559728D02*
X182571428Y-17488300D01*
X182571428Y-17488300D02*
X182499999Y-17416871D01*
X182499999Y-17416871D02*
X182428570Y-17274014D01*
X182428570Y-17274014D02*
X182428570Y-17131157D01*
X182428570Y-17131157D02*
X182499999Y-16988300D01*
X182499999Y-16988300D02*
X182571428Y-16916871D01*
X182571428Y-16916871D02*
X182714285Y-16845442D01*
X182714285Y-16845442D02*
X182999999Y-16774014D01*
X182999999Y-16774014D02*
X183142856Y-16702585D01*
X183142856Y-16702585D02*
X183214285Y-16631157D01*
X183214285Y-16631157D02*
X183285713Y-16488300D01*
X183285713Y-16488300D02*
X183285713Y-16345442D01*
X183285713Y-16345442D02*
X183214285Y-16202585D01*
X183214285Y-16202585D02*
X183142856Y-16131157D01*
X183142856Y-16131157D02*
X182999999Y-16059728D01*
X182999999Y-16059728D02*
X182642856Y-16059728D01*
X182642856Y-16059728D02*
X182428570Y-16131157D01*
X180714285Y-17488300D02*
X180500000Y-17559728D01*
X180500000Y-17559728D02*
X180142857Y-17559728D01*
X180142857Y-17559728D02*
X180000000Y-17488300D01*
X180000000Y-17488300D02*
X179928571Y-17416871D01*
X179928571Y-17416871D02*
X179857142Y-17274014D01*
X179857142Y-17274014D02*
X179857142Y-17131157D01*
X179857142Y-17131157D02*
X179928571Y-16988300D01*
X179928571Y-16988300D02*
X180000000Y-16916871D01*
X180000000Y-16916871D02*
X180142857Y-16845442D01*
X180142857Y-16845442D02*
X180428571Y-16774014D01*
X180428571Y-16774014D02*
X180571428Y-16702585D01*
X180571428Y-16702585D02*
X180642857Y-16631157D01*
X180642857Y-16631157D02*
X180714285Y-16488300D01*
X180714285Y-16488300D02*
X180714285Y-16345442D01*
X180714285Y-16345442D02*
X180642857Y-16202585D01*
X180642857Y-16202585D02*
X180571428Y-16131157D01*
X180571428Y-16131157D02*
X180428571Y-16059728D01*
X180428571Y-16059728D02*
X180071428Y-16059728D01*
X180071428Y-16059728D02*
X179857142Y-16131157D01*
X179214286Y-17559728D02*
X179214286Y-16059728D01*
X178500000Y-17559728D02*
X178500000Y-16059728D01*
X178500000Y-16059728D02*
X178142857Y-16059728D01*
X178142857Y-16059728D02*
X177928571Y-16131157D01*
X177928571Y-16131157D02*
X177785714Y-16274014D01*
X177785714Y-16274014D02*
X177714285Y-16416871D01*
X177714285Y-16416871D02*
X177642857Y-16702585D01*
X177642857Y-16702585D02*
X177642857Y-16916871D01*
X177642857Y-16916871D02*
X177714285Y-17202585D01*
X177714285Y-17202585D02*
X177785714Y-17345442D01*
X177785714Y-17345442D02*
X177928571Y-17488300D01*
X177928571Y-17488300D02*
X178142857Y-17559728D01*
X178142857Y-17559728D02*
X178500000Y-17559728D01*
X177000000Y-16774014D02*
X176500000Y-16774014D01*
X176285714Y-17559728D02*
X177000000Y-17559728D01*
X177000000Y-17559728D02*
X177000000Y-16059728D01*
X177000000Y-16059728D02*
X176285714Y-16059728D01*
X175642857Y-17416871D02*
X175571428Y-17488300D01*
X175571428Y-17488300D02*
X175642857Y-17559728D01*
X175642857Y-17559728D02*
X175714285Y-17488300D01*
X175714285Y-17488300D02*
X175642857Y-17416871D01*
X175642857Y-17416871D02*
X175642857Y-17559728D01*
X175642857Y-16631157D02*
X175571428Y-16702585D01*
X175571428Y-16702585D02*
X175642857Y-16774014D01*
X175642857Y-16774014D02*
X175714285Y-16702585D01*
X175714285Y-16702585D02*
X175642857Y-16631157D01*
X175642857Y-16631157D02*
X175642857Y-16774014D01*
X173285714Y-16774014D02*
X173071428Y-16845442D01*
X173071428Y-16845442D02*
X172999999Y-16916871D01*
X172999999Y-16916871D02*
X172928571Y-17059728D01*
X172928571Y-17059728D02*
X172928571Y-17274014D01*
X172928571Y-17274014D02*
X172999999Y-17416871D01*
X172999999Y-17416871D02*
X173071428Y-17488300D01*
X173071428Y-17488300D02*
X173214285Y-17559728D01*
X173214285Y-17559728D02*
X173785714Y-17559728D01*
X173785714Y-17559728D02*
X173785714Y-16059728D01*
X173785714Y-16059728D02*
X173285714Y-16059728D01*
X173285714Y-16059728D02*
X173142857Y-16131157D01*
X173142857Y-16131157D02*
X173071428Y-16202585D01*
X173071428Y-16202585D02*
X172999999Y-16345442D01*
X172999999Y-16345442D02*
X172999999Y-16488300D01*
X172999999Y-16488300D02*
X173071428Y-16631157D01*
X173071428Y-16631157D02*
X173142857Y-16702585D01*
X173142857Y-16702585D02*
X173285714Y-16774014D01*
X173285714Y-16774014D02*
X173785714Y-16774014D01*
X172285714Y-17416871D02*
X172214285Y-17488300D01*
X172214285Y-17488300D02*
X172285714Y-17559728D01*
X172285714Y-17559728D02*
X172357142Y-17488300D01*
X172357142Y-17488300D02*
X172285714Y-17416871D01*
X172285714Y-17416871D02*
X172285714Y-17559728D01*
X170714285Y-17416871D02*
X170785713Y-17488300D01*
X170785713Y-17488300D02*
X170999999Y-17559728D01*
X170999999Y-17559728D02*
X171142856Y-17559728D01*
X171142856Y-17559728D02*
X171357142Y-17488300D01*
X171357142Y-17488300D02*
X171499999Y-17345442D01*
X171499999Y-17345442D02*
X171571428Y-17202585D01*
X171571428Y-17202585D02*
X171642856Y-16916871D01*
X171642856Y-16916871D02*
X171642856Y-16702585D01*
X171642856Y-16702585D02*
X171571428Y-16416871D01*
X171571428Y-16416871D02*
X171499999Y-16274014D01*
X171499999Y-16274014D02*
X171357142Y-16131157D01*
X171357142Y-16131157D02*
X171142856Y-16059728D01*
X171142856Y-16059728D02*
X170999999Y-16059728D01*
X170999999Y-16059728D02*
X170785713Y-16131157D01*
X170785713Y-16131157D02*
X170714285Y-16202585D01*
X169428571Y-16559728D02*
X169428571Y-17559728D01*
X170071428Y-16559728D02*
X170071428Y-17345442D01*
X170071428Y-17345442D02*
X169999999Y-17488300D01*
X169999999Y-17488300D02*
X169857142Y-17559728D01*
X169857142Y-17559728D02*
X169642856Y-17559728D01*
X169642856Y-17559728D02*
X169499999Y-17488300D01*
X169499999Y-17488300D02*
X169428571Y-17416871D01*
X167714285Y-16559728D02*
X166928571Y-16559728D01*
X166928571Y-16559728D02*
X167714285Y-17559728D01*
X167714285Y-17559728D02*
X166928571Y-17559728D01*
X166142856Y-17559728D02*
X166285713Y-17488300D01*
X166285713Y-17488300D02*
X166357142Y-17416871D01*
X166357142Y-17416871D02*
X166428570Y-17274014D01*
X166428570Y-17274014D02*
X166428570Y-16845442D01*
X166428570Y-16845442D02*
X166357142Y-16702585D01*
X166357142Y-16702585D02*
X166285713Y-16631157D01*
X166285713Y-16631157D02*
X166142856Y-16559728D01*
X166142856Y-16559728D02*
X165928570Y-16559728D01*
X165928570Y-16559728D02*
X165785713Y-16631157D01*
X165785713Y-16631157D02*
X165714285Y-16702585D01*
X165714285Y-16702585D02*
X165642856Y-16845442D01*
X165642856Y-16845442D02*
X165642856Y-17274014D01*
X165642856Y-17274014D02*
X165714285Y-17416871D01*
X165714285Y-17416871D02*
X165785713Y-17488300D01*
X165785713Y-17488300D02*
X165928570Y-17559728D01*
X165928570Y-17559728D02*
X166142856Y-17559728D01*
X164999999Y-16559728D02*
X164999999Y-17559728D01*
X164999999Y-16702585D02*
X164928570Y-16631157D01*
X164928570Y-16631157D02*
X164785713Y-16559728D01*
X164785713Y-16559728D02*
X164571427Y-16559728D01*
X164571427Y-16559728D02*
X164428570Y-16631157D01*
X164428570Y-16631157D02*
X164357142Y-16774014D01*
X164357142Y-16774014D02*
X164357142Y-17559728D01*
X163071427Y-17488300D02*
X163214284Y-17559728D01*
X163214284Y-17559728D02*
X163499999Y-17559728D01*
X163499999Y-17559728D02*
X163642856Y-17488300D01*
X163642856Y-17488300D02*
X163714284Y-17345442D01*
X163714284Y-17345442D02*
X163714284Y-16774014D01*
X163714284Y-16774014D02*
X163642856Y-16631157D01*
X163642856Y-16631157D02*
X163499999Y-16559728D01*
X163499999Y-16559728D02*
X163214284Y-16559728D01*
X163214284Y-16559728D02*
X163071427Y-16631157D01*
X163071427Y-16631157D02*
X162999999Y-16774014D01*
X162999999Y-16774014D02*
X162999999Y-16916871D01*
X162999999Y-16916871D02*
X163714284Y-17059728D01*
X161214285Y-16774014D02*
X160071428Y-16774014D01*
X160071428Y-17202585D02*
X161214285Y-17202585D01*
X158214285Y-17559728D02*
X158214285Y-16059728D01*
X158214285Y-16059728D02*
X157857142Y-16059728D01*
X157857142Y-16059728D02*
X157642856Y-16131157D01*
X157642856Y-16131157D02*
X157499999Y-16274014D01*
X157499999Y-16274014D02*
X157428570Y-16416871D01*
X157428570Y-16416871D02*
X157357142Y-16702585D01*
X157357142Y-16702585D02*
X157357142Y-16916871D01*
X157357142Y-16916871D02*
X157428570Y-17202585D01*
X157428570Y-17202585D02*
X157499999Y-17345442D01*
X157499999Y-17345442D02*
X157642856Y-17488300D01*
X157642856Y-17488300D02*
X157857142Y-17559728D01*
X157857142Y-17559728D02*
X158214285Y-17559728D01*
X155857142Y-17416871D02*
X155928570Y-17488300D01*
X155928570Y-17488300D02*
X156142856Y-17559728D01*
X156142856Y-17559728D02*
X156285713Y-17559728D01*
X156285713Y-17559728D02*
X156499999Y-17488300D01*
X156499999Y-17488300D02*
X156642856Y-17345442D01*
X156642856Y-17345442D02*
X156714285Y-17202585D01*
X156714285Y-17202585D02*
X156785713Y-16916871D01*
X156785713Y-16916871D02*
X156785713Y-16702585D01*
X156785713Y-16702585D02*
X156714285Y-16416871D01*
X156714285Y-16416871D02*
X156642856Y-16274014D01*
X156642856Y-16274014D02*
X156499999Y-16131157D01*
X156499999Y-16131157D02*
X156285713Y-16059728D01*
X156285713Y-16059728D02*
X156142856Y-16059728D01*
X156142856Y-16059728D02*
X155928570Y-16131157D01*
X155928570Y-16131157D02*
X155857142Y-16202585D01*
X155571428Y-17702585D02*
X154428570Y-17702585D01*
X153571428Y-16774014D02*
X153357142Y-16845442D01*
X153357142Y-16845442D02*
X153285713Y-16916871D01*
X153285713Y-16916871D02*
X153214285Y-17059728D01*
X153214285Y-17059728D02*
X153214285Y-17274014D01*
X153214285Y-17274014D02*
X153285713Y-17416871D01*
X153285713Y-17416871D02*
X153357142Y-17488300D01*
X153357142Y-17488300D02*
X153499999Y-17559728D01*
X153499999Y-17559728D02*
X154071428Y-17559728D01*
X154071428Y-17559728D02*
X154071428Y-16059728D01*
X154071428Y-16059728D02*
X153571428Y-16059728D01*
X153571428Y-16059728D02*
X153428571Y-16131157D01*
X153428571Y-16131157D02*
X153357142Y-16202585D01*
X153357142Y-16202585D02*
X153285713Y-16345442D01*
X153285713Y-16345442D02*
X153285713Y-16488300D01*
X153285713Y-16488300D02*
X153357142Y-16631157D01*
X153357142Y-16631157D02*
X153428571Y-16702585D01*
X153428571Y-16702585D02*
X153571428Y-16774014D01*
X153571428Y-16774014D02*
X154071428Y-16774014D01*
X152571428Y-16059728D02*
X152571428Y-17274014D01*
X152571428Y-17274014D02*
X152499999Y-17416871D01*
X152499999Y-17416871D02*
X152428571Y-17488300D01*
X152428571Y-17488300D02*
X152285713Y-17559728D01*
X152285713Y-17559728D02*
X151999999Y-17559728D01*
X151999999Y-17559728D02*
X151857142Y-17488300D01*
X151857142Y-17488300D02*
X151785713Y-17416871D01*
X151785713Y-17416871D02*
X151714285Y-17274014D01*
X151714285Y-17274014D02*
X151714285Y-16059728D01*
X151071427Y-17488300D02*
X150857142Y-17559728D01*
X150857142Y-17559728D02*
X150499999Y-17559728D01*
X150499999Y-17559728D02*
X150357142Y-17488300D01*
X150357142Y-17488300D02*
X150285713Y-17416871D01*
X150285713Y-17416871D02*
X150214284Y-17274014D01*
X150214284Y-17274014D02*
X150214284Y-17131157D01*
X150214284Y-17131157D02*
X150285713Y-16988300D01*
X150285713Y-16988300D02*
X150357142Y-16916871D01*
X150357142Y-16916871D02*
X150499999Y-16845442D01*
X150499999Y-16845442D02*
X150785713Y-16774014D01*
X150785713Y-16774014D02*
X150928570Y-16702585D01*
X150928570Y-16702585D02*
X150999999Y-16631157D01*
X150999999Y-16631157D02*
X151071427Y-16488300D01*
X151071427Y-16488300D02*
X151071427Y-16345442D01*
X151071427Y-16345442D02*
X150999999Y-16202585D01*
X150999999Y-16202585D02*
X150928570Y-16131157D01*
X150928570Y-16131157D02*
X150785713Y-16059728D01*
X150785713Y-16059728D02*
X150428570Y-16059728D01*
X150428570Y-16059728D02*
X150214284Y-16131157D01*
X149928571Y-17702585D02*
X148785713Y-17702585D01*
X148428571Y-17559728D02*
X148428571Y-16059728D01*
X148428571Y-16059728D02*
X147571428Y-17559728D01*
X147571428Y-17559728D02*
X147571428Y-16059728D01*
X145285713Y-18131157D02*
X145357142Y-18059728D01*
X145357142Y-18059728D02*
X145499999Y-17845442D01*
X145499999Y-17845442D02*
X145571428Y-17702585D01*
X145571428Y-17702585D02*
X145642856Y-17488300D01*
X145642856Y-17488300D02*
X145714285Y-17131157D01*
X145714285Y-17131157D02*
X145714285Y-16845442D01*
X145714285Y-16845442D02*
X145642856Y-16488300D01*
X145642856Y-16488300D02*
X145571428Y-16274014D01*
X145571428Y-16274014D02*
X145499999Y-16131157D01*
X145499999Y-16131157D02*
X145357142Y-15916871D01*
X145357142Y-15916871D02*
X145285713Y-15845442D01*
X144714285Y-17559728D02*
X144714285Y-16059728D01*
X144714285Y-16059728D02*
X143857142Y-17559728D01*
X143857142Y-17559728D02*
X143857142Y-16059728D01*
X141999999Y-17559728D02*
X141999999Y-16059728D01*
X141999999Y-16631157D02*
X141857142Y-16559728D01*
X141857142Y-16559728D02*
X141571427Y-16559728D01*
X141571427Y-16559728D02*
X141428570Y-16631157D01*
X141428570Y-16631157D02*
X141357142Y-16702585D01*
X141357142Y-16702585D02*
X141285713Y-16845442D01*
X141285713Y-16845442D02*
X141285713Y-17274014D01*
X141285713Y-17274014D02*
X141357142Y-17416871D01*
X141357142Y-17416871D02*
X141428570Y-17488300D01*
X141428570Y-17488300D02*
X141571427Y-17559728D01*
X141571427Y-17559728D02*
X141857142Y-17559728D01*
X141857142Y-17559728D02*
X141999999Y-17488300D01*
X139999999Y-16559728D02*
X139999999Y-17559728D01*
X140642856Y-16559728D02*
X140642856Y-17345442D01*
X140642856Y-17345442D02*
X140571427Y-17488300D01*
X140571427Y-17488300D02*
X140428570Y-17559728D01*
X140428570Y-17559728D02*
X140214284Y-17559728D01*
X140214284Y-17559728D02*
X140071427Y-17488300D01*
X140071427Y-17488300D02*
X139999999Y-17416871D01*
X139357141Y-17488300D02*
X139214284Y-17559728D01*
X139214284Y-17559728D02*
X138928570Y-17559728D01*
X138928570Y-17559728D02*
X138785713Y-17488300D01*
X138785713Y-17488300D02*
X138714284Y-17345442D01*
X138714284Y-17345442D02*
X138714284Y-17274014D01*
X138714284Y-17274014D02*
X138785713Y-17131157D01*
X138785713Y-17131157D02*
X138928570Y-17059728D01*
X138928570Y-17059728D02*
X139142856Y-17059728D01*
X139142856Y-17059728D02*
X139285713Y-16988300D01*
X139285713Y-16988300D02*
X139357141Y-16845442D01*
X139357141Y-16845442D02*
X139357141Y-16774014D01*
X139357141Y-16774014D02*
X139285713Y-16631157D01*
X139285713Y-16631157D02*
X139142856Y-16559728D01*
X139142856Y-16559728D02*
X138928570Y-16559728D01*
X138928570Y-16559728D02*
X138785713Y-16631157D01*
X138071427Y-17559728D02*
X138071427Y-16059728D01*
X138071427Y-16631157D02*
X137928570Y-16559728D01*
X137928570Y-16559728D02*
X137642855Y-16559728D01*
X137642855Y-16559728D02*
X137499998Y-16631157D01*
X137499998Y-16631157D02*
X137428570Y-16702585D01*
X137428570Y-16702585D02*
X137357141Y-16845442D01*
X137357141Y-16845442D02*
X137357141Y-17274014D01*
X137357141Y-17274014D02*
X137428570Y-17416871D01*
X137428570Y-17416871D02*
X137499998Y-17488300D01*
X137499998Y-17488300D02*
X137642855Y-17559728D01*
X137642855Y-17559728D02*
X137928570Y-17559728D01*
X137928570Y-17559728D02*
X138071427Y-17488300D01*
X136071427Y-17559728D02*
X136071427Y-16774014D01*
X136071427Y-16774014D02*
X136142855Y-16631157D01*
X136142855Y-16631157D02*
X136285712Y-16559728D01*
X136285712Y-16559728D02*
X136571427Y-16559728D01*
X136571427Y-16559728D02*
X136714284Y-16631157D01*
X136071427Y-17488300D02*
X136214284Y-17559728D01*
X136214284Y-17559728D02*
X136571427Y-17559728D01*
X136571427Y-17559728D02*
X136714284Y-17488300D01*
X136714284Y-17488300D02*
X136785712Y-17345442D01*
X136785712Y-17345442D02*
X136785712Y-17202585D01*
X136785712Y-17202585D02*
X136714284Y-17059728D01*
X136714284Y-17059728D02*
X136571427Y-16988300D01*
X136571427Y-16988300D02*
X136214284Y-16988300D01*
X136214284Y-16988300D02*
X136071427Y-16916871D01*
X135357141Y-17559728D02*
X135357141Y-16559728D01*
X135357141Y-16845442D02*
X135285712Y-16702585D01*
X135285712Y-16702585D02*
X135214284Y-16631157D01*
X135214284Y-16631157D02*
X135071426Y-16559728D01*
X135071426Y-16559728D02*
X134928569Y-16559728D01*
X133285713Y-16559728D02*
X133285713Y-18059728D01*
X133285713Y-16631157D02*
X133142856Y-16559728D01*
X133142856Y-16559728D02*
X132857141Y-16559728D01*
X132857141Y-16559728D02*
X132714284Y-16631157D01*
X132714284Y-16631157D02*
X132642856Y-16702585D01*
X132642856Y-16702585D02*
X132571427Y-16845442D01*
X132571427Y-16845442D02*
X132571427Y-17274014D01*
X132571427Y-17274014D02*
X132642856Y-17416871D01*
X132642856Y-17416871D02*
X132714284Y-17488300D01*
X132714284Y-17488300D02*
X132857141Y-17559728D01*
X132857141Y-17559728D02*
X133142856Y-17559728D01*
X133142856Y-17559728D02*
X133285713Y-17488300D01*
X131714284Y-17559728D02*
X131857141Y-17488300D01*
X131857141Y-17488300D02*
X131928570Y-17345442D01*
X131928570Y-17345442D02*
X131928570Y-16059728D01*
X130499999Y-17559728D02*
X130499999Y-16774014D01*
X130499999Y-16774014D02*
X130571427Y-16631157D01*
X130571427Y-16631157D02*
X130714284Y-16559728D01*
X130714284Y-16559728D02*
X130999999Y-16559728D01*
X130999999Y-16559728D02*
X131142856Y-16631157D01*
X130499999Y-17488300D02*
X130642856Y-17559728D01*
X130642856Y-17559728D02*
X130999999Y-17559728D01*
X130999999Y-17559728D02*
X131142856Y-17488300D01*
X131142856Y-17488300D02*
X131214284Y-17345442D01*
X131214284Y-17345442D02*
X131214284Y-17202585D01*
X131214284Y-17202585D02*
X131142856Y-17059728D01*
X131142856Y-17059728D02*
X130999999Y-16988300D01*
X130999999Y-16988300D02*
X130642856Y-16988300D01*
X130642856Y-16988300D02*
X130499999Y-16916871D01*
X129999998Y-16559728D02*
X129428570Y-16559728D01*
X129785713Y-16059728D02*
X129785713Y-17345442D01*
X129785713Y-17345442D02*
X129714284Y-17488300D01*
X129714284Y-17488300D02*
X129571427Y-17559728D01*
X129571427Y-17559728D02*
X129428570Y-17559728D01*
X128357141Y-17488300D02*
X128499998Y-17559728D01*
X128499998Y-17559728D02*
X128785713Y-17559728D01*
X128785713Y-17559728D02*
X128928570Y-17488300D01*
X128928570Y-17488300D02*
X128999998Y-17345442D01*
X128999998Y-17345442D02*
X128999998Y-16774014D01*
X128999998Y-16774014D02*
X128928570Y-16631157D01*
X128928570Y-16631157D02*
X128785713Y-16559728D01*
X128785713Y-16559728D02*
X128499998Y-16559728D01*
X128499998Y-16559728D02*
X128357141Y-16631157D01*
X128357141Y-16631157D02*
X128285713Y-16774014D01*
X128285713Y-16774014D02*
X128285713Y-16916871D01*
X128285713Y-16916871D02*
X128999998Y-17059728D01*
X127785713Y-18131157D02*
X127714284Y-18059728D01*
X127714284Y-18059728D02*
X127571427Y-17845442D01*
X127571427Y-17845442D02*
X127499999Y-17702585D01*
X127499999Y-17702585D02*
X127428570Y-17488300D01*
X127428570Y-17488300D02*
X127357141Y-17131157D01*
X127357141Y-17131157D02*
X127357141Y-16845442D01*
X127357141Y-16845442D02*
X127428570Y-16488300D01*
X127428570Y-16488300D02*
X127499999Y-16274014D01*
X127499999Y-16274014D02*
X127571427Y-16131157D01*
X127571427Y-16131157D02*
X127714284Y-15916871D01*
X127714284Y-15916871D02*
X127785713Y-15845442D01*
D11*
X309666666Y-59545180D02*
X309666666Y-58830895D01*
X309666666Y-58830895D02*
X309619047Y-58688038D01*
X309619047Y-58688038D02*
X309523809Y-58592800D01*
X309523809Y-58592800D02*
X309380952Y-58545180D01*
X309380952Y-58545180D02*
X309285714Y-58545180D01*
X310285714Y-59116609D02*
X310190476Y-59164228D01*
X310190476Y-59164228D02*
X310142857Y-59211847D01*
X310142857Y-59211847D02*
X310095238Y-59307085D01*
X310095238Y-59307085D02*
X310095238Y-59354704D01*
X310095238Y-59354704D02*
X310142857Y-59449942D01*
X310142857Y-59449942D02*
X310190476Y-59497561D01*
X310190476Y-59497561D02*
X310285714Y-59545180D01*
X310285714Y-59545180D02*
X310476190Y-59545180D01*
X310476190Y-59545180D02*
X310571428Y-59497561D01*
X310571428Y-59497561D02*
X310619047Y-59449942D01*
X310619047Y-59449942D02*
X310666666Y-59354704D01*
X310666666Y-59354704D02*
X310666666Y-59307085D01*
X310666666Y-59307085D02*
X310619047Y-59211847D01*
X310619047Y-59211847D02*
X310571428Y-59164228D01*
X310571428Y-59164228D02*
X310476190Y-59116609D01*
X310476190Y-59116609D02*
X310285714Y-59116609D01*
X310285714Y-59116609D02*
X310190476Y-59068990D01*
X310190476Y-59068990D02*
X310142857Y-59021371D01*
X310142857Y-59021371D02*
X310095238Y-58926133D01*
X310095238Y-58926133D02*
X310095238Y-58735657D01*
X310095238Y-58735657D02*
X310142857Y-58640419D01*
X310142857Y-58640419D02*
X310190476Y-58592800D01*
X310190476Y-58592800D02*
X310285714Y-58545180D01*
X310285714Y-58545180D02*
X310476190Y-58545180D01*
X310476190Y-58545180D02*
X310571428Y-58592800D01*
X310571428Y-58592800D02*
X310619047Y-58640419D01*
X310619047Y-58640419D02*
X310666666Y-58735657D01*
X310666666Y-58735657D02*
X310666666Y-58926133D01*
X310666666Y-58926133D02*
X310619047Y-59021371D01*
X310619047Y-59021371D02*
X310571428Y-59068990D01*
X310571428Y-59068990D02*
X310476190Y-59116609D01*
X177166666Y-19045180D02*
X177166666Y-18330895D01*
X177166666Y-18330895D02*
X177119047Y-18188038D01*
X177119047Y-18188038D02*
X177023809Y-18092800D01*
X177023809Y-18092800D02*
X176880952Y-18045180D01*
X176880952Y-18045180D02*
X176785714Y-18045180D01*
X177547619Y-19045180D02*
X178214285Y-19045180D01*
X178214285Y-19045180D02*
X177785714Y-18045180D01*
X83166666Y-19045180D02*
X83166666Y-18330895D01*
X83166666Y-18330895D02*
X83119047Y-18188038D01*
X83119047Y-18188038D02*
X83023809Y-18092800D01*
X83023809Y-18092800D02*
X82880952Y-18045180D01*
X82880952Y-18045180D02*
X82785714Y-18045180D01*
X84119047Y-19045180D02*
X83642857Y-19045180D01*
X83642857Y-19045180D02*
X83595238Y-18568990D01*
X83595238Y-18568990D02*
X83642857Y-18616609D01*
X83642857Y-18616609D02*
X83738095Y-18664228D01*
X83738095Y-18664228D02*
X83976190Y-18664228D01*
X83976190Y-18664228D02*
X84071428Y-18616609D01*
X84071428Y-18616609D02*
X84119047Y-18568990D01*
X84119047Y-18568990D02*
X84166666Y-18473752D01*
X84166666Y-18473752D02*
X84166666Y-18235657D01*
X84166666Y-18235657D02*
X84119047Y-18140419D01*
X84119047Y-18140419D02*
X84071428Y-18092800D01*
X84071428Y-18092800D02*
X83976190Y-18045180D01*
X83976190Y-18045180D02*
X83738095Y-18045180D01*
X83738095Y-18045180D02*
X83642857Y-18092800D01*
X83642857Y-18092800D02*
X83595238Y-18140419D01*
X130166666Y-19045180D02*
X130166666Y-18330895D01*
X130166666Y-18330895D02*
X130119047Y-18188038D01*
X130119047Y-18188038D02*
X130023809Y-18092800D01*
X130023809Y-18092800D02*
X129880952Y-18045180D01*
X129880952Y-18045180D02*
X129785714Y-18045180D01*
X131071428Y-19045180D02*
X130880952Y-19045180D01*
X130880952Y-19045180D02*
X130785714Y-18997561D01*
X130785714Y-18997561D02*
X130738095Y-18949942D01*
X130738095Y-18949942D02*
X130642857Y-18807085D01*
X130642857Y-18807085D02*
X130595238Y-18616609D01*
X130595238Y-18616609D02*
X130595238Y-18235657D01*
X130595238Y-18235657D02*
X130642857Y-18140419D01*
X130642857Y-18140419D02*
X130690476Y-18092800D01*
X130690476Y-18092800D02*
X130785714Y-18045180D01*
X130785714Y-18045180D02*
X130976190Y-18045180D01*
X130976190Y-18045180D02*
X131071428Y-18092800D01*
X131071428Y-18092800D02*
X131119047Y-18140419D01*
X131119047Y-18140419D02*
X131166666Y-18235657D01*
X131166666Y-18235657D02*
X131166666Y-18473752D01*
X131166666Y-18473752D02*
X131119047Y-18568990D01*
X131119047Y-18568990D02*
X131071428Y-18616609D01*
X131071428Y-18616609D02*
X130976190Y-18664228D01*
X130976190Y-18664228D02*
X130785714Y-18664228D01*
X130785714Y-18664228D02*
X130690476Y-18616609D01*
X130690476Y-18616609D02*
X130642857Y-18568990D01*
X130642857Y-18568990D02*
X130595238Y-18473752D01*
D12*
%TO.C,J8*%
X316850000Y-68000000D02*
G75*
G02*
X303150000Y-68000000I-6850000J0D01*
G01*
X303150000Y-68000000D02*
G75*
G02*
X316850000Y-68000000I6850000J0D01*
G01*
%TO.C,J7*%
X184350000Y-9000000D02*
G75*
G02*
X170650000Y-9000000I-6850000J0D01*
G01*
X170650000Y-9000000D02*
G75*
G02*
X184350000Y-9000000I6850000J0D01*
G01*
%TO.C,J5*%
X90350000Y-9000000D02*
G75*
G02*
X76650000Y-9000000I-6850000J0D01*
G01*
X76650000Y-9000000D02*
G75*
G02*
X90350000Y-9000000I6850000J0D01*
G01*
%TO.C,J6*%
X137350000Y-9000000D02*
G75*
G02*
X123650000Y-9000000I-6850000J0D01*
G01*
X123650000Y-9000000D02*
G75*
G02*
X137350000Y-9000000I6850000J0D01*
G01*
%TD*%
%LPC*%
D13*
%TO.C,C1*%
X6000000Y-35000000D03*
X6000000Y-55300000D03*
X6000000Y-75600000D03*
X58500000Y-35000000D03*
X58500000Y-55300000D03*
X58500000Y-75600000D03*
%TD*%
%TO.C,C3*%
X125000000Y-35000000D03*
X125000000Y-55300000D03*
X125000000Y-75600000D03*
X177500000Y-35000000D03*
X177500000Y-55300000D03*
X177500000Y-75600000D03*
%TD*%
D14*
%TO.C,J2*%
X107000000Y-9000000D03*
%TD*%
D13*
%TO.C,C5*%
X244000000Y-35000000D03*
X244000000Y-55300000D03*
X244000000Y-75600000D03*
X296500000Y-35000000D03*
X296500000Y-55300000D03*
X296500000Y-75600000D03*
%TD*%
D14*
%TO.C,J1*%
X60000000Y-9000000D03*
%TD*%
D13*
%TO.C,C2*%
X65500000Y-35000000D03*
X65500000Y-55300000D03*
X65500000Y-75600000D03*
X118000000Y-35000000D03*
X118000000Y-55300000D03*
X118000000Y-75600000D03*
%TD*%
D15*
%TO.C,H1*%
X8000000Y-7000000D03*
%TD*%
%TO.C,H3*%
X8000000Y-93000000D03*
%TD*%
D16*
%TO.C,J9*%
X280000000Y-93000000D03*
D17*
X285080000Y-93000000D03*
%TD*%
D13*
%TO.C,C4*%
X184500000Y-35000000D03*
X184500000Y-55300000D03*
X184500000Y-75600000D03*
X237000000Y-35000000D03*
X237000000Y-55300000D03*
X237000000Y-75600000D03*
%TD*%
D14*
%TO.C,J3*%
X154000000Y-9000000D03*
%TD*%
%TO.C,J4*%
X310000000Y-32000000D03*
%TD*%
D15*
%TO.C,H2*%
X312000000Y-7000000D03*
%TD*%
%TO.C,H4*%
X312000000Y-93000000D03*
%TD*%
D16*
%TO.C,J10*%
X293000000Y-93000000D03*
D17*
X298080000Y-93000000D03*
%TD*%
D14*
%TO.C,J8*%
X310000000Y-68000000D03*
%TD*%
%TO.C,J7*%
X177500000Y-9000000D03*
%TD*%
%TO.C,J5*%
X83500000Y-9000000D03*
%TD*%
%TO.C,J6*%
X130500000Y-9000000D03*
%TD*%
%LPD*%
M02*
