%TF.GenerationSoftware,KiCad,Pcbnew,9.0.6*%
%TF.CreationDate,2026-08-03T08:00:48-07:00*%
%TF.ProjectId,mcuc_dclink,6d637563-5f64-4636-9c69-6e6b2e6b6963,rev?*%
%TF.SameCoordinates,Original*%
%TF.FileFunction,Drillmap*%
%TF.FilePolarity,Positive*%
%FSLAX45Y45*%
G04 Gerber Fmt 4.5, Leading zero omitted, Abs format (unit mm)*
G04 Created by KiCad (PCBNEW 9.0.6) date 2026-08-03 08:00:48*
%MOMM*%
%LPD*%
G01*
G04 APERTURE LIST*
%ADD10C,0.100000*%
%ADD11C,0.200000*%
%ADD12C,0.150000*%
%ADD13C,0.170000*%
%ADD14C,0.640000*%
%ADD15C,0.430000*%
G04 APERTURE END LIST*
D10*
X0Y0D02*
X32000000Y0D01*
X32000000Y-10000000D01*
X0Y-10000000D01*
X0Y0D01*
D11*
D12*
X27925000Y-9225000D02*
X28075000Y-9375000D01*
X28075000Y-9225000D02*
X27925000Y-9375000D01*
X28433000Y-9225000D02*
X28583000Y-9375000D01*
X28583000Y-9225000D02*
X28433000Y-9375000D01*
X29225000Y-9225000D02*
X29375000Y-9375000D01*
X29375000Y-9225000D02*
X29225000Y-9375000D01*
X29733000Y-9225000D02*
X29883000Y-9375000D01*
X29883000Y-9225000D02*
X29733000Y-9375000D01*
D13*
X685000Y-3500000D02*
G75*
G02*
X515000Y-3500000I-85000J0D01*
G01*
X515000Y-3500000D02*
G75*
G02*
X685000Y-3500000I85000J0D01*
G01*
X685000Y-5530000D02*
G75*
G02*
X515000Y-5530000I-85000J0D01*
G01*
X515000Y-5530000D02*
G75*
G02*
X685000Y-5530000I85000J0D01*
G01*
X685000Y-7560000D02*
G75*
G02*
X515000Y-7560000I-85000J0D01*
G01*
X515000Y-7560000D02*
G75*
G02*
X685000Y-7560000I85000J0D01*
G01*
X5935000Y-3500000D02*
G75*
G02*
X5765000Y-3500000I-85000J0D01*
G01*
X5765000Y-3500000D02*
G75*
G02*
X5935000Y-3500000I85000J0D01*
G01*
X5935000Y-5530000D02*
G75*
G02*
X5765000Y-5530000I-85000J0D01*
G01*
X5765000Y-5530000D02*
G75*
G02*
X5935000Y-5530000I85000J0D01*
G01*
X5935000Y-7560000D02*
G75*
G02*
X5765000Y-7560000I-85000J0D01*
G01*
X5765000Y-7560000D02*
G75*
G02*
X5935000Y-7560000I85000J0D01*
G01*
X6635000Y-3500000D02*
G75*
G02*
X6465000Y-3500000I-85000J0D01*
G01*
X6465000Y-3500000D02*
G75*
G02*
X6635000Y-3500000I85000J0D01*
G01*
X6635000Y-5530000D02*
G75*
G02*
X6465000Y-5530000I-85000J0D01*
G01*
X6465000Y-5530000D02*
G75*
G02*
X6635000Y-5530000I85000J0D01*
G01*
X6635000Y-7560000D02*
G75*
G02*
X6465000Y-7560000I-85000J0D01*
G01*
X6465000Y-7560000D02*
G75*
G02*
X6635000Y-7560000I85000J0D01*
G01*
X11885000Y-3500000D02*
G75*
G02*
X11715000Y-3500000I-85000J0D01*
G01*
X11715000Y-3500000D02*
G75*
G02*
X11885000Y-3500000I85000J0D01*
G01*
X11885000Y-5530000D02*
G75*
G02*
X11715000Y-5530000I-85000J0D01*
G01*
X11715000Y-5530000D02*
G75*
G02*
X11885000Y-5530000I85000J0D01*
G01*
X11885000Y-7560000D02*
G75*
G02*
X11715000Y-7560000I-85000J0D01*
G01*
X11715000Y-7560000D02*
G75*
G02*
X11885000Y-7560000I85000J0D01*
G01*
X12585000Y-3500000D02*
G75*
G02*
X12415000Y-3500000I-85000J0D01*
G01*
X12415000Y-3500000D02*
G75*
G02*
X12585000Y-3500000I85000J0D01*
G01*
X12585000Y-5530000D02*
G75*
G02*
X12415000Y-5530000I-85000J0D01*
G01*
X12415000Y-5530000D02*
G75*
G02*
X12585000Y-5530000I85000J0D01*
G01*
X12585000Y-7560000D02*
G75*
G02*
X12415000Y-7560000I-85000J0D01*
G01*
X12415000Y-7560000D02*
G75*
G02*
X12585000Y-7560000I85000J0D01*
G01*
X17835000Y-3500000D02*
G75*
G02*
X17665000Y-3500000I-85000J0D01*
G01*
X17665000Y-3500000D02*
G75*
G02*
X17835000Y-3500000I85000J0D01*
G01*
X17835000Y-5530000D02*
G75*
G02*
X17665000Y-5530000I-85000J0D01*
G01*
X17665000Y-5530000D02*
G75*
G02*
X17835000Y-5530000I85000J0D01*
G01*
X17835000Y-7560000D02*
G75*
G02*
X17665000Y-7560000I-85000J0D01*
G01*
X17665000Y-7560000D02*
G75*
G02*
X17835000Y-7560000I85000J0D01*
G01*
X18535000Y-3500000D02*
G75*
G02*
X18365000Y-3500000I-85000J0D01*
G01*
X18365000Y-3500000D02*
G75*
G02*
X18535000Y-3500000I85000J0D01*
G01*
X18535000Y-5530000D02*
G75*
G02*
X18365000Y-5530000I-85000J0D01*
G01*
X18365000Y-5530000D02*
G75*
G02*
X18535000Y-5530000I85000J0D01*
G01*
X18535000Y-7560000D02*
G75*
G02*
X18365000Y-7560000I-85000J0D01*
G01*
X18365000Y-7560000D02*
G75*
G02*
X18535000Y-7560000I85000J0D01*
G01*
X23785000Y-3500000D02*
G75*
G02*
X23615000Y-3500000I-85000J0D01*
G01*
X23615000Y-3500000D02*
G75*
G02*
X23785000Y-3500000I85000J0D01*
G01*
X23785000Y-5530000D02*
G75*
G02*
X23615000Y-5530000I-85000J0D01*
G01*
X23615000Y-5530000D02*
G75*
G02*
X23785000Y-5530000I85000J0D01*
G01*
X23785000Y-7560000D02*
G75*
G02*
X23615000Y-7560000I-85000J0D01*
G01*
X23615000Y-7560000D02*
G75*
G02*
X23785000Y-7560000I85000J0D01*
G01*
X24485000Y-3500000D02*
G75*
G02*
X24315000Y-3500000I-85000J0D01*
G01*
X24315000Y-3500000D02*
G75*
G02*
X24485000Y-3500000I85000J0D01*
G01*
X24485000Y-5530000D02*
G75*
G02*
X24315000Y-5530000I-85000J0D01*
G01*
X24315000Y-5530000D02*
G75*
G02*
X24485000Y-5530000I85000J0D01*
G01*
X24485000Y-7560000D02*
G75*
G02*
X24315000Y-7560000I-85000J0D01*
G01*
X24315000Y-7560000D02*
G75*
G02*
X24485000Y-7560000I85000J0D01*
G01*
X29735000Y-3500000D02*
G75*
G02*
X29565000Y-3500000I-85000J0D01*
G01*
X29565000Y-3500000D02*
G75*
G02*
X29735000Y-3500000I85000J0D01*
G01*
X29735000Y-5530000D02*
G75*
G02*
X29565000Y-5530000I-85000J0D01*
G01*
X29565000Y-5530000D02*
G75*
G02*
X29735000Y-5530000I85000J0D01*
G01*
X29735000Y-7560000D02*
G75*
G02*
X29565000Y-7560000I-85000J0D01*
G01*
X29565000Y-7560000D02*
G75*
G02*
X29735000Y-7560000I85000J0D01*
G01*
D14*
X6000000Y-580000D02*
X6000000Y-1220000D01*
X5680000Y-900000D02*
X6320000Y-900000D01*
X8350000Y-580000D02*
X8350000Y-1220000D01*
X8030000Y-900000D02*
X8670000Y-900000D01*
X10700000Y-580000D02*
X10700000Y-1220000D01*
X10380000Y-900000D02*
X11020000Y-900000D01*
X13050000Y-580000D02*
X13050000Y-1220000D01*
X12730000Y-900000D02*
X13370000Y-900000D01*
X15400000Y-580000D02*
X15400000Y-1220000D01*
X15080000Y-900000D02*
X15720000Y-900000D01*
X17750000Y-580000D02*
X17750000Y-1220000D01*
X17430000Y-900000D02*
X18070000Y-900000D01*
X31000000Y-2880000D02*
X31000000Y-3520000D01*
X30680000Y-3200000D02*
X31320000Y-3200000D01*
X31000000Y-6480000D02*
X31000000Y-7120000D01*
X30680000Y-6800000D02*
X31320000Y-6800000D01*
D15*
X952029Y-852029D02*
X952029Y-547971D01*
X647971Y-547971D01*
X647971Y-852029D01*
X952029Y-852029D01*
X952029Y-9452029D02*
X952029Y-9147971D01*
X647971Y-9147971D01*
X647971Y-9452029D01*
X952029Y-9452029D01*
X31352029Y-852029D02*
X31352029Y-547971D01*
X31047971Y-547971D01*
X31047971Y-852029D01*
X31352029Y-852029D01*
X31352029Y-9452029D02*
X31352029Y-9147971D01*
X31047971Y-9147971D01*
X31047971Y-9452029D01*
X31352029Y-9452029D01*
D11*
X255777Y-10316484D02*
X255777Y-10116484D01*
X255777Y-10116484D02*
X303396Y-10116484D01*
X303396Y-10116484D02*
X331967Y-10126008D01*
X331967Y-10126008D02*
X351015Y-10145055D01*
X351015Y-10145055D02*
X360539Y-10164103D01*
X360539Y-10164103D02*
X370062Y-10202198D01*
X370062Y-10202198D02*
X370062Y-10230770D01*
X370062Y-10230770D02*
X360539Y-10268865D01*
X360539Y-10268865D02*
X351015Y-10287912D01*
X351015Y-10287912D02*
X331967Y-10306960D01*
X331967Y-10306960D02*
X303396Y-10316484D01*
X303396Y-10316484D02*
X255777Y-10316484D01*
X455777Y-10316484D02*
X455777Y-10183150D01*
X455777Y-10221246D02*
X465301Y-10202198D01*
X465301Y-10202198D02*
X474824Y-10192674D01*
X474824Y-10192674D02*
X493872Y-10183150D01*
X493872Y-10183150D02*
X512920Y-10183150D01*
X579586Y-10316484D02*
X579586Y-10183150D01*
X579586Y-10116484D02*
X570063Y-10126008D01*
X570063Y-10126008D02*
X579586Y-10135531D01*
X579586Y-10135531D02*
X589110Y-10126008D01*
X589110Y-10126008D02*
X579586Y-10116484D01*
X579586Y-10116484D02*
X579586Y-10135531D01*
X703396Y-10316484D02*
X684348Y-10306960D01*
X684348Y-10306960D02*
X674824Y-10287912D01*
X674824Y-10287912D02*
X674824Y-10116484D01*
X808158Y-10316484D02*
X789110Y-10306960D01*
X789110Y-10306960D02*
X779586Y-10287912D01*
X779586Y-10287912D02*
X779586Y-10116484D01*
X1036729Y-10316484D02*
X1036729Y-10116484D01*
X1036729Y-10116484D02*
X1103396Y-10259341D01*
X1103396Y-10259341D02*
X1170063Y-10116484D01*
X1170063Y-10116484D02*
X1170063Y-10316484D01*
X1351015Y-10316484D02*
X1351015Y-10211722D01*
X1351015Y-10211722D02*
X1341491Y-10192674D01*
X1341491Y-10192674D02*
X1322444Y-10183150D01*
X1322444Y-10183150D02*
X1284348Y-10183150D01*
X1284348Y-10183150D02*
X1265301Y-10192674D01*
X1351015Y-10306960D02*
X1331967Y-10316484D01*
X1331967Y-10316484D02*
X1284348Y-10316484D01*
X1284348Y-10316484D02*
X1265301Y-10306960D01*
X1265301Y-10306960D02*
X1255777Y-10287912D01*
X1255777Y-10287912D02*
X1255777Y-10268865D01*
X1255777Y-10268865D02*
X1265301Y-10249817D01*
X1265301Y-10249817D02*
X1284348Y-10240293D01*
X1284348Y-10240293D02*
X1331967Y-10240293D01*
X1331967Y-10240293D02*
X1351015Y-10230770D01*
X1446253Y-10183150D02*
X1446253Y-10383150D01*
X1446253Y-10192674D02*
X1465301Y-10183150D01*
X1465301Y-10183150D02*
X1503396Y-10183150D01*
X1503396Y-10183150D02*
X1522443Y-10192674D01*
X1522443Y-10192674D02*
X1531967Y-10202198D01*
X1531967Y-10202198D02*
X1541491Y-10221246D01*
X1541491Y-10221246D02*
X1541491Y-10278389D01*
X1541491Y-10278389D02*
X1531967Y-10297436D01*
X1531967Y-10297436D02*
X1522443Y-10306960D01*
X1522443Y-10306960D02*
X1503396Y-10316484D01*
X1503396Y-10316484D02*
X1465301Y-10316484D01*
X1465301Y-10316484D02*
X1446253Y-10306960D01*
X1627205Y-10297436D02*
X1636729Y-10306960D01*
X1636729Y-10306960D02*
X1627205Y-10316484D01*
X1627205Y-10316484D02*
X1617682Y-10306960D01*
X1617682Y-10306960D02*
X1627205Y-10297436D01*
X1627205Y-10297436D02*
X1627205Y-10316484D01*
X1627205Y-10192674D02*
X1636729Y-10202198D01*
X1636729Y-10202198D02*
X1627205Y-10211722D01*
X1627205Y-10211722D02*
X1617682Y-10202198D01*
X1617682Y-10202198D02*
X1627205Y-10192674D01*
X1627205Y-10192674D02*
X1627205Y-10211722D01*
D12*
X-155000Y-10570000D02*
X-5000Y-10720000D01*
X-5000Y-10570000D02*
X-155000Y-10720000D01*
D11*
X360539Y-10736484D02*
X246253Y-10736484D01*
X303396Y-10736484D02*
X303396Y-10536484D01*
X303396Y-10536484D02*
X284348Y-10565055D01*
X284348Y-10565055D02*
X265301Y-10584103D01*
X265301Y-10584103D02*
X246253Y-10593627D01*
X446253Y-10717436D02*
X455777Y-10726960D01*
X455777Y-10726960D02*
X446253Y-10736484D01*
X446253Y-10736484D02*
X436729Y-10726960D01*
X436729Y-10726960D02*
X446253Y-10717436D01*
X446253Y-10717436D02*
X446253Y-10736484D01*
X636729Y-10536484D02*
X541491Y-10536484D01*
X541491Y-10536484D02*
X531967Y-10631722D01*
X531967Y-10631722D02*
X541491Y-10622198D01*
X541491Y-10622198D02*
X560539Y-10612674D01*
X560539Y-10612674D02*
X608158Y-10612674D01*
X608158Y-10612674D02*
X627205Y-10622198D01*
X627205Y-10622198D02*
X636729Y-10631722D01*
X636729Y-10631722D02*
X646253Y-10650770D01*
X646253Y-10650770D02*
X646253Y-10698389D01*
X646253Y-10698389D02*
X636729Y-10717436D01*
X636729Y-10717436D02*
X627205Y-10726960D01*
X627205Y-10726960D02*
X608158Y-10736484D01*
X608158Y-10736484D02*
X560539Y-10736484D01*
X560539Y-10736484D02*
X541491Y-10726960D01*
X541491Y-10726960D02*
X531967Y-10717436D01*
X770062Y-10536484D02*
X789110Y-10536484D01*
X789110Y-10536484D02*
X808158Y-10546008D01*
X808158Y-10546008D02*
X817682Y-10555531D01*
X817682Y-10555531D02*
X827205Y-10574579D01*
X827205Y-10574579D02*
X836729Y-10612674D01*
X836729Y-10612674D02*
X836729Y-10660293D01*
X836729Y-10660293D02*
X827205Y-10698389D01*
X827205Y-10698389D02*
X817682Y-10717436D01*
X817682Y-10717436D02*
X808158Y-10726960D01*
X808158Y-10726960D02*
X789110Y-10736484D01*
X789110Y-10736484D02*
X770062Y-10736484D01*
X770062Y-10736484D02*
X751015Y-10726960D01*
X751015Y-10726960D02*
X741491Y-10717436D01*
X741491Y-10717436D02*
X731967Y-10698389D01*
X731967Y-10698389D02*
X722443Y-10660293D01*
X722443Y-10660293D02*
X722443Y-10612674D01*
X722443Y-10612674D02*
X731967Y-10574579D01*
X731967Y-10574579D02*
X741491Y-10555531D01*
X741491Y-10555531D02*
X751015Y-10546008D01*
X751015Y-10546008D02*
X770062Y-10536484D01*
X960539Y-10536484D02*
X979586Y-10536484D01*
X979586Y-10536484D02*
X998634Y-10546008D01*
X998634Y-10546008D02*
X1008158Y-10555531D01*
X1008158Y-10555531D02*
X1017682Y-10574579D01*
X1017682Y-10574579D02*
X1027205Y-10612674D01*
X1027205Y-10612674D02*
X1027205Y-10660293D01*
X1027205Y-10660293D02*
X1017682Y-10698389D01*
X1017682Y-10698389D02*
X1008158Y-10717436D01*
X1008158Y-10717436D02*
X998634Y-10726960D01*
X998634Y-10726960D02*
X979586Y-10736484D01*
X979586Y-10736484D02*
X960539Y-10736484D01*
X960539Y-10736484D02*
X941491Y-10726960D01*
X941491Y-10726960D02*
X931967Y-10717436D01*
X931967Y-10717436D02*
X922443Y-10698389D01*
X922443Y-10698389D02*
X912920Y-10660293D01*
X912920Y-10660293D02*
X912920Y-10612674D01*
X912920Y-10612674D02*
X922443Y-10574579D01*
X922443Y-10574579D02*
X931967Y-10555531D01*
X931967Y-10555531D02*
X941491Y-10546008D01*
X941491Y-10546008D02*
X960539Y-10536484D01*
X1112920Y-10736484D02*
X1112920Y-10603150D01*
X1112920Y-10622198D02*
X1122444Y-10612674D01*
X1122444Y-10612674D02*
X1141491Y-10603150D01*
X1141491Y-10603150D02*
X1170063Y-10603150D01*
X1170063Y-10603150D02*
X1189110Y-10612674D01*
X1189110Y-10612674D02*
X1198634Y-10631722D01*
X1198634Y-10631722D02*
X1198634Y-10736484D01*
X1198634Y-10631722D02*
X1208158Y-10612674D01*
X1208158Y-10612674D02*
X1227205Y-10603150D01*
X1227205Y-10603150D02*
X1255777Y-10603150D01*
X1255777Y-10603150D02*
X1274825Y-10612674D01*
X1274825Y-10612674D02*
X1284348Y-10631722D01*
X1284348Y-10631722D02*
X1284348Y-10736484D01*
X1379586Y-10736484D02*
X1379586Y-10603150D01*
X1379586Y-10622198D02*
X1389110Y-10612674D01*
X1389110Y-10612674D02*
X1408158Y-10603150D01*
X1408158Y-10603150D02*
X1436729Y-10603150D01*
X1436729Y-10603150D02*
X1455777Y-10612674D01*
X1455777Y-10612674D02*
X1465301Y-10631722D01*
X1465301Y-10631722D02*
X1465301Y-10736484D01*
X1465301Y-10631722D02*
X1474824Y-10612674D01*
X1474824Y-10612674D02*
X1493872Y-10603150D01*
X1493872Y-10603150D02*
X1522443Y-10603150D01*
X1522443Y-10603150D02*
X1541491Y-10612674D01*
X1541491Y-10612674D02*
X1551015Y-10631722D01*
X1551015Y-10631722D02*
X1551015Y-10736484D01*
X1941491Y-10526960D02*
X1770063Y-10784103D01*
X2198634Y-10536484D02*
X2217682Y-10536484D01*
X2217682Y-10536484D02*
X2236729Y-10546008D01*
X2236729Y-10546008D02*
X2246253Y-10555531D01*
X2246253Y-10555531D02*
X2255777Y-10574579D01*
X2255777Y-10574579D02*
X2265301Y-10612674D01*
X2265301Y-10612674D02*
X2265301Y-10660293D01*
X2265301Y-10660293D02*
X2255777Y-10698389D01*
X2255777Y-10698389D02*
X2246253Y-10717436D01*
X2246253Y-10717436D02*
X2236729Y-10726960D01*
X2236729Y-10726960D02*
X2217682Y-10736484D01*
X2217682Y-10736484D02*
X2198634Y-10736484D01*
X2198634Y-10736484D02*
X2179587Y-10726960D01*
X2179587Y-10726960D02*
X2170063Y-10717436D01*
X2170063Y-10717436D02*
X2160539Y-10698389D01*
X2160539Y-10698389D02*
X2151015Y-10660293D01*
X2151015Y-10660293D02*
X2151015Y-10612674D01*
X2151015Y-10612674D02*
X2160539Y-10574579D01*
X2160539Y-10574579D02*
X2170063Y-10555531D01*
X2170063Y-10555531D02*
X2179587Y-10546008D01*
X2179587Y-10546008D02*
X2198634Y-10536484D01*
X2351015Y-10717436D02*
X2360539Y-10726960D01*
X2360539Y-10726960D02*
X2351015Y-10736484D01*
X2351015Y-10736484D02*
X2341491Y-10726960D01*
X2341491Y-10726960D02*
X2351015Y-10717436D01*
X2351015Y-10717436D02*
X2351015Y-10736484D01*
X2484348Y-10536484D02*
X2503396Y-10536484D01*
X2503396Y-10536484D02*
X2522444Y-10546008D01*
X2522444Y-10546008D02*
X2531968Y-10555531D01*
X2531968Y-10555531D02*
X2541491Y-10574579D01*
X2541491Y-10574579D02*
X2551015Y-10612674D01*
X2551015Y-10612674D02*
X2551015Y-10660293D01*
X2551015Y-10660293D02*
X2541491Y-10698389D01*
X2541491Y-10698389D02*
X2531968Y-10717436D01*
X2531968Y-10717436D02*
X2522444Y-10726960D01*
X2522444Y-10726960D02*
X2503396Y-10736484D01*
X2503396Y-10736484D02*
X2484348Y-10736484D01*
X2484348Y-10736484D02*
X2465301Y-10726960D01*
X2465301Y-10726960D02*
X2455777Y-10717436D01*
X2455777Y-10717436D02*
X2446253Y-10698389D01*
X2446253Y-10698389D02*
X2436729Y-10660293D01*
X2436729Y-10660293D02*
X2436729Y-10612674D01*
X2436729Y-10612674D02*
X2446253Y-10574579D01*
X2446253Y-10574579D02*
X2455777Y-10555531D01*
X2455777Y-10555531D02*
X2465301Y-10546008D01*
X2465301Y-10546008D02*
X2484348Y-10536484D01*
X2731968Y-10536484D02*
X2636729Y-10536484D01*
X2636729Y-10536484D02*
X2627206Y-10631722D01*
X2627206Y-10631722D02*
X2636729Y-10622198D01*
X2636729Y-10622198D02*
X2655777Y-10612674D01*
X2655777Y-10612674D02*
X2703396Y-10612674D01*
X2703396Y-10612674D02*
X2722444Y-10622198D01*
X2722444Y-10622198D02*
X2731968Y-10631722D01*
X2731968Y-10631722D02*
X2741491Y-10650770D01*
X2741491Y-10650770D02*
X2741491Y-10698389D01*
X2741491Y-10698389D02*
X2731968Y-10717436D01*
X2731968Y-10717436D02*
X2722444Y-10726960D01*
X2722444Y-10726960D02*
X2703396Y-10736484D01*
X2703396Y-10736484D02*
X2655777Y-10736484D01*
X2655777Y-10736484D02*
X2636729Y-10726960D01*
X2636729Y-10726960D02*
X2627206Y-10717436D01*
X2836729Y-10736484D02*
X2874825Y-10736484D01*
X2874825Y-10736484D02*
X2893872Y-10726960D01*
X2893872Y-10726960D02*
X2903396Y-10717436D01*
X2903396Y-10717436D02*
X2922444Y-10688865D01*
X2922444Y-10688865D02*
X2931967Y-10650770D01*
X2931967Y-10650770D02*
X2931967Y-10574579D01*
X2931967Y-10574579D02*
X2922444Y-10555531D01*
X2922444Y-10555531D02*
X2912920Y-10546008D01*
X2912920Y-10546008D02*
X2893872Y-10536484D01*
X2893872Y-10536484D02*
X2855777Y-10536484D01*
X2855777Y-10536484D02*
X2836729Y-10546008D01*
X2836729Y-10546008D02*
X2827206Y-10555531D01*
X2827206Y-10555531D02*
X2817682Y-10574579D01*
X2817682Y-10574579D02*
X2817682Y-10622198D01*
X2817682Y-10622198D02*
X2827206Y-10641246D01*
X2827206Y-10641246D02*
X2836729Y-10650770D01*
X2836729Y-10650770D02*
X2855777Y-10660293D01*
X2855777Y-10660293D02*
X2893872Y-10660293D01*
X2893872Y-10660293D02*
X2912920Y-10650770D01*
X2912920Y-10650770D02*
X2922444Y-10641246D01*
X2922444Y-10641246D02*
X2931967Y-10622198D01*
X3122444Y-10736484D02*
X3008158Y-10736484D01*
X3065301Y-10736484D02*
X3065301Y-10536484D01*
X3065301Y-10536484D02*
X3046253Y-10565055D01*
X3046253Y-10565055D02*
X3027206Y-10584103D01*
X3027206Y-10584103D02*
X3008158Y-10593627D01*
X3198634Y-10536484D02*
X3198634Y-10574579D01*
X3274825Y-10536484D02*
X3274825Y-10574579D01*
X3570063Y-10812674D02*
X3560539Y-10803150D01*
X3560539Y-10803150D02*
X3541491Y-10774579D01*
X3541491Y-10774579D02*
X3531968Y-10755531D01*
X3531968Y-10755531D02*
X3522444Y-10726960D01*
X3522444Y-10726960D02*
X3512920Y-10679341D01*
X3512920Y-10679341D02*
X3512920Y-10641246D01*
X3512920Y-10641246D02*
X3522444Y-10593627D01*
X3522444Y-10593627D02*
X3531968Y-10565055D01*
X3531968Y-10565055D02*
X3541491Y-10546008D01*
X3541491Y-10546008D02*
X3560539Y-10517436D01*
X3560539Y-10517436D02*
X3570063Y-10507912D01*
X3731968Y-10603150D02*
X3731968Y-10736484D01*
X3684348Y-10526960D02*
X3636729Y-10669817D01*
X3636729Y-10669817D02*
X3760539Y-10669817D01*
X3989110Y-10736484D02*
X3989110Y-10536484D01*
X4074825Y-10736484D02*
X4074825Y-10631722D01*
X4074825Y-10631722D02*
X4065301Y-10612674D01*
X4065301Y-10612674D02*
X4046253Y-10603150D01*
X4046253Y-10603150D02*
X4017682Y-10603150D01*
X4017682Y-10603150D02*
X3998634Y-10612674D01*
X3998634Y-10612674D02*
X3989110Y-10622198D01*
X4198634Y-10736484D02*
X4179587Y-10726960D01*
X4179587Y-10726960D02*
X4170063Y-10717436D01*
X4170063Y-10717436D02*
X4160539Y-10698389D01*
X4160539Y-10698389D02*
X4160539Y-10641246D01*
X4160539Y-10641246D02*
X4170063Y-10622198D01*
X4170063Y-10622198D02*
X4179587Y-10612674D01*
X4179587Y-10612674D02*
X4198634Y-10603150D01*
X4198634Y-10603150D02*
X4227206Y-10603150D01*
X4227206Y-10603150D02*
X4246253Y-10612674D01*
X4246253Y-10612674D02*
X4255777Y-10622198D01*
X4255777Y-10622198D02*
X4265301Y-10641246D01*
X4265301Y-10641246D02*
X4265301Y-10698389D01*
X4265301Y-10698389D02*
X4255777Y-10717436D01*
X4255777Y-10717436D02*
X4246253Y-10726960D01*
X4246253Y-10726960D02*
X4227206Y-10736484D01*
X4227206Y-10736484D02*
X4198634Y-10736484D01*
X4379587Y-10736484D02*
X4360539Y-10726960D01*
X4360539Y-10726960D02*
X4351015Y-10707912D01*
X4351015Y-10707912D02*
X4351015Y-10536484D01*
X4531968Y-10726960D02*
X4512920Y-10736484D01*
X4512920Y-10736484D02*
X4474825Y-10736484D01*
X4474825Y-10736484D02*
X4455777Y-10726960D01*
X4455777Y-10726960D02*
X4446253Y-10707912D01*
X4446253Y-10707912D02*
X4446253Y-10631722D01*
X4446253Y-10631722D02*
X4455777Y-10612674D01*
X4455777Y-10612674D02*
X4474825Y-10603150D01*
X4474825Y-10603150D02*
X4512920Y-10603150D01*
X4512920Y-10603150D02*
X4531968Y-10612674D01*
X4531968Y-10612674D02*
X4541492Y-10631722D01*
X4541492Y-10631722D02*
X4541492Y-10650770D01*
X4541492Y-10650770D02*
X4446253Y-10669817D01*
X4617682Y-10726960D02*
X4636730Y-10736484D01*
X4636730Y-10736484D02*
X4674825Y-10736484D01*
X4674825Y-10736484D02*
X4693873Y-10726960D01*
X4693873Y-10726960D02*
X4703396Y-10707912D01*
X4703396Y-10707912D02*
X4703396Y-10698389D01*
X4703396Y-10698389D02*
X4693873Y-10679341D01*
X4693873Y-10679341D02*
X4674825Y-10669817D01*
X4674825Y-10669817D02*
X4646253Y-10669817D01*
X4646253Y-10669817D02*
X4627206Y-10660293D01*
X4627206Y-10660293D02*
X4617682Y-10641246D01*
X4617682Y-10641246D02*
X4617682Y-10631722D01*
X4617682Y-10631722D02*
X4627206Y-10612674D01*
X4627206Y-10612674D02*
X4646253Y-10603150D01*
X4646253Y-10603150D02*
X4674825Y-10603150D01*
X4674825Y-10603150D02*
X4693873Y-10612674D01*
X4770063Y-10812674D02*
X4779587Y-10803150D01*
X4779587Y-10803150D02*
X4798634Y-10774579D01*
X4798634Y-10774579D02*
X4808158Y-10755531D01*
X4808158Y-10755531D02*
X4817682Y-10726960D01*
X4817682Y-10726960D02*
X4827206Y-10679341D01*
X4827206Y-10679341D02*
X4827206Y-10641246D01*
X4827206Y-10641246D02*
X4817682Y-10593627D01*
X4817682Y-10593627D02*
X4808158Y-10565055D01*
X4808158Y-10565055D02*
X4798634Y-10546008D01*
X4798634Y-10546008D02*
X4779587Y-10517436D01*
X4779587Y-10517436D02*
X4770063Y-10507912D01*
D13*
X-5000Y-10915000D02*
G75*
G02*
X-175000Y-10915000I-85000J0D01*
G01*
X-175000Y-10915000D02*
G75*
G02*
X-5000Y-10915000I85000J0D01*
G01*
D11*
X360539Y-11006484D02*
X246253Y-11006484D01*
X303396Y-11006484D02*
X303396Y-10806484D01*
X303396Y-10806484D02*
X284348Y-10835055D01*
X284348Y-10835055D02*
X265301Y-10854103D01*
X265301Y-10854103D02*
X246253Y-10863627D01*
X446253Y-10987436D02*
X455777Y-10996960D01*
X455777Y-10996960D02*
X446253Y-11006484D01*
X446253Y-11006484D02*
X436729Y-10996960D01*
X436729Y-10996960D02*
X446253Y-10987436D01*
X446253Y-10987436D02*
X446253Y-11006484D01*
X522443Y-10806484D02*
X655777Y-10806484D01*
X655777Y-10806484D02*
X570063Y-11006484D01*
X770062Y-10806484D02*
X789110Y-10806484D01*
X789110Y-10806484D02*
X808158Y-10816008D01*
X808158Y-10816008D02*
X817682Y-10825531D01*
X817682Y-10825531D02*
X827205Y-10844579D01*
X827205Y-10844579D02*
X836729Y-10882674D01*
X836729Y-10882674D02*
X836729Y-10930293D01*
X836729Y-10930293D02*
X827205Y-10968389D01*
X827205Y-10968389D02*
X817682Y-10987436D01*
X817682Y-10987436D02*
X808158Y-10996960D01*
X808158Y-10996960D02*
X789110Y-11006484D01*
X789110Y-11006484D02*
X770062Y-11006484D01*
X770062Y-11006484D02*
X751015Y-10996960D01*
X751015Y-10996960D02*
X741491Y-10987436D01*
X741491Y-10987436D02*
X731967Y-10968389D01*
X731967Y-10968389D02*
X722443Y-10930293D01*
X722443Y-10930293D02*
X722443Y-10882674D01*
X722443Y-10882674D02*
X731967Y-10844579D01*
X731967Y-10844579D02*
X741491Y-10825531D01*
X741491Y-10825531D02*
X751015Y-10816008D01*
X751015Y-10816008D02*
X770062Y-10806484D01*
X960539Y-10806484D02*
X979586Y-10806484D01*
X979586Y-10806484D02*
X998634Y-10816008D01*
X998634Y-10816008D02*
X1008158Y-10825531D01*
X1008158Y-10825531D02*
X1017682Y-10844579D01*
X1017682Y-10844579D02*
X1027205Y-10882674D01*
X1027205Y-10882674D02*
X1027205Y-10930293D01*
X1027205Y-10930293D02*
X1017682Y-10968389D01*
X1017682Y-10968389D02*
X1008158Y-10987436D01*
X1008158Y-10987436D02*
X998634Y-10996960D01*
X998634Y-10996960D02*
X979586Y-11006484D01*
X979586Y-11006484D02*
X960539Y-11006484D01*
X960539Y-11006484D02*
X941491Y-10996960D01*
X941491Y-10996960D02*
X931967Y-10987436D01*
X931967Y-10987436D02*
X922443Y-10968389D01*
X922443Y-10968389D02*
X912920Y-10930293D01*
X912920Y-10930293D02*
X912920Y-10882674D01*
X912920Y-10882674D02*
X922443Y-10844579D01*
X922443Y-10844579D02*
X931967Y-10825531D01*
X931967Y-10825531D02*
X941491Y-10816008D01*
X941491Y-10816008D02*
X960539Y-10806484D01*
X1112920Y-11006484D02*
X1112920Y-10873150D01*
X1112920Y-10892198D02*
X1122444Y-10882674D01*
X1122444Y-10882674D02*
X1141491Y-10873150D01*
X1141491Y-10873150D02*
X1170063Y-10873150D01*
X1170063Y-10873150D02*
X1189110Y-10882674D01*
X1189110Y-10882674D02*
X1198634Y-10901722D01*
X1198634Y-10901722D02*
X1198634Y-11006484D01*
X1198634Y-10901722D02*
X1208158Y-10882674D01*
X1208158Y-10882674D02*
X1227205Y-10873150D01*
X1227205Y-10873150D02*
X1255777Y-10873150D01*
X1255777Y-10873150D02*
X1274825Y-10882674D01*
X1274825Y-10882674D02*
X1284348Y-10901722D01*
X1284348Y-10901722D02*
X1284348Y-11006484D01*
X1379586Y-11006484D02*
X1379586Y-10873150D01*
X1379586Y-10892198D02*
X1389110Y-10882674D01*
X1389110Y-10882674D02*
X1408158Y-10873150D01*
X1408158Y-10873150D02*
X1436729Y-10873150D01*
X1436729Y-10873150D02*
X1455777Y-10882674D01*
X1455777Y-10882674D02*
X1465301Y-10901722D01*
X1465301Y-10901722D02*
X1465301Y-11006484D01*
X1465301Y-10901722D02*
X1474824Y-10882674D01*
X1474824Y-10882674D02*
X1493872Y-10873150D01*
X1493872Y-10873150D02*
X1522443Y-10873150D01*
X1522443Y-10873150D02*
X1541491Y-10882674D01*
X1541491Y-10882674D02*
X1551015Y-10901722D01*
X1551015Y-10901722D02*
X1551015Y-11006484D01*
X1941491Y-10796960D02*
X1770063Y-11054103D01*
X2198634Y-10806484D02*
X2217682Y-10806484D01*
X2217682Y-10806484D02*
X2236729Y-10816008D01*
X2236729Y-10816008D02*
X2246253Y-10825531D01*
X2246253Y-10825531D02*
X2255777Y-10844579D01*
X2255777Y-10844579D02*
X2265301Y-10882674D01*
X2265301Y-10882674D02*
X2265301Y-10930293D01*
X2265301Y-10930293D02*
X2255777Y-10968389D01*
X2255777Y-10968389D02*
X2246253Y-10987436D01*
X2246253Y-10987436D02*
X2236729Y-10996960D01*
X2236729Y-10996960D02*
X2217682Y-11006484D01*
X2217682Y-11006484D02*
X2198634Y-11006484D01*
X2198634Y-11006484D02*
X2179587Y-10996960D01*
X2179587Y-10996960D02*
X2170063Y-10987436D01*
X2170063Y-10987436D02*
X2160539Y-10968389D01*
X2160539Y-10968389D02*
X2151015Y-10930293D01*
X2151015Y-10930293D02*
X2151015Y-10882674D01*
X2151015Y-10882674D02*
X2160539Y-10844579D01*
X2160539Y-10844579D02*
X2170063Y-10825531D01*
X2170063Y-10825531D02*
X2179587Y-10816008D01*
X2179587Y-10816008D02*
X2198634Y-10806484D01*
X2351015Y-10987436D02*
X2360539Y-10996960D01*
X2360539Y-10996960D02*
X2351015Y-11006484D01*
X2351015Y-11006484D02*
X2341491Y-10996960D01*
X2341491Y-10996960D02*
X2351015Y-10987436D01*
X2351015Y-10987436D02*
X2351015Y-11006484D01*
X2484348Y-10806484D02*
X2503396Y-10806484D01*
X2503396Y-10806484D02*
X2522444Y-10816008D01*
X2522444Y-10816008D02*
X2531968Y-10825531D01*
X2531968Y-10825531D02*
X2541491Y-10844579D01*
X2541491Y-10844579D02*
X2551015Y-10882674D01*
X2551015Y-10882674D02*
X2551015Y-10930293D01*
X2551015Y-10930293D02*
X2541491Y-10968389D01*
X2541491Y-10968389D02*
X2531968Y-10987436D01*
X2531968Y-10987436D02*
X2522444Y-10996960D01*
X2522444Y-10996960D02*
X2503396Y-11006484D01*
X2503396Y-11006484D02*
X2484348Y-11006484D01*
X2484348Y-11006484D02*
X2465301Y-10996960D01*
X2465301Y-10996960D02*
X2455777Y-10987436D01*
X2455777Y-10987436D02*
X2446253Y-10968389D01*
X2446253Y-10968389D02*
X2436729Y-10930293D01*
X2436729Y-10930293D02*
X2436729Y-10882674D01*
X2436729Y-10882674D02*
X2446253Y-10844579D01*
X2446253Y-10844579D02*
X2455777Y-10825531D01*
X2455777Y-10825531D02*
X2465301Y-10816008D01*
X2465301Y-10816008D02*
X2484348Y-10806484D01*
X2722444Y-10806484D02*
X2684348Y-10806484D01*
X2684348Y-10806484D02*
X2665301Y-10816008D01*
X2665301Y-10816008D02*
X2655777Y-10825531D01*
X2655777Y-10825531D02*
X2636729Y-10854103D01*
X2636729Y-10854103D02*
X2627206Y-10892198D01*
X2627206Y-10892198D02*
X2627206Y-10968389D01*
X2627206Y-10968389D02*
X2636729Y-10987436D01*
X2636729Y-10987436D02*
X2646253Y-10996960D01*
X2646253Y-10996960D02*
X2665301Y-11006484D01*
X2665301Y-11006484D02*
X2703396Y-11006484D01*
X2703396Y-11006484D02*
X2722444Y-10996960D01*
X2722444Y-10996960D02*
X2731968Y-10987436D01*
X2731968Y-10987436D02*
X2741491Y-10968389D01*
X2741491Y-10968389D02*
X2741491Y-10920770D01*
X2741491Y-10920770D02*
X2731968Y-10901722D01*
X2731968Y-10901722D02*
X2722444Y-10892198D01*
X2722444Y-10892198D02*
X2703396Y-10882674D01*
X2703396Y-10882674D02*
X2665301Y-10882674D01*
X2665301Y-10882674D02*
X2646253Y-10892198D01*
X2646253Y-10892198D02*
X2636729Y-10901722D01*
X2636729Y-10901722D02*
X2627206Y-10920770D01*
X2912920Y-10806484D02*
X2874825Y-10806484D01*
X2874825Y-10806484D02*
X2855777Y-10816008D01*
X2855777Y-10816008D02*
X2846253Y-10825531D01*
X2846253Y-10825531D02*
X2827206Y-10854103D01*
X2827206Y-10854103D02*
X2817682Y-10892198D01*
X2817682Y-10892198D02*
X2817682Y-10968389D01*
X2817682Y-10968389D02*
X2827206Y-10987436D01*
X2827206Y-10987436D02*
X2836729Y-10996960D01*
X2836729Y-10996960D02*
X2855777Y-11006484D01*
X2855777Y-11006484D02*
X2893872Y-11006484D01*
X2893872Y-11006484D02*
X2912920Y-10996960D01*
X2912920Y-10996960D02*
X2922444Y-10987436D01*
X2922444Y-10987436D02*
X2931967Y-10968389D01*
X2931967Y-10968389D02*
X2931967Y-10920770D01*
X2931967Y-10920770D02*
X2922444Y-10901722D01*
X2922444Y-10901722D02*
X2912920Y-10892198D01*
X2912920Y-10892198D02*
X2893872Y-10882674D01*
X2893872Y-10882674D02*
X2855777Y-10882674D01*
X2855777Y-10882674D02*
X2836729Y-10892198D01*
X2836729Y-10892198D02*
X2827206Y-10901722D01*
X2827206Y-10901722D02*
X2817682Y-10920770D01*
X3027206Y-11006484D02*
X3065301Y-11006484D01*
X3065301Y-11006484D02*
X3084348Y-10996960D01*
X3084348Y-10996960D02*
X3093872Y-10987436D01*
X3093872Y-10987436D02*
X3112920Y-10958865D01*
X3112920Y-10958865D02*
X3122444Y-10920770D01*
X3122444Y-10920770D02*
X3122444Y-10844579D01*
X3122444Y-10844579D02*
X3112920Y-10825531D01*
X3112920Y-10825531D02*
X3103396Y-10816008D01*
X3103396Y-10816008D02*
X3084348Y-10806484D01*
X3084348Y-10806484D02*
X3046253Y-10806484D01*
X3046253Y-10806484D02*
X3027206Y-10816008D01*
X3027206Y-10816008D02*
X3017682Y-10825531D01*
X3017682Y-10825531D02*
X3008158Y-10844579D01*
X3008158Y-10844579D02*
X3008158Y-10892198D01*
X3008158Y-10892198D02*
X3017682Y-10911246D01*
X3017682Y-10911246D02*
X3027206Y-10920770D01*
X3027206Y-10920770D02*
X3046253Y-10930293D01*
X3046253Y-10930293D02*
X3084348Y-10930293D01*
X3084348Y-10930293D02*
X3103396Y-10920770D01*
X3103396Y-10920770D02*
X3112920Y-10911246D01*
X3112920Y-10911246D02*
X3122444Y-10892198D01*
X3198634Y-10806484D02*
X3198634Y-10844579D01*
X3274825Y-10806484D02*
X3274825Y-10844579D01*
X3570063Y-11082674D02*
X3560539Y-11073150D01*
X3560539Y-11073150D02*
X3541491Y-11044579D01*
X3541491Y-11044579D02*
X3531968Y-11025531D01*
X3531968Y-11025531D02*
X3522444Y-10996960D01*
X3522444Y-10996960D02*
X3512920Y-10949341D01*
X3512920Y-10949341D02*
X3512920Y-10911246D01*
X3512920Y-10911246D02*
X3522444Y-10863627D01*
X3522444Y-10863627D02*
X3531968Y-10835055D01*
X3531968Y-10835055D02*
X3541491Y-10816008D01*
X3541491Y-10816008D02*
X3560539Y-10787436D01*
X3560539Y-10787436D02*
X3570063Y-10777912D01*
X3627206Y-10806484D02*
X3751015Y-10806484D01*
X3751015Y-10806484D02*
X3684348Y-10882674D01*
X3684348Y-10882674D02*
X3712920Y-10882674D01*
X3712920Y-10882674D02*
X3731968Y-10892198D01*
X3731968Y-10892198D02*
X3741491Y-10901722D01*
X3741491Y-10901722D02*
X3751015Y-10920770D01*
X3751015Y-10920770D02*
X3751015Y-10968389D01*
X3751015Y-10968389D02*
X3741491Y-10987436D01*
X3741491Y-10987436D02*
X3731968Y-10996960D01*
X3731968Y-10996960D02*
X3712920Y-11006484D01*
X3712920Y-11006484D02*
X3655777Y-11006484D01*
X3655777Y-11006484D02*
X3636729Y-10996960D01*
X3636729Y-10996960D02*
X3627206Y-10987436D01*
X3874825Y-10806484D02*
X3893872Y-10806484D01*
X3893872Y-10806484D02*
X3912920Y-10816008D01*
X3912920Y-10816008D02*
X3922444Y-10825531D01*
X3922444Y-10825531D02*
X3931968Y-10844579D01*
X3931968Y-10844579D02*
X3941491Y-10882674D01*
X3941491Y-10882674D02*
X3941491Y-10930293D01*
X3941491Y-10930293D02*
X3931968Y-10968389D01*
X3931968Y-10968389D02*
X3922444Y-10987436D01*
X3922444Y-10987436D02*
X3912920Y-10996960D01*
X3912920Y-10996960D02*
X3893872Y-11006484D01*
X3893872Y-11006484D02*
X3874825Y-11006484D01*
X3874825Y-11006484D02*
X3855777Y-10996960D01*
X3855777Y-10996960D02*
X3846253Y-10987436D01*
X3846253Y-10987436D02*
X3836729Y-10968389D01*
X3836729Y-10968389D02*
X3827206Y-10930293D01*
X3827206Y-10930293D02*
X3827206Y-10882674D01*
X3827206Y-10882674D02*
X3836729Y-10844579D01*
X3836729Y-10844579D02*
X3846253Y-10825531D01*
X3846253Y-10825531D02*
X3855777Y-10816008D01*
X3855777Y-10816008D02*
X3874825Y-10806484D01*
X4179587Y-11006484D02*
X4179587Y-10806484D01*
X4265301Y-11006484D02*
X4265301Y-10901722D01*
X4265301Y-10901722D02*
X4255777Y-10882674D01*
X4255777Y-10882674D02*
X4236730Y-10873150D01*
X4236730Y-10873150D02*
X4208158Y-10873150D01*
X4208158Y-10873150D02*
X4189110Y-10882674D01*
X4189110Y-10882674D02*
X4179587Y-10892198D01*
X4389111Y-11006484D02*
X4370063Y-10996960D01*
X4370063Y-10996960D02*
X4360539Y-10987436D01*
X4360539Y-10987436D02*
X4351015Y-10968389D01*
X4351015Y-10968389D02*
X4351015Y-10911246D01*
X4351015Y-10911246D02*
X4360539Y-10892198D01*
X4360539Y-10892198D02*
X4370063Y-10882674D01*
X4370063Y-10882674D02*
X4389111Y-10873150D01*
X4389111Y-10873150D02*
X4417682Y-10873150D01*
X4417682Y-10873150D02*
X4436730Y-10882674D01*
X4436730Y-10882674D02*
X4446253Y-10892198D01*
X4446253Y-10892198D02*
X4455777Y-10911246D01*
X4455777Y-10911246D02*
X4455777Y-10968389D01*
X4455777Y-10968389D02*
X4446253Y-10987436D01*
X4446253Y-10987436D02*
X4436730Y-10996960D01*
X4436730Y-10996960D02*
X4417682Y-11006484D01*
X4417682Y-11006484D02*
X4389111Y-11006484D01*
X4570063Y-11006484D02*
X4551015Y-10996960D01*
X4551015Y-10996960D02*
X4541492Y-10977912D01*
X4541492Y-10977912D02*
X4541492Y-10806484D01*
X4722444Y-10996960D02*
X4703396Y-11006484D01*
X4703396Y-11006484D02*
X4665301Y-11006484D01*
X4665301Y-11006484D02*
X4646253Y-10996960D01*
X4646253Y-10996960D02*
X4636730Y-10977912D01*
X4636730Y-10977912D02*
X4636730Y-10901722D01*
X4636730Y-10901722D02*
X4646253Y-10882674D01*
X4646253Y-10882674D02*
X4665301Y-10873150D01*
X4665301Y-10873150D02*
X4703396Y-10873150D01*
X4703396Y-10873150D02*
X4722444Y-10882674D01*
X4722444Y-10882674D02*
X4731968Y-10901722D01*
X4731968Y-10901722D02*
X4731968Y-10920770D01*
X4731968Y-10920770D02*
X4636730Y-10939817D01*
X4808158Y-10996960D02*
X4827206Y-11006484D01*
X4827206Y-11006484D02*
X4865301Y-11006484D01*
X4865301Y-11006484D02*
X4884349Y-10996960D01*
X4884349Y-10996960D02*
X4893873Y-10977912D01*
X4893873Y-10977912D02*
X4893873Y-10968389D01*
X4893873Y-10968389D02*
X4884349Y-10949341D01*
X4884349Y-10949341D02*
X4865301Y-10939817D01*
X4865301Y-10939817D02*
X4836730Y-10939817D01*
X4836730Y-10939817D02*
X4817682Y-10930293D01*
X4817682Y-10930293D02*
X4808158Y-10911246D01*
X4808158Y-10911246D02*
X4808158Y-10901722D01*
X4808158Y-10901722D02*
X4817682Y-10882674D01*
X4817682Y-10882674D02*
X4836730Y-10873150D01*
X4836730Y-10873150D02*
X4865301Y-10873150D01*
X4865301Y-10873150D02*
X4884349Y-10882674D01*
X4960539Y-11082674D02*
X4970063Y-11073150D01*
X4970063Y-11073150D02*
X4989111Y-11044579D01*
X4989111Y-11044579D02*
X4998634Y-11025531D01*
X4998634Y-11025531D02*
X5008158Y-10996960D01*
X5008158Y-10996960D02*
X5017682Y-10949341D01*
X5017682Y-10949341D02*
X5017682Y-10911246D01*
X5017682Y-10911246D02*
X5008158Y-10863627D01*
X5008158Y-10863627D02*
X4998634Y-10835055D01*
X4998634Y-10835055D02*
X4989111Y-10816008D01*
X4989111Y-10816008D02*
X4970063Y-10787436D01*
X4970063Y-10787436D02*
X4960539Y-10777912D01*
X-105000Y-11105000D02*
X-105000Y-11305000D01*
X-205000Y-11205000D02*
X-5000Y-11205000D01*
X341491Y-11096484D02*
X303396Y-11096484D01*
X303396Y-11096484D02*
X284348Y-11106008D01*
X284348Y-11106008D02*
X274824Y-11115531D01*
X274824Y-11115531D02*
X255777Y-11144103D01*
X255777Y-11144103D02*
X246253Y-11182198D01*
X246253Y-11182198D02*
X246253Y-11258388D01*
X246253Y-11258388D02*
X255777Y-11277436D01*
X255777Y-11277436D02*
X265301Y-11286960D01*
X265301Y-11286960D02*
X284348Y-11296484D01*
X284348Y-11296484D02*
X322444Y-11296484D01*
X322444Y-11296484D02*
X341491Y-11286960D01*
X341491Y-11286960D02*
X351015Y-11277436D01*
X351015Y-11277436D02*
X360539Y-11258388D01*
X360539Y-11258388D02*
X360539Y-11210769D01*
X360539Y-11210769D02*
X351015Y-11191722D01*
X351015Y-11191722D02*
X341491Y-11182198D01*
X341491Y-11182198D02*
X322444Y-11172674D01*
X322444Y-11172674D02*
X284348Y-11172674D01*
X284348Y-11172674D02*
X265301Y-11182198D01*
X265301Y-11182198D02*
X255777Y-11191722D01*
X255777Y-11191722D02*
X246253Y-11210769D01*
X446253Y-11277436D02*
X455777Y-11286960D01*
X455777Y-11286960D02*
X446253Y-11296484D01*
X446253Y-11296484D02*
X436729Y-11286960D01*
X436729Y-11286960D02*
X446253Y-11277436D01*
X446253Y-11277436D02*
X446253Y-11296484D01*
X627205Y-11163150D02*
X627205Y-11296484D01*
X579586Y-11086960D02*
X531967Y-11229817D01*
X531967Y-11229817D02*
X655777Y-11229817D01*
X770062Y-11096484D02*
X789110Y-11096484D01*
X789110Y-11096484D02*
X808158Y-11106008D01*
X808158Y-11106008D02*
X817682Y-11115531D01*
X817682Y-11115531D02*
X827205Y-11134579D01*
X827205Y-11134579D02*
X836729Y-11172674D01*
X836729Y-11172674D02*
X836729Y-11220293D01*
X836729Y-11220293D02*
X827205Y-11258388D01*
X827205Y-11258388D02*
X817682Y-11277436D01*
X817682Y-11277436D02*
X808158Y-11286960D01*
X808158Y-11286960D02*
X789110Y-11296484D01*
X789110Y-11296484D02*
X770062Y-11296484D01*
X770062Y-11296484D02*
X751015Y-11286960D01*
X751015Y-11286960D02*
X741491Y-11277436D01*
X741491Y-11277436D02*
X731967Y-11258388D01*
X731967Y-11258388D02*
X722443Y-11220293D01*
X722443Y-11220293D02*
X722443Y-11172674D01*
X722443Y-11172674D02*
X731967Y-11134579D01*
X731967Y-11134579D02*
X741491Y-11115531D01*
X741491Y-11115531D02*
X751015Y-11106008D01*
X751015Y-11106008D02*
X770062Y-11096484D01*
X960539Y-11096484D02*
X979586Y-11096484D01*
X979586Y-11096484D02*
X998634Y-11106008D01*
X998634Y-11106008D02*
X1008158Y-11115531D01*
X1008158Y-11115531D02*
X1017682Y-11134579D01*
X1017682Y-11134579D02*
X1027205Y-11172674D01*
X1027205Y-11172674D02*
X1027205Y-11220293D01*
X1027205Y-11220293D02*
X1017682Y-11258388D01*
X1017682Y-11258388D02*
X1008158Y-11277436D01*
X1008158Y-11277436D02*
X998634Y-11286960D01*
X998634Y-11286960D02*
X979586Y-11296484D01*
X979586Y-11296484D02*
X960539Y-11296484D01*
X960539Y-11296484D02*
X941491Y-11286960D01*
X941491Y-11286960D02*
X931967Y-11277436D01*
X931967Y-11277436D02*
X922443Y-11258388D01*
X922443Y-11258388D02*
X912920Y-11220293D01*
X912920Y-11220293D02*
X912920Y-11172674D01*
X912920Y-11172674D02*
X922443Y-11134579D01*
X922443Y-11134579D02*
X931967Y-11115531D01*
X931967Y-11115531D02*
X941491Y-11106008D01*
X941491Y-11106008D02*
X960539Y-11096484D01*
X1112920Y-11296484D02*
X1112920Y-11163150D01*
X1112920Y-11182198D02*
X1122444Y-11172674D01*
X1122444Y-11172674D02*
X1141491Y-11163150D01*
X1141491Y-11163150D02*
X1170063Y-11163150D01*
X1170063Y-11163150D02*
X1189110Y-11172674D01*
X1189110Y-11172674D02*
X1198634Y-11191722D01*
X1198634Y-11191722D02*
X1198634Y-11296484D01*
X1198634Y-11191722D02*
X1208158Y-11172674D01*
X1208158Y-11172674D02*
X1227205Y-11163150D01*
X1227205Y-11163150D02*
X1255777Y-11163150D01*
X1255777Y-11163150D02*
X1274825Y-11172674D01*
X1274825Y-11172674D02*
X1284348Y-11191722D01*
X1284348Y-11191722D02*
X1284348Y-11296484D01*
X1379586Y-11296484D02*
X1379586Y-11163150D01*
X1379586Y-11182198D02*
X1389110Y-11172674D01*
X1389110Y-11172674D02*
X1408158Y-11163150D01*
X1408158Y-11163150D02*
X1436729Y-11163150D01*
X1436729Y-11163150D02*
X1455777Y-11172674D01*
X1455777Y-11172674D02*
X1465301Y-11191722D01*
X1465301Y-11191722D02*
X1465301Y-11296484D01*
X1465301Y-11191722D02*
X1474824Y-11172674D01*
X1474824Y-11172674D02*
X1493872Y-11163150D01*
X1493872Y-11163150D02*
X1522443Y-11163150D01*
X1522443Y-11163150D02*
X1541491Y-11172674D01*
X1541491Y-11172674D02*
X1551015Y-11191722D01*
X1551015Y-11191722D02*
X1551015Y-11296484D01*
X1941491Y-11086960D02*
X1770063Y-11344103D01*
X2198634Y-11096484D02*
X2217682Y-11096484D01*
X2217682Y-11096484D02*
X2236729Y-11106008D01*
X2236729Y-11106008D02*
X2246253Y-11115531D01*
X2246253Y-11115531D02*
X2255777Y-11134579D01*
X2255777Y-11134579D02*
X2265301Y-11172674D01*
X2265301Y-11172674D02*
X2265301Y-11220293D01*
X2265301Y-11220293D02*
X2255777Y-11258388D01*
X2255777Y-11258388D02*
X2246253Y-11277436D01*
X2246253Y-11277436D02*
X2236729Y-11286960D01*
X2236729Y-11286960D02*
X2217682Y-11296484D01*
X2217682Y-11296484D02*
X2198634Y-11296484D01*
X2198634Y-11296484D02*
X2179587Y-11286960D01*
X2179587Y-11286960D02*
X2170063Y-11277436D01*
X2170063Y-11277436D02*
X2160539Y-11258388D01*
X2160539Y-11258388D02*
X2151015Y-11220293D01*
X2151015Y-11220293D02*
X2151015Y-11172674D01*
X2151015Y-11172674D02*
X2160539Y-11134579D01*
X2160539Y-11134579D02*
X2170063Y-11115531D01*
X2170063Y-11115531D02*
X2179587Y-11106008D01*
X2179587Y-11106008D02*
X2198634Y-11096484D01*
X2351015Y-11277436D02*
X2360539Y-11286960D01*
X2360539Y-11286960D02*
X2351015Y-11296484D01*
X2351015Y-11296484D02*
X2341491Y-11286960D01*
X2341491Y-11286960D02*
X2351015Y-11277436D01*
X2351015Y-11277436D02*
X2351015Y-11296484D01*
X2436729Y-11115531D02*
X2446253Y-11106008D01*
X2446253Y-11106008D02*
X2465301Y-11096484D01*
X2465301Y-11096484D02*
X2512920Y-11096484D01*
X2512920Y-11096484D02*
X2531968Y-11106008D01*
X2531968Y-11106008D02*
X2541491Y-11115531D01*
X2541491Y-11115531D02*
X2551015Y-11134579D01*
X2551015Y-11134579D02*
X2551015Y-11153627D01*
X2551015Y-11153627D02*
X2541491Y-11182198D01*
X2541491Y-11182198D02*
X2427206Y-11296484D01*
X2427206Y-11296484D02*
X2551015Y-11296484D01*
X2731968Y-11096484D02*
X2636729Y-11096484D01*
X2636729Y-11096484D02*
X2627206Y-11191722D01*
X2627206Y-11191722D02*
X2636729Y-11182198D01*
X2636729Y-11182198D02*
X2655777Y-11172674D01*
X2655777Y-11172674D02*
X2703396Y-11172674D01*
X2703396Y-11172674D02*
X2722444Y-11182198D01*
X2722444Y-11182198D02*
X2731968Y-11191722D01*
X2731968Y-11191722D02*
X2741491Y-11210769D01*
X2741491Y-11210769D02*
X2741491Y-11258388D01*
X2741491Y-11258388D02*
X2731968Y-11277436D01*
X2731968Y-11277436D02*
X2722444Y-11286960D01*
X2722444Y-11286960D02*
X2703396Y-11296484D01*
X2703396Y-11296484D02*
X2655777Y-11296484D01*
X2655777Y-11296484D02*
X2636729Y-11286960D01*
X2636729Y-11286960D02*
X2627206Y-11277436D01*
X2817682Y-11115531D02*
X2827206Y-11106008D01*
X2827206Y-11106008D02*
X2846253Y-11096484D01*
X2846253Y-11096484D02*
X2893872Y-11096484D01*
X2893872Y-11096484D02*
X2912920Y-11106008D01*
X2912920Y-11106008D02*
X2922444Y-11115531D01*
X2922444Y-11115531D02*
X2931967Y-11134579D01*
X2931967Y-11134579D02*
X2931967Y-11153627D01*
X2931967Y-11153627D02*
X2922444Y-11182198D01*
X2922444Y-11182198D02*
X2808158Y-11296484D01*
X2808158Y-11296484D02*
X2931967Y-11296484D01*
X3055777Y-11096484D02*
X3074825Y-11096484D01*
X3074825Y-11096484D02*
X3093872Y-11106008D01*
X3093872Y-11106008D02*
X3103396Y-11115531D01*
X3103396Y-11115531D02*
X3112920Y-11134579D01*
X3112920Y-11134579D02*
X3122444Y-11172674D01*
X3122444Y-11172674D02*
X3122444Y-11220293D01*
X3122444Y-11220293D02*
X3112920Y-11258388D01*
X3112920Y-11258388D02*
X3103396Y-11277436D01*
X3103396Y-11277436D02*
X3093872Y-11286960D01*
X3093872Y-11286960D02*
X3074825Y-11296484D01*
X3074825Y-11296484D02*
X3055777Y-11296484D01*
X3055777Y-11296484D02*
X3036729Y-11286960D01*
X3036729Y-11286960D02*
X3027206Y-11277436D01*
X3027206Y-11277436D02*
X3017682Y-11258388D01*
X3017682Y-11258388D02*
X3008158Y-11220293D01*
X3008158Y-11220293D02*
X3008158Y-11172674D01*
X3008158Y-11172674D02*
X3017682Y-11134579D01*
X3017682Y-11134579D02*
X3027206Y-11115531D01*
X3027206Y-11115531D02*
X3036729Y-11106008D01*
X3036729Y-11106008D02*
X3055777Y-11096484D01*
X3198634Y-11096484D02*
X3198634Y-11134579D01*
X3274825Y-11096484D02*
X3274825Y-11134579D01*
X3570063Y-11372674D02*
X3560539Y-11363150D01*
X3560539Y-11363150D02*
X3541491Y-11334579D01*
X3541491Y-11334579D02*
X3531968Y-11315531D01*
X3531968Y-11315531D02*
X3522444Y-11286960D01*
X3522444Y-11286960D02*
X3512920Y-11239341D01*
X3512920Y-11239341D02*
X3512920Y-11201246D01*
X3512920Y-11201246D02*
X3522444Y-11153627D01*
X3522444Y-11153627D02*
X3531968Y-11125055D01*
X3531968Y-11125055D02*
X3541491Y-11106008D01*
X3541491Y-11106008D02*
X3560539Y-11077436D01*
X3560539Y-11077436D02*
X3570063Y-11067912D01*
X3674825Y-11182198D02*
X3655777Y-11172674D01*
X3655777Y-11172674D02*
X3646253Y-11163150D01*
X3646253Y-11163150D02*
X3636729Y-11144103D01*
X3636729Y-11144103D02*
X3636729Y-11134579D01*
X3636729Y-11134579D02*
X3646253Y-11115531D01*
X3646253Y-11115531D02*
X3655777Y-11106008D01*
X3655777Y-11106008D02*
X3674825Y-11096484D01*
X3674825Y-11096484D02*
X3712920Y-11096484D01*
X3712920Y-11096484D02*
X3731968Y-11106008D01*
X3731968Y-11106008D02*
X3741491Y-11115531D01*
X3741491Y-11115531D02*
X3751015Y-11134579D01*
X3751015Y-11134579D02*
X3751015Y-11144103D01*
X3751015Y-11144103D02*
X3741491Y-11163150D01*
X3741491Y-11163150D02*
X3731968Y-11172674D01*
X3731968Y-11172674D02*
X3712920Y-11182198D01*
X3712920Y-11182198D02*
X3674825Y-11182198D01*
X3674825Y-11182198D02*
X3655777Y-11191722D01*
X3655777Y-11191722D02*
X3646253Y-11201246D01*
X3646253Y-11201246D02*
X3636729Y-11220293D01*
X3636729Y-11220293D02*
X3636729Y-11258388D01*
X3636729Y-11258388D02*
X3646253Y-11277436D01*
X3646253Y-11277436D02*
X3655777Y-11286960D01*
X3655777Y-11286960D02*
X3674825Y-11296484D01*
X3674825Y-11296484D02*
X3712920Y-11296484D01*
X3712920Y-11296484D02*
X3731968Y-11286960D01*
X3731968Y-11286960D02*
X3741491Y-11277436D01*
X3741491Y-11277436D02*
X3751015Y-11258388D01*
X3751015Y-11258388D02*
X3751015Y-11220293D01*
X3751015Y-11220293D02*
X3741491Y-11201246D01*
X3741491Y-11201246D02*
X3731968Y-11191722D01*
X3731968Y-11191722D02*
X3712920Y-11182198D01*
X3989110Y-11296484D02*
X3989110Y-11096484D01*
X4074825Y-11296484D02*
X4074825Y-11191722D01*
X4074825Y-11191722D02*
X4065301Y-11172674D01*
X4065301Y-11172674D02*
X4046253Y-11163150D01*
X4046253Y-11163150D02*
X4017682Y-11163150D01*
X4017682Y-11163150D02*
X3998634Y-11172674D01*
X3998634Y-11172674D02*
X3989110Y-11182198D01*
X4198634Y-11296484D02*
X4179587Y-11286960D01*
X4179587Y-11286960D02*
X4170063Y-11277436D01*
X4170063Y-11277436D02*
X4160539Y-11258388D01*
X4160539Y-11258388D02*
X4160539Y-11201246D01*
X4160539Y-11201246D02*
X4170063Y-11182198D01*
X4170063Y-11182198D02*
X4179587Y-11172674D01*
X4179587Y-11172674D02*
X4198634Y-11163150D01*
X4198634Y-11163150D02*
X4227206Y-11163150D01*
X4227206Y-11163150D02*
X4246253Y-11172674D01*
X4246253Y-11172674D02*
X4255777Y-11182198D01*
X4255777Y-11182198D02*
X4265301Y-11201246D01*
X4265301Y-11201246D02*
X4265301Y-11258388D01*
X4265301Y-11258388D02*
X4255777Y-11277436D01*
X4255777Y-11277436D02*
X4246253Y-11286960D01*
X4246253Y-11286960D02*
X4227206Y-11296484D01*
X4227206Y-11296484D02*
X4198634Y-11296484D01*
X4379587Y-11296484D02*
X4360539Y-11286960D01*
X4360539Y-11286960D02*
X4351015Y-11267912D01*
X4351015Y-11267912D02*
X4351015Y-11096484D01*
X4531968Y-11286960D02*
X4512920Y-11296484D01*
X4512920Y-11296484D02*
X4474825Y-11296484D01*
X4474825Y-11296484D02*
X4455777Y-11286960D01*
X4455777Y-11286960D02*
X4446253Y-11267912D01*
X4446253Y-11267912D02*
X4446253Y-11191722D01*
X4446253Y-11191722D02*
X4455777Y-11172674D01*
X4455777Y-11172674D02*
X4474825Y-11163150D01*
X4474825Y-11163150D02*
X4512920Y-11163150D01*
X4512920Y-11163150D02*
X4531968Y-11172674D01*
X4531968Y-11172674D02*
X4541492Y-11191722D01*
X4541492Y-11191722D02*
X4541492Y-11210769D01*
X4541492Y-11210769D02*
X4446253Y-11229817D01*
X4617682Y-11286960D02*
X4636730Y-11296484D01*
X4636730Y-11296484D02*
X4674825Y-11296484D01*
X4674825Y-11296484D02*
X4693873Y-11286960D01*
X4693873Y-11286960D02*
X4703396Y-11267912D01*
X4703396Y-11267912D02*
X4703396Y-11258388D01*
X4703396Y-11258388D02*
X4693873Y-11239341D01*
X4693873Y-11239341D02*
X4674825Y-11229817D01*
X4674825Y-11229817D02*
X4646253Y-11229817D01*
X4646253Y-11229817D02*
X4627206Y-11220293D01*
X4627206Y-11220293D02*
X4617682Y-11201246D01*
X4617682Y-11201246D02*
X4617682Y-11191722D01*
X4617682Y-11191722D02*
X4627206Y-11172674D01*
X4627206Y-11172674D02*
X4646253Y-11163150D01*
X4646253Y-11163150D02*
X4674825Y-11163150D01*
X4674825Y-11163150D02*
X4693873Y-11172674D01*
X4770063Y-11372674D02*
X4779587Y-11363150D01*
X4779587Y-11363150D02*
X4798634Y-11334579D01*
X4798634Y-11334579D02*
X4808158Y-11315531D01*
X4808158Y-11315531D02*
X4817682Y-11286960D01*
X4817682Y-11286960D02*
X4827206Y-11239341D01*
X4827206Y-11239341D02*
X4827206Y-11201246D01*
X4827206Y-11201246D02*
X4817682Y-11153627D01*
X4817682Y-11153627D02*
X4808158Y-11125055D01*
X4808158Y-11125055D02*
X4798634Y-11106008D01*
X4798634Y-11106008D02*
X4779587Y-11077436D01*
X4779587Y-11077436D02*
X4770063Y-11067912D01*
X-34289Y-11595711D02*
X-34289Y-11454289D01*
X-175711Y-11454289D01*
X-175711Y-11595711D01*
X-34289Y-11595711D01*
X341491Y-11483150D02*
X341491Y-11616484D01*
X293872Y-11406960D02*
X246253Y-11549817D01*
X246253Y-11549817D02*
X370062Y-11549817D01*
X446253Y-11597436D02*
X455777Y-11606960D01*
X455777Y-11606960D02*
X446253Y-11616484D01*
X446253Y-11616484D02*
X436729Y-11606960D01*
X436729Y-11606960D02*
X446253Y-11597436D01*
X446253Y-11597436D02*
X446253Y-11616484D01*
X522443Y-11416484D02*
X646253Y-11416484D01*
X646253Y-11416484D02*
X579586Y-11492674D01*
X579586Y-11492674D02*
X608158Y-11492674D01*
X608158Y-11492674D02*
X627205Y-11502198D01*
X627205Y-11502198D02*
X636729Y-11511722D01*
X636729Y-11511722D02*
X646253Y-11530769D01*
X646253Y-11530769D02*
X646253Y-11578388D01*
X646253Y-11578388D02*
X636729Y-11597436D01*
X636729Y-11597436D02*
X627205Y-11606960D01*
X627205Y-11606960D02*
X608158Y-11616484D01*
X608158Y-11616484D02*
X551015Y-11616484D01*
X551015Y-11616484D02*
X531967Y-11606960D01*
X531967Y-11606960D02*
X522443Y-11597436D01*
X770062Y-11416484D02*
X789110Y-11416484D01*
X789110Y-11416484D02*
X808158Y-11426008D01*
X808158Y-11426008D02*
X817682Y-11435531D01*
X817682Y-11435531D02*
X827205Y-11454579D01*
X827205Y-11454579D02*
X836729Y-11492674D01*
X836729Y-11492674D02*
X836729Y-11540293D01*
X836729Y-11540293D02*
X827205Y-11578388D01*
X827205Y-11578388D02*
X817682Y-11597436D01*
X817682Y-11597436D02*
X808158Y-11606960D01*
X808158Y-11606960D02*
X789110Y-11616484D01*
X789110Y-11616484D02*
X770062Y-11616484D01*
X770062Y-11616484D02*
X751015Y-11606960D01*
X751015Y-11606960D02*
X741491Y-11597436D01*
X741491Y-11597436D02*
X731967Y-11578388D01*
X731967Y-11578388D02*
X722443Y-11540293D01*
X722443Y-11540293D02*
X722443Y-11492674D01*
X722443Y-11492674D02*
X731967Y-11454579D01*
X731967Y-11454579D02*
X741491Y-11435531D01*
X741491Y-11435531D02*
X751015Y-11426008D01*
X751015Y-11426008D02*
X770062Y-11416484D01*
X960539Y-11416484D02*
X979586Y-11416484D01*
X979586Y-11416484D02*
X998634Y-11426008D01*
X998634Y-11426008D02*
X1008158Y-11435531D01*
X1008158Y-11435531D02*
X1017682Y-11454579D01*
X1017682Y-11454579D02*
X1027205Y-11492674D01*
X1027205Y-11492674D02*
X1027205Y-11540293D01*
X1027205Y-11540293D02*
X1017682Y-11578388D01*
X1017682Y-11578388D02*
X1008158Y-11597436D01*
X1008158Y-11597436D02*
X998634Y-11606960D01*
X998634Y-11606960D02*
X979586Y-11616484D01*
X979586Y-11616484D02*
X960539Y-11616484D01*
X960539Y-11616484D02*
X941491Y-11606960D01*
X941491Y-11606960D02*
X931967Y-11597436D01*
X931967Y-11597436D02*
X922443Y-11578388D01*
X922443Y-11578388D02*
X912920Y-11540293D01*
X912920Y-11540293D02*
X912920Y-11492674D01*
X912920Y-11492674D02*
X922443Y-11454579D01*
X922443Y-11454579D02*
X931967Y-11435531D01*
X931967Y-11435531D02*
X941491Y-11426008D01*
X941491Y-11426008D02*
X960539Y-11416484D01*
X1112920Y-11616484D02*
X1112920Y-11483150D01*
X1112920Y-11502198D02*
X1122444Y-11492674D01*
X1122444Y-11492674D02*
X1141491Y-11483150D01*
X1141491Y-11483150D02*
X1170063Y-11483150D01*
X1170063Y-11483150D02*
X1189110Y-11492674D01*
X1189110Y-11492674D02*
X1198634Y-11511722D01*
X1198634Y-11511722D02*
X1198634Y-11616484D01*
X1198634Y-11511722D02*
X1208158Y-11492674D01*
X1208158Y-11492674D02*
X1227205Y-11483150D01*
X1227205Y-11483150D02*
X1255777Y-11483150D01*
X1255777Y-11483150D02*
X1274825Y-11492674D01*
X1274825Y-11492674D02*
X1284348Y-11511722D01*
X1284348Y-11511722D02*
X1284348Y-11616484D01*
X1379586Y-11616484D02*
X1379586Y-11483150D01*
X1379586Y-11502198D02*
X1389110Y-11492674D01*
X1389110Y-11492674D02*
X1408158Y-11483150D01*
X1408158Y-11483150D02*
X1436729Y-11483150D01*
X1436729Y-11483150D02*
X1455777Y-11492674D01*
X1455777Y-11492674D02*
X1465301Y-11511722D01*
X1465301Y-11511722D02*
X1465301Y-11616484D01*
X1465301Y-11511722D02*
X1474824Y-11492674D01*
X1474824Y-11492674D02*
X1493872Y-11483150D01*
X1493872Y-11483150D02*
X1522443Y-11483150D01*
X1522443Y-11483150D02*
X1541491Y-11492674D01*
X1541491Y-11492674D02*
X1551015Y-11511722D01*
X1551015Y-11511722D02*
X1551015Y-11616484D01*
X1941491Y-11406960D02*
X1770063Y-11664103D01*
X2198634Y-11416484D02*
X2217682Y-11416484D01*
X2217682Y-11416484D02*
X2236729Y-11426008D01*
X2236729Y-11426008D02*
X2246253Y-11435531D01*
X2246253Y-11435531D02*
X2255777Y-11454579D01*
X2255777Y-11454579D02*
X2265301Y-11492674D01*
X2265301Y-11492674D02*
X2265301Y-11540293D01*
X2265301Y-11540293D02*
X2255777Y-11578388D01*
X2255777Y-11578388D02*
X2246253Y-11597436D01*
X2246253Y-11597436D02*
X2236729Y-11606960D01*
X2236729Y-11606960D02*
X2217682Y-11616484D01*
X2217682Y-11616484D02*
X2198634Y-11616484D01*
X2198634Y-11616484D02*
X2179587Y-11606960D01*
X2179587Y-11606960D02*
X2170063Y-11597436D01*
X2170063Y-11597436D02*
X2160539Y-11578388D01*
X2160539Y-11578388D02*
X2151015Y-11540293D01*
X2151015Y-11540293D02*
X2151015Y-11492674D01*
X2151015Y-11492674D02*
X2160539Y-11454579D01*
X2160539Y-11454579D02*
X2170063Y-11435531D01*
X2170063Y-11435531D02*
X2179587Y-11426008D01*
X2179587Y-11426008D02*
X2198634Y-11416484D01*
X2351015Y-11597436D02*
X2360539Y-11606960D01*
X2360539Y-11606960D02*
X2351015Y-11616484D01*
X2351015Y-11616484D02*
X2341491Y-11606960D01*
X2341491Y-11606960D02*
X2351015Y-11597436D01*
X2351015Y-11597436D02*
X2351015Y-11616484D01*
X2551015Y-11616484D02*
X2436729Y-11616484D01*
X2493872Y-11616484D02*
X2493872Y-11416484D01*
X2493872Y-11416484D02*
X2474825Y-11445055D01*
X2474825Y-11445055D02*
X2455777Y-11464103D01*
X2455777Y-11464103D02*
X2436729Y-11473627D01*
X2722444Y-11416484D02*
X2684348Y-11416484D01*
X2684348Y-11416484D02*
X2665301Y-11426008D01*
X2665301Y-11426008D02*
X2655777Y-11435531D01*
X2655777Y-11435531D02*
X2636729Y-11464103D01*
X2636729Y-11464103D02*
X2627206Y-11502198D01*
X2627206Y-11502198D02*
X2627206Y-11578388D01*
X2627206Y-11578388D02*
X2636729Y-11597436D01*
X2636729Y-11597436D02*
X2646253Y-11606960D01*
X2646253Y-11606960D02*
X2665301Y-11616484D01*
X2665301Y-11616484D02*
X2703396Y-11616484D01*
X2703396Y-11616484D02*
X2722444Y-11606960D01*
X2722444Y-11606960D02*
X2731968Y-11597436D01*
X2731968Y-11597436D02*
X2741491Y-11578388D01*
X2741491Y-11578388D02*
X2741491Y-11530769D01*
X2741491Y-11530769D02*
X2731968Y-11511722D01*
X2731968Y-11511722D02*
X2722444Y-11502198D01*
X2722444Y-11502198D02*
X2703396Y-11492674D01*
X2703396Y-11492674D02*
X2665301Y-11492674D01*
X2665301Y-11492674D02*
X2646253Y-11502198D01*
X2646253Y-11502198D02*
X2636729Y-11511722D01*
X2636729Y-11511722D02*
X2627206Y-11530769D01*
X2836729Y-11616484D02*
X2874825Y-11616484D01*
X2874825Y-11616484D02*
X2893872Y-11606960D01*
X2893872Y-11606960D02*
X2903396Y-11597436D01*
X2903396Y-11597436D02*
X2922444Y-11568865D01*
X2922444Y-11568865D02*
X2931967Y-11530769D01*
X2931967Y-11530769D02*
X2931967Y-11454579D01*
X2931967Y-11454579D02*
X2922444Y-11435531D01*
X2922444Y-11435531D02*
X2912920Y-11426008D01*
X2912920Y-11426008D02*
X2893872Y-11416484D01*
X2893872Y-11416484D02*
X2855777Y-11416484D01*
X2855777Y-11416484D02*
X2836729Y-11426008D01*
X2836729Y-11426008D02*
X2827206Y-11435531D01*
X2827206Y-11435531D02*
X2817682Y-11454579D01*
X2817682Y-11454579D02*
X2817682Y-11502198D01*
X2817682Y-11502198D02*
X2827206Y-11521246D01*
X2827206Y-11521246D02*
X2836729Y-11530769D01*
X2836729Y-11530769D02*
X2855777Y-11540293D01*
X2855777Y-11540293D02*
X2893872Y-11540293D01*
X2893872Y-11540293D02*
X2912920Y-11530769D01*
X2912920Y-11530769D02*
X2922444Y-11521246D01*
X2922444Y-11521246D02*
X2931967Y-11502198D01*
X2998634Y-11416484D02*
X3122444Y-11416484D01*
X3122444Y-11416484D02*
X3055777Y-11492674D01*
X3055777Y-11492674D02*
X3084348Y-11492674D01*
X3084348Y-11492674D02*
X3103396Y-11502198D01*
X3103396Y-11502198D02*
X3112920Y-11511722D01*
X3112920Y-11511722D02*
X3122444Y-11530769D01*
X3122444Y-11530769D02*
X3122444Y-11578388D01*
X3122444Y-11578388D02*
X3112920Y-11597436D01*
X3112920Y-11597436D02*
X3103396Y-11606960D01*
X3103396Y-11606960D02*
X3084348Y-11616484D01*
X3084348Y-11616484D02*
X3027206Y-11616484D01*
X3027206Y-11616484D02*
X3008158Y-11606960D01*
X3008158Y-11606960D02*
X2998634Y-11597436D01*
X3198634Y-11416484D02*
X3198634Y-11454579D01*
X3274825Y-11416484D02*
X3274825Y-11454579D01*
X3570063Y-11692674D02*
X3560539Y-11683150D01*
X3560539Y-11683150D02*
X3541491Y-11654579D01*
X3541491Y-11654579D02*
X3531968Y-11635531D01*
X3531968Y-11635531D02*
X3522444Y-11606960D01*
X3522444Y-11606960D02*
X3512920Y-11559341D01*
X3512920Y-11559341D02*
X3512920Y-11521246D01*
X3512920Y-11521246D02*
X3522444Y-11473627D01*
X3522444Y-11473627D02*
X3531968Y-11445055D01*
X3531968Y-11445055D02*
X3541491Y-11426008D01*
X3541491Y-11426008D02*
X3560539Y-11397436D01*
X3560539Y-11397436D02*
X3570063Y-11387912D01*
X3731968Y-11483150D02*
X3731968Y-11616484D01*
X3684348Y-11406960D02*
X3636729Y-11549817D01*
X3636729Y-11549817D02*
X3760539Y-11549817D01*
X3989110Y-11616484D02*
X3989110Y-11416484D01*
X4074825Y-11616484D02*
X4074825Y-11511722D01*
X4074825Y-11511722D02*
X4065301Y-11492674D01*
X4065301Y-11492674D02*
X4046253Y-11483150D01*
X4046253Y-11483150D02*
X4017682Y-11483150D01*
X4017682Y-11483150D02*
X3998634Y-11492674D01*
X3998634Y-11492674D02*
X3989110Y-11502198D01*
X4198634Y-11616484D02*
X4179587Y-11606960D01*
X4179587Y-11606960D02*
X4170063Y-11597436D01*
X4170063Y-11597436D02*
X4160539Y-11578388D01*
X4160539Y-11578388D02*
X4160539Y-11521246D01*
X4160539Y-11521246D02*
X4170063Y-11502198D01*
X4170063Y-11502198D02*
X4179587Y-11492674D01*
X4179587Y-11492674D02*
X4198634Y-11483150D01*
X4198634Y-11483150D02*
X4227206Y-11483150D01*
X4227206Y-11483150D02*
X4246253Y-11492674D01*
X4246253Y-11492674D02*
X4255777Y-11502198D01*
X4255777Y-11502198D02*
X4265301Y-11521246D01*
X4265301Y-11521246D02*
X4265301Y-11578388D01*
X4265301Y-11578388D02*
X4255777Y-11597436D01*
X4255777Y-11597436D02*
X4246253Y-11606960D01*
X4246253Y-11606960D02*
X4227206Y-11616484D01*
X4227206Y-11616484D02*
X4198634Y-11616484D01*
X4379587Y-11616484D02*
X4360539Y-11606960D01*
X4360539Y-11606960D02*
X4351015Y-11587912D01*
X4351015Y-11587912D02*
X4351015Y-11416484D01*
X4531968Y-11606960D02*
X4512920Y-11616484D01*
X4512920Y-11616484D02*
X4474825Y-11616484D01*
X4474825Y-11616484D02*
X4455777Y-11606960D01*
X4455777Y-11606960D02*
X4446253Y-11587912D01*
X4446253Y-11587912D02*
X4446253Y-11511722D01*
X4446253Y-11511722D02*
X4455777Y-11492674D01*
X4455777Y-11492674D02*
X4474825Y-11483150D01*
X4474825Y-11483150D02*
X4512920Y-11483150D01*
X4512920Y-11483150D02*
X4531968Y-11492674D01*
X4531968Y-11492674D02*
X4541492Y-11511722D01*
X4541492Y-11511722D02*
X4541492Y-11530769D01*
X4541492Y-11530769D02*
X4446253Y-11549817D01*
X4617682Y-11606960D02*
X4636730Y-11616484D01*
X4636730Y-11616484D02*
X4674825Y-11616484D01*
X4674825Y-11616484D02*
X4693873Y-11606960D01*
X4693873Y-11606960D02*
X4703396Y-11587912D01*
X4703396Y-11587912D02*
X4703396Y-11578388D01*
X4703396Y-11578388D02*
X4693873Y-11559341D01*
X4693873Y-11559341D02*
X4674825Y-11549817D01*
X4674825Y-11549817D02*
X4646253Y-11549817D01*
X4646253Y-11549817D02*
X4627206Y-11540293D01*
X4627206Y-11540293D02*
X4617682Y-11521246D01*
X4617682Y-11521246D02*
X4617682Y-11511722D01*
X4617682Y-11511722D02*
X4627206Y-11492674D01*
X4627206Y-11492674D02*
X4646253Y-11483150D01*
X4646253Y-11483150D02*
X4674825Y-11483150D01*
X4674825Y-11483150D02*
X4693873Y-11492674D01*
X4770063Y-11692674D02*
X4779587Y-11683150D01*
X4779587Y-11683150D02*
X4798634Y-11654579D01*
X4798634Y-11654579D02*
X4808158Y-11635531D01*
X4808158Y-11635531D02*
X4817682Y-11606960D01*
X4817682Y-11606960D02*
X4827206Y-11559341D01*
X4827206Y-11559341D02*
X4827206Y-11521246D01*
X4827206Y-11521246D02*
X4817682Y-11473627D01*
X4817682Y-11473627D02*
X4808158Y-11445055D01*
X4808158Y-11445055D02*
X4798634Y-11426008D01*
X4798634Y-11426008D02*
X4779587Y-11397436D01*
X4779587Y-11397436D02*
X4770063Y-11387912D01*
X5131968Y-11692674D02*
X5122444Y-11683150D01*
X5122444Y-11683150D02*
X5103396Y-11654579D01*
X5103396Y-11654579D02*
X5093873Y-11635531D01*
X5093873Y-11635531D02*
X5084349Y-11606960D01*
X5084349Y-11606960D02*
X5074825Y-11559341D01*
X5074825Y-11559341D02*
X5074825Y-11521246D01*
X5074825Y-11521246D02*
X5084349Y-11473627D01*
X5084349Y-11473627D02*
X5093873Y-11445055D01*
X5093873Y-11445055D02*
X5103396Y-11426008D01*
X5103396Y-11426008D02*
X5122444Y-11397436D01*
X5122444Y-11397436D02*
X5131968Y-11387912D01*
X5208158Y-11483150D02*
X5208158Y-11616484D01*
X5208158Y-11502198D02*
X5217682Y-11492674D01*
X5217682Y-11492674D02*
X5236730Y-11483150D01*
X5236730Y-11483150D02*
X5265301Y-11483150D01*
X5265301Y-11483150D02*
X5284349Y-11492674D01*
X5284349Y-11492674D02*
X5293873Y-11511722D01*
X5293873Y-11511722D02*
X5293873Y-11616484D01*
X5417682Y-11616484D02*
X5398634Y-11606960D01*
X5398634Y-11606960D02*
X5389111Y-11597436D01*
X5389111Y-11597436D02*
X5379587Y-11578388D01*
X5379587Y-11578388D02*
X5379587Y-11521246D01*
X5379587Y-11521246D02*
X5389111Y-11502198D01*
X5389111Y-11502198D02*
X5398634Y-11492674D01*
X5398634Y-11492674D02*
X5417682Y-11483150D01*
X5417682Y-11483150D02*
X5446254Y-11483150D01*
X5446254Y-11483150D02*
X5465301Y-11492674D01*
X5465301Y-11492674D02*
X5474825Y-11502198D01*
X5474825Y-11502198D02*
X5484349Y-11521246D01*
X5484349Y-11521246D02*
X5484349Y-11578388D01*
X5484349Y-11578388D02*
X5474825Y-11597436D01*
X5474825Y-11597436D02*
X5465301Y-11606960D01*
X5465301Y-11606960D02*
X5446254Y-11616484D01*
X5446254Y-11616484D02*
X5417682Y-11616484D01*
X5541492Y-11483150D02*
X5617682Y-11483150D01*
X5570063Y-11416484D02*
X5570063Y-11587912D01*
X5570063Y-11587912D02*
X5579587Y-11606960D01*
X5579587Y-11606960D02*
X5598634Y-11616484D01*
X5598634Y-11616484D02*
X5617682Y-11616484D01*
X5836730Y-11483150D02*
X5836730Y-11683150D01*
X5836730Y-11492674D02*
X5855777Y-11483150D01*
X5855777Y-11483150D02*
X5893873Y-11483150D01*
X5893873Y-11483150D02*
X5912920Y-11492674D01*
X5912920Y-11492674D02*
X5922444Y-11502198D01*
X5922444Y-11502198D02*
X5931968Y-11521246D01*
X5931968Y-11521246D02*
X5931968Y-11578388D01*
X5931968Y-11578388D02*
X5922444Y-11597436D01*
X5922444Y-11597436D02*
X5912920Y-11606960D01*
X5912920Y-11606960D02*
X5893873Y-11616484D01*
X5893873Y-11616484D02*
X5855777Y-11616484D01*
X5855777Y-11616484D02*
X5836730Y-11606960D01*
X6046253Y-11616484D02*
X6027206Y-11606960D01*
X6027206Y-11606960D02*
X6017682Y-11587912D01*
X6017682Y-11587912D02*
X6017682Y-11416484D01*
X6208158Y-11616484D02*
X6208158Y-11511722D01*
X6208158Y-11511722D02*
X6198634Y-11492674D01*
X6198634Y-11492674D02*
X6179587Y-11483150D01*
X6179587Y-11483150D02*
X6141492Y-11483150D01*
X6141492Y-11483150D02*
X6122444Y-11492674D01*
X6208158Y-11606960D02*
X6189111Y-11616484D01*
X6189111Y-11616484D02*
X6141492Y-11616484D01*
X6141492Y-11616484D02*
X6122444Y-11606960D01*
X6122444Y-11606960D02*
X6112920Y-11587912D01*
X6112920Y-11587912D02*
X6112920Y-11568865D01*
X6112920Y-11568865D02*
X6122444Y-11549817D01*
X6122444Y-11549817D02*
X6141492Y-11540293D01*
X6141492Y-11540293D02*
X6189111Y-11540293D01*
X6189111Y-11540293D02*
X6208158Y-11530769D01*
X6274825Y-11483150D02*
X6351015Y-11483150D01*
X6303396Y-11416484D02*
X6303396Y-11587912D01*
X6303396Y-11587912D02*
X6312920Y-11606960D01*
X6312920Y-11606960D02*
X6331968Y-11616484D01*
X6331968Y-11616484D02*
X6351015Y-11616484D01*
X6493873Y-11606960D02*
X6474825Y-11616484D01*
X6474825Y-11616484D02*
X6436730Y-11616484D01*
X6436730Y-11616484D02*
X6417682Y-11606960D01*
X6417682Y-11606960D02*
X6408158Y-11587912D01*
X6408158Y-11587912D02*
X6408158Y-11511722D01*
X6408158Y-11511722D02*
X6417682Y-11492674D01*
X6417682Y-11492674D02*
X6436730Y-11483150D01*
X6436730Y-11483150D02*
X6474825Y-11483150D01*
X6474825Y-11483150D02*
X6493873Y-11492674D01*
X6493873Y-11492674D02*
X6503396Y-11511722D01*
X6503396Y-11511722D02*
X6503396Y-11530769D01*
X6503396Y-11530769D02*
X6408158Y-11549817D01*
X6674825Y-11616484D02*
X6674825Y-11416484D01*
X6674825Y-11606960D02*
X6655777Y-11616484D01*
X6655777Y-11616484D02*
X6617682Y-11616484D01*
X6617682Y-11616484D02*
X6598634Y-11606960D01*
X6598634Y-11606960D02*
X6589111Y-11597436D01*
X6589111Y-11597436D02*
X6579587Y-11578388D01*
X6579587Y-11578388D02*
X6579587Y-11521246D01*
X6579587Y-11521246D02*
X6589111Y-11502198D01*
X6589111Y-11502198D02*
X6598634Y-11492674D01*
X6598634Y-11492674D02*
X6617682Y-11483150D01*
X6617682Y-11483150D02*
X6655777Y-11483150D01*
X6655777Y-11483150D02*
X6674825Y-11492674D01*
X6751015Y-11692674D02*
X6760539Y-11683150D01*
X6760539Y-11683150D02*
X6779587Y-11654579D01*
X6779587Y-11654579D02*
X6789111Y-11635531D01*
X6789111Y-11635531D02*
X6798634Y-11606960D01*
X6798634Y-11606960D02*
X6808158Y-11559341D01*
X6808158Y-11559341D02*
X6808158Y-11521246D01*
X6808158Y-11521246D02*
X6798634Y-11473627D01*
X6798634Y-11473627D02*
X6789111Y-11445055D01*
X6789111Y-11445055D02*
X6779587Y-11426008D01*
X6779587Y-11426008D02*
X6760539Y-11397436D01*
X6760539Y-11397436D02*
X6751015Y-11387912D01*
M02*
